<?xml version="1.0" standalone="no"?><!DOCTYPE svg PUBLIC "-//W3C//DTD SVG 1.1//EN" "http://www.w3.org/Graphics/SVG/1.1/DTD/svg11.dtd"><svg t="1740287455723" class="icon" viewBox="0 0 1024 1024" version="1.1" xmlns="http://www.w3.org/2000/svg" p-id="57160" xmlns:xlink="http://www.w3.org/1999/xlink" width="200" height="200"><path d="M189.711915 1023.95154h678.735695c88.01196-21.78399 141.569936-72.445967 155.55193-156.28993V155.42593C1004.919549 80.415964 962.711568 21.78199 868.44761 0L157.499929 0.996C68.205969 18.943991 19.947991 74.285967 0 155.42593v712.23568c20.307991 107.711952 112.16395 158.127929 189.711915 156.28993z m422.57981-177.57392H258.979884V185.179917s360.005838 1.539999 376.095831 4.257998c95.895957 13.027994 138.305938 66.44797 145.279934 125.665943 11.609995 98.615956-30.825986 146.433934-85.633961 172.233923 191.639914 66.53597 147.595934 345.247845-82.431963 359.039839z m-206.279907-392.551824l82.579963-0.68c77.455965-0.86 83.257963-1.04 95.721957-4.437998 38.979982-10.597995 55.883975-32.969985 55.883974-73.953966 0-31.429986-11.103995-51.763977-35.215984-63.719972-21.34799-10.595995-44.46398-12.815994-135.199939-12.997994h-63.771971v155.78993z m0 98.589956v181.375918l90.237959-0.679999c101.389954-0.678 104.787953-1.04 129.761942-13.131994 28.735987-13.993994 41.515981-36.909983 41.515981-74.315967 0-48.139978-19.125991-74.815966-63.225971-88.12996-20.543991-6.889997-114.689948-3.897998-198.291911-5.117998z" fill="#7E57C2" p-id="57161"></path></svg>