<?xml version="1.0" standalone="no"?><!DOCTYPE svg PUBLIC "-//W3C//DTD SVG 1.1//EN" "http://www.w3.org/Graphics/SVG/1.1/DTD/svg11.dtd"><svg t="1740278566683" class="icon" viewBox="0 0 1024 1024" version="1.1" xmlns="http://www.w3.org/2000/svg" p-id="3614" xmlns:xlink="http://www.w3.org/1999/xlink" width="200" height="200"><path d="M220.202667 266.666667L138.624 348.330667V137.685333h210.56L266.24 220.672l-6.272 6.229333 6.272 6.272 192.597333 192.682667v31.488h-35.413333L232.832 266.709333l-6.4-6.4-6.229333 6.4z m238.677333 134.058666V137.685333H374.272l-89.173333 89.216 173.781333 173.824zM226.432 285.568L138.666667 373.461333v83.882667h259.541333L226.432 285.568z m339.797333 113.92l172.544-172.586667-90.410666-90.453333h-82.133334v263.04z m197.802667-172.586667l-6.4 6.272-191.402667 191.573334v32.597333h33.536l191.018667-191.061333 6.229333-6.229334 6.4 6.229334 83.626667 83.626666V136.533333h-213.546667l84.181334 84.181334 6.4 6.229333z m-287.402667-107.093333v298.666667l35.328 35.328 36.522667-36.522667V118.698667h82.090667L512 0 392.192 119.765333h84.48z m148.394667 337.536h262.016V375.210667l-90.026667-90.026667-171.989333 172.16z m-171.733333 55.125333l-37.205334-37.205333h-295.253333V391.253333L0 512.085333l120.832 120.832V546.56H419.2l34.133333-34.090667z m112.938666 114.346667v258.389333h83.797334l87.253333-87.296-171.050667-171.093333zM226.858667 738.986667l174.592-174.634667h-262.826667v86.357333l88.234667 88.277334z m570.197333 0l90.026667-90.026667v-84.608h-264.533334l174.506667 174.634667z m107.904-107.946667l118.912-118.954667-118.912-118.954666v82.133333H607.146667l-36.821334 36.821333 34.474667 34.474667h300.16v84.48z m-107.946667 133.034667l-6.229333-6.229334L597.333333 564.352h-31.104v37.333333l189.952 189.952 6.229334 6.272-6.229334 6.4-80.938666 80.896h211.797333v-210.986666l-83.626667 83.626666-6.4 6.229334z m-248.533333 138.922666v-293.973333l-37.205333-37.205333-34.090667 34.090666v297.088h-87.04L511.317333 1024l120.96-121.002667h-83.797333z m-288.512-105.088l6.272-6.272 193.152-193.194666v-34.133334h-32.853333l-193.450667 193.536-6.229333 6.229334-6.272-6.229334L138.666667 675.84v209.365333h208.512L266.24 804.266667l-6.272-6.4z m199.424-174.208L285.098667 797.866667l87.296 87.296h87.04v-261.546667z" fill="#7E2F76" p-id="3615"></path></svg>