<?xml version="1.0" standalone="no"?><!DOCTYPE svg PUBLIC "-//W3C//DTD SVG 1.1//EN" "http://www.w3.org/Graphics/SVG/1.1/DTD/svg11.dtd"><svg t="1740283624967" class="icon" viewBox="0 0 1024 1024" version="1.1" xmlns="http://www.w3.org/2000/svg" p-id="32559" xmlns:xlink="http://www.w3.org/1999/xlink" width="200" height="200"><path d="M972.8 764.342857H658.285714v95.085714h-234.057143v-95.085714H51.2c-29.257143 0-51.2 25.6-51.2 58.514286v87.771428c0 32.914286 21.942857 58.514286 51.2 58.514286h917.942857c29.257143 0 51.2-25.6 51.2-58.514286v-87.771428c3.657143-32.914286-18.285714-58.514286-47.542857-58.514286zM899.657143 65.828571H124.342857c-29.257143 0-51.2 21.942857-51.2 51.2v522.971429c0 29.257143 21.942857 51.2 51.2 51.2h775.314286c29.257143 0 51.2-21.942857 51.2-51.2V117.028571c0-29.257143-21.942857-51.2-51.2-51.2zM281.6 515.657143c-25.6-40.228571-36.571429-87.771429-36.571429-135.314286 0-47.542857 14.628571-91.428571 36.571429-131.657143l54.857143 14.628572c-21.942857 32.914286-32.914286 73.142857-32.914286 117.028571 0 43.885714 14.628571 87.771429 36.571429 120.685714l-58.514286 14.628572z m109.714286-32.914286c-25.6-29.257143-40.228571-65.828571-40.228572-106.057143 0-36.571429 14.628571-73.142857 36.571429-102.4l58.514286 18.285715c-25.6 18.285714-40.228571 51.2-40.228572 84.114285 0 36.571429 18.285714 69.485714 47.542857 87.771429l-62.171428 18.285714z m120.685714-54.857143c-25.6 0-47.542857-21.942857-47.542857-47.542857 0-29.257143 21.942857-51.2 47.542857-51.2s47.542857 21.942857 47.542857 47.542857c0 29.257143-21.942857 51.2-47.542857 51.2z m120.685714 54.857143l-62.171428-18.285714c29.257143-18.285714 47.542857-51.2 47.542857-87.771429 0-32.914286-14.628571-65.828571-40.228572-84.114285l58.514286-18.285715c21.942857 29.257143 36.571429 62.171429 36.571429 102.4 0 43.885714-14.628571 80.457143-40.228572 106.057143z m109.714286 32.914286l-54.857143-14.628572c25.6-32.914286 40.228571-76.8 40.228572-120.685714 0-43.885714-14.628571-84.114286-36.571429-117.028571l54.857143-14.628572c21.942857 40.228571 36.571429 84.114286 36.571428 131.657143 0 47.542857-14.628571 95.085714-40.228571 135.314286z" p-id="32560"></path></svg>