<?xml version="1.0" standalone="no"?><!DOCTYPE svg PUBLIC "-//W3C//DTD SVG 1.1//EN" "http://www.w3.org/Graphics/SVG/1.1/DTD/svg11.dtd"><svg t="1740283438896" class="icon" viewBox="0 0 1279 1024" version="1.1" xmlns="http://www.w3.org/2000/svg" p-id="28798" xmlns:xlink="http://www.w3.org/1999/xlink" width="249.8046875" height="200"><path d="M1257.51089 0c-51.359367 64.318892-135.995015 345.394839-611.191345 357.875631C419.48286 363.835413 307.123229 105.55863 307.123229 105.55863l-17.799347 414.434808c-44.319625-55.559213-103.718698-90.919167-160.757857-92.799098a123.434225 123.434225 0 0 0-5.679792-0.124995 118.254415 118.254415 0 0 0-71.47863 23.874124l0.319988-0.199992C16.372637 477.513745-0.392998 522.473347 0.006987 572.354019c0.319988 49.799424 17.599355 104.798658 51.719354 154.438088s78.718364 84.639397 123.957956 100.798805a153.208134 153.208134 0 0 0 71.997361 8.359694C569.23987 1092.384956 1429.10835 1288.382771 1257.550889 0zM448.12181 343.99489c67.478776 0 123.397977 50.123163 139.39864 117.120707 25.799054-63.478923 86.079345-108.121037 156.31802-108.121037 93.759063 0 169.477537 79.479586 169.477537 177.157256 0 97.758916-75.718474 177.797232-169.477537 177.797232-81.639507 0-149.878256-60.799021-166.11891-140.994831-23.319145 52.159338-72.158605 88.839243-129.59775 88.839243-48.799461 0-91.519145-26.519028-117.478193-66.438814a297.930329 297.930329 0 0 0-16.199406-31.680089l0.759972 1.439947a163.40276 163.40276 0 0 1-10.9196-59.319075v-0.079997c0-85.559364 63.878908-155.838037 143.838477-155.798039z m0 19.199296c-68.47874 0-124.277944 60.679026-124.277944 136.598743s55.799205 136.478747 124.277944 136.478747a113.313346 113.313346 0 0 0 32.760049-5.439801c-47.873245-1.91993-86.039346-43.123419-86.079344-93.639067 0.039999-51.799351 40.039782-93.759063 89.399223-93.759063 42.399696 0 77.918394 30.998864 87.079308 72.598588l0.124995 0.639977a145.508416 145.508416 0 0 0 1.559943-16.839383c0-75.878468-56.319185-136.518746-124.797925-136.598742z m295.756659 6.999744c-84.039419 0-152.518159 71.158641-152.518159 159.994135 0 88.91924 68.47874 160.437869 152.518159 160.437868a146.282138 146.282138 0 0 0 85.121879-27.320248 108.30728 108.30728 0 0 1-45.759572 10.124629c-63.158935-0.079997-114.358308-53.799278-114.358308-120.120597 0-66.27882 51.199373-120.0381 114.358308-120.120597h0.079997c55.879202 0 102.438745 42.039709 112.438378 97.638921l0.124995 0.759972 0.159995-1.399948c0-88.91924-68.122503-159.994135-152.158173-160.037884z m-615.752428 74.122282c55.359221 1.874931 117.638188 41.079744 160.437868 103.238716 32.320065 47.039526 48.759463 99.518852 49.079451 145.438418s-15.039449 84.759393-45.123346 107.518559c-30.080147 22.719167-69.878688 25.599062-111.038429 10.9196-41.155991-14.761959-83.395693-47.084524-115.714508-94.082801-32.280067-46.998277-48.599468-99.55885-48.919457-145.478417-0.359987-45.959565 15.039449-84.759393 45.079597-107.518559a101.712521 101.712521 0 0 1 61.039013-20.19926c1.839933 0 3.639867 0.039999 5.4398 0.159995h-0.239991z m623.477144 13.079521c-29.640163 0-53.639284 25.199076-53.639283 56.319185v0.159995c0.039999 31.040112 24.039119 56.19919 53.639283 56.199189 29.560166-0.039999 53.559287-25.159078 53.599286-56.199189v-0.159995c0-31.080111-23.99912-56.279187-53.599286-56.319185zM450.521722 469.107804c-19.479286 0-35.279957 16.559393-35.319955 36.998643v0.124996c0 20.479249 15.799421 37.079891 35.319955 37.07989 19.479286 0 35.319955-16.599392 35.319956-37.07989v-0.124996c-0.039999-20.439251-15.839419-36.998644-35.319956-36.998643z m-342.07496 11.874564h-0.039998c-32.920043 0-59.599065 33.600018-59.639064 75.0385 0 41.479729 26.679022 75.078498 59.639064 75.078497h0.124995c32.873795-0.079997 59.519068-33.680015 59.519068-75.078497-0.039999-41.439731-26.679022-74.997251-59.559067-75.0385z m756.068534 213.242183s79.319592 23.19915 107.238569 61.079011c27.873978 37.759866 10.35962 61.079011 3.039889 109.318493-10.759606-28.160218-21.719204-50.239408-33.123786-63.078938-43.199666 67.158788-165.557681 99.078868-329.595418 83.159452 73.598552-3.839859 130.717708-15.359437 176.037297-31.160108-74.678512 4.799824-171.397467-14.399472-286.114512-56.919163 227.316667 47.719501 343.074924 3.359877 410.83494-51.519362-17.874345-24.27911-48.319479-50.873135-48.319479-50.873135z" fill="#5C5543" p-id="28799"></path></svg>