<?xml version="1.0" standalone="no"?><!DOCTYPE svg PUBLIC "-//W3C//DTD SVG 1.1//EN" "http://www.w3.org/Graphics/SVG/1.1/DTD/svg11.dtd"><svg t="1740278288617" class="icon" viewBox="0 0 1024 1024" version="1.1" xmlns="http://www.w3.org/2000/svg" p-id="2450" xmlns:xlink="http://www.w3.org/1999/xlink" width="200" height="200"><path d="M0 512C0 270.677333 0 150.016 74.922667 74.922667S270.677333 0 512 0c241.322667 0 361.984 0 437.077333 74.922667S1024 270.677333 1024 512c0 241.322667 0 361.984-74.922667 437.077333S753.322667 1024 512 1024c-241.322667 0-361.984 0-437.077333-74.922667S0 753.322667 0 512z" fill="#C2172D" p-id="2451"></path><path d="M519.509333 484.181333c0-19.968 1.194667-39.765333 2.389334-59.733333a576.170667 576.170667 0 0 1 13.653333-103.765333 302.421333 302.421333 0 0 1 17.066667-53.077334c1.194667-2.901333 2.901333-5.12 4.096-8.021333s3.413333-3.925333 6.826666-3.413333c10.24 2.218667 20.992 3.925333 31.402667 6.314666a85.333333 85.333333 0 0 1 34.133333 17.066667 97.450667 97.450667 0 0 1 35.328 56.32 123.050667 123.050667 0 0 1 1.194667 34.986667 258.730667 258.730667 0 0 1-23.893333 80.384 909.653333 909.653333 0 0 1-51.2 97.962666c-17.066667 29.184-35.328 57.002667-54.101334 85.333334a13.824 13.824 0 0 1-2.389333 3.413333 4.437333 4.437333 0 0 1-2.730667 1.194667s-1.706667-1.194667-1.706666-2.389334a70.144 70.144 0 0 1-1.194667-12.458666c-1.706667-26.282667-3.925333-52.394667-5.632-79.189334 0-13.824-1.194667-27.477333-1.194667-41.130666v-20.309334a1.877333 1.877333 0 0 1-2.048 0.512zM499.541333 485.376v40.448c-1.024 26.282667-2.730667 53.077333-4.437333 79.36 0 10.24-1.706667 19.968-2.901333 30.208v1.706667l-1.706667 2.218666a8.533333 8.533333 0 0 1-2.901333-1.194666 9.045333 9.045333 0 0 1-1.706667-2.218667 1281.536 1281.536 0 0 1-95.744-161.28 430.592 430.592 0 0 1-29.013333-73.557333 172.714667 172.714667 0 0 1-6.997334-45.738667 96.426667 96.426667 0 0 1 74.752-93.354667c8.533333-1.877333 17.066667-3.584 26.282667-5.12 5.12-1.194667 5.12 0 8.021333 3.925334a196.778667 196.778667 0 0 1 15.872 39.936 438.954667 438.954667 0 0 1 14.336 71.850666c2.730667 22.698667 4.437333 45.056 5.632 68.266667 0 14.848 0 30.208 1.194667 45.056 0-1.024 0-0.512-0.682667-0.512zM745.984 346.282667l7.338667 7.338666a197.632 197.632 0 0 1 38.229333 57.685334 99.157333 99.157333 0 0 1-8.533333 97.962666 144.042667 144.042667 0 0 1-29.696 29.696 638.805333 638.805333 0 0 1-66.730667 47.274667 1394.2784 1394.2784 0 0 1-124.245333 68.266667 13.824 13.824 0 0 1-2.218667 1.024h-2.901333c-0.512 0 0-1.706667 0-2.901334a27.306667 27.306667 0 0 0 1.706666-3.925333 1553.066667 1553.066667 0 0 1 102.4-184.832c25.088-38.058667 51.2-75.093333 79.189334-111.104a51.2 51.2 0 0 1 5.461333-6.485333zM274.944 346.794667c1.194667 1.194667 1.706667 2.389333 2.901333 3.413333A1587.2 1587.2 0 0 1 375.466667 490.496a1426.944 1426.944 0 0 1 73.557333 132.266667c4.608 9.216 9.216 18.773333 13.141333 27.989333 0 0 0 1.194667 1.194667 2.218667s0 4.096-2.901333 2.901333a3.584 3.584 0 0 1-2.218667-1.194667 1373.696 1373.696 0 0 1-149.504-85.333333 420.864 420.864 0 0 1-57.514667-45.056 95.232 95.232 0 0 1-30.72-79.872 109.738667 109.738667 0 0 1 10.752-37.717333A213.845333 213.845333 0 0 1 273.066667 348.501333l1.706666-1.706666zM176.298667 520.192l3.413333 1.706667c78.165333 42.154667 155.136 85.333333 230.4 131.754666 11.434667 6.826667 22.186667 14.165333 34.133333 21.674667 1.706667 1.024 3.925333 1.706667 3.413334 4.437333s-3.413333 1.706667-5.12 1.706667h-154.282667A120.832 120.832 0 0 1 187.733333 620.544a117.248 117.248 0 0 1-17.066666-73.045333 190.634667 190.634667 0 0 1 4.608-24.405334 15.189333 15.189333 0 0 0 1.024-2.901333zM843.946667 519.68a57.685333 57.685333 0 0 1 2.901333 10.24 122.197333 122.197333 0 0 1-34.133333 116.906667 118.101333 118.101333 0 0 1-71.168 34.133333 221.866667 221.866667 0 0 1-26.282667 1.024h-140.458667c-2.218667 0-2.730667-2.218667-1.024-3.925333s2.218667-1.706667 3.413334-2.901334c26.794667-17.066667 53.589333-34.133333 80.896-51.2 59.221333-35.328 119.466667-68.266667 180.736-102.4a22.186667 22.186667 0 0 0 5.12-1.877333zM788.138667 704.341333a182.101333 182.101333 0 0 1-29.696 38.741334 100.352 100.352 0 0 1-30.72 19.968 65.706667 65.706667 0 0 1-51.2 0l-17.066667-8.533334a597.333333 597.333333 0 0 1-65.024-41.130666 109.056 109.056 0 0 1-13.141333-9.728s-1.706667-1.024-2.218667-1.706667a2.218667 2.218667 0 0 1 0-2.730667s1.706667-1.706667 2.389333-1.706666h6.826667c20.48 0 40.96 1.024 61.610667 2.218666l51.2 1.706667 50.176 1.706667c10.581333 0.682667 23.210667 0.682667 36.864 1.194666zM232.106667 704.341333h21.845333l59.733333-1.706666 49.664-1.706667c24.405333-1.194667 48.981333-1.877333 73.557334-2.901333h4.608c1.024 0 2.218667 0 2.218666 1.024a3.754667 3.754667 0 0 1-1.194666 2.901333s-1.024 0-1.024 1.194667a860.330667 860.330667 0 0 1-79.872 51.2c-5.802667 2.730667-10.922667 5.632-17.066667 7.850666a64.512 64.512 0 0 1-53.589333 0 110.08 110.08 0 0 1-33.109334-23.381333 162.986667 162.986667 0 0 1-22.186666-29.525333 9.045333 9.045333 0 0 1-3.584-4.949334z" fill="#FFFFFF" p-id="2452"></path></svg>