<?xml version="1.0" standalone="no"?><!DOCTYPE svg PUBLIC "-//W3C//DTD SVG 1.1//EN" "http://www.w3.org/Graphics/SVG/1.1/DTD/svg11.dtd"><svg t="1740279711553" class="icon" viewBox="0 0 1024 1024" version="1.1" xmlns="http://www.w3.org/2000/svg" p-id="10766" xmlns:xlink="http://www.w3.org/1999/xlink" width="200" height="200"><path d="M683.9296 383.488c4.608 6.8608 5.9904 14.592 4.608 22.8352 1.3824-9.1648 0-16.896-4.608-22.8352z" fill="#000000" p-id="10767"></path><path d="M870.4 0a153.6 153.6 0 0 1 153.6 153.6v716.8a153.6 153.6 0 0 1-153.6 153.6H153.6a153.6 153.6 0 0 1-153.6-153.6V153.6a153.6 153.6 0 0 1 153.6-153.6h716.8z m-290.4576 312.32c-54.272 1.3824-110.3872 16.384-148.6848 30.1056-131.84 46.5408-214.4256 119.552-266.8544 201.6256-54.272 81.2032-37.376 159.232 79.872 161.4848 88.4736-3.6352 148.3264-28.2624 208.5376-59.2896 0.512 0-167.2704 47.872-229.2736 12.8-6.8608-3.6864-13.4144-8.704-15.2064-22.8352 0-28.7232 46.592-58.88 75.8784-68.4032v-49.3056a189.44 189.44 0 0 0 178.176-27.5968c1.8432 5.0176 3.072 18.432 2.56 18.432h9.6256c2.2528-28.2624-10.9568-38.912-32.8704-40.3456 6.4 5.0176 10.9568 8.9088 13.2608 12.5952l-0.9216 0.9216-0.512 0.4096c-72.96 51.0976-143.6672 27.392-150.528 26.0096l40.6528-39.68-11.4176-28.7232c80.7424-28.3136 147.3536-48.7936 258.2016-68.4544l-24.6272-20.0704 12.8-7.7312c65.6384 18.2272 109.8752 31.9488 107.6224 66.56-0.9216 5.9392-3.1744 12.8-6.8608 20.1216-19.6096 38.7584-77.056 101.2736-100.352 128.1536-15.0528 17.8176-30.1056 34.2016-40.6016 50.688-11.8784 16.8448-17.7664 32.3584-18.2272 46.4896 2.2528 114.4832 340.2752-53.8112 406.8864-98.0992-97.1264 41.5232-202.5472 81.2032-317.0304 88.5248-32.4096 2.2528-29.184-15.0528-10.0352-40.1408 43.776-58.368 124.9792-137.728 128.6656-195.6864 5.0176-75.264-70.7072-98.56-148.736-98.56z" fill="#FF5C00" p-id="10768"></path></svg>