<?xml version="1.0" standalone="no"?><!DOCTYPE svg PUBLIC "-//W3C//DTD SVG 1.1//EN" "http://www.w3.org/Graphics/SVG/1.1/DTD/svg11.dtd"><svg t="1740280082299" class="icon" viewBox="0 0 1024 1024" version="1.1" xmlns="http://www.w3.org/2000/svg" p-id="13085" xmlns:xlink="http://www.w3.org/1999/xlink" width="200" height="200"><path d="M869.359741 493.495687c0 202.387106-160.400282 366.456076-358.270316 366.456076-197.863483 0-358.26704-164.06897-358.26704-366.456076 0-202.393657 160.406833-366.462627 358.26704-366.462627 197.870034 0 358.270316 164.06897 358.270316 366.462627" fill="#D33833" p-id="13086"></path><path d="M167.421798 584.253133s-25.936314-382.15282 326.1955-393.073718l-24.567107-40.945179-191.07641 64.149631L223.385668 277.164291l-47.771559 91.4486-27.29897 106.457465 8.189036 70.96946" fill="#EF3D3A" p-id="13087"></path><path d="M265.706605 243.504078C202.847567 307.820765 163.949647 396.622669 163.949647 494.864894c0 98.219295 38.89792 187.031026 101.756958 251.337886 62.891795 64.300309 149.561274 103.984376 245.379544 103.984377 95.821546 0 182.497576-39.680792 245.38282-103.987652 62.852488-64.303585 101.760234-153.118591 101.760234-251.337887 0-98.235673-38.907747-187.037577-101.760234-251.35754-62.885244-64.290482-149.56455-103.971274-245.38282-103.977825-95.81827 0.006551-182.487749 39.687343-245.376268 103.977825z m-15.909658 518.251319C182.990793 693.439185 141.691847 599.016326 141.691847 494.864894c0-104.171086 41.298945-198.580842 108.1051-266.906882 66.789776-68.339141 159.240714-110.69611 261.289202-110.683007 102.048488-0.013102 194.509254 42.343866 261.289203 110.683007 66.80943 68.326039 108.114926 162.745622 108.108375 266.906882 0.006551 104.151433-41.298945 198.571015-108.108375 266.890503-66.776673 68.335866-159.240714 110.686283-261.289203 110.686283-102.048488 0-194.499427-42.353693-261.289202-110.683007" fill="#231F20" p-id="13088"></path><path d="M661.905259 495.526568l-54.597939 8.189036-73.701322 8.189035-47.771559 1.362656-46.402353-1.362656-35.488005-10.920898-31.390212-34.118799-24.567108-69.606804-5.460449-15.015416-32.756143-10.914347-19.106658-31.393487-13.649485-45.039697 15.015416-39.582524 35.48473-12.283553 28.661625 13.65276 13.649485 30.024281 16.378072-2.731862 5.457173-6.819829-5.457173-31.393488-1.365932-39.582523 8.189036-54.591389-0.32101-31.183848 24.888118-39.785611 43.673765-31.393488 76.433185-32.756143 84.618944 12.283554 73.701322 53.228732 34.122075 54.591388 21.83852 39.582524 5.457174 98.268429-16.378072 84.622221-30.027556 75.063977-28.661625 39.582524" fill="#F0D6B7" p-id="13089"></path><path d="M615.496356 731.642675l-195.174204 8.189035v32.756143l16.378072 114.646502-8.189036 9.554967-136.481746-46.408904-9.554967-16.378072-13.649485-154.222473-31.386936-92.811256-6.826381-21.835245 109.186052-75.063978 34.122075-13.65276 30.024281 36.850661 25.933038 23.204452 30.027557 9.551691 13.646209 4.094518 16.378071 70.972735 12.283554 15.012141 31.393488-10.917623-21.838521 42.31111 118.741019 55.95732-15.01214 8.189036" fill="#335061" p-id="13090"></path><path d="M292.029442 255.312667l35.481454-12.283553 28.661625 13.65276 13.652761 30.024281 16.378072-2.731862 4.094517-16.378072-8.189035-31.386936 8.189035-75.070529-6.82638-40.945179 24.567108-28.661625 53.228732-42.307835-15.01214-20.472589-75.067254 36.850661-31.393487 24.567107-17.740727 38.213317-27.29897 36.850661-8.189036 43.677041 5.463725 46.402352" fill="#6D6B6D" p-id="13091"></path><path d="M347.986761 127.019957s20.472589-50.49687 102.362948-75.063978 4.094518-17.747278 4.094518-17.747278L365.727488 68.334051 331.605414 102.45285l-15.008865 27.298969 31.386937-2.731862M307.041582 245.760976s-28.661625-95.543118 80.524427-109.189328l-4.094518-16.378071-75.063978 17.747278-21.83852 70.96946 5.460449 46.402352 15.008865-9.551691" fill="#DCD9D8" p-id="13092"></path><path d="M350.715348 372.691031l17.871752-17.314897s8.064562 0.936826 9.427218 10.488517c1.362656 9.558243 5.457173 95.543118 64.143079 141.948746 5.355629 4.235369-43.67049-6.829656-43.67049-6.829656l-43.677041-68.237597M601.853422 346.761268s3.183897-41.371009 14.324261-38.190387c11.140364 3.180622 11.140364 14.324261 11.140365 14.324261s-27.056574 17.501607-25.464626 23.866126" fill="#F7E4CD" p-id="13093"></path><path d="M715.130716 195.264106s-22.496919 4.749641-24.567107 24.567107c-2.073464 19.820742 24.567107 4.094518 28.661625 2.731862M549.984069 196.630037s-30.027556 4.094518-30.027556 23.201176 34.122074 17.744003 43.677041 9.554967" fill="#F7E4CD" p-id="13094"></path><path d="M364.361557 285.343499s-51.862801-31.393488-57.32325-1.362655c-5.457173 30.024281-17.744003 51.862801 8.189036 83.253013l-17.740728-5.457173-16.378071-42.31111-5.457174-40.945179 31.386937-32.759419 35.488005 2.731862 20.47259 16.378072 1.362655 20.472589M388.928665 199.358624s23.204452-120.103675 140.582815-143.308127c96.637174-19.100107 147.399369 4.094518 166.509302 25.929763 0 0-85.984876-102.359672-167.875233-70.96946-81.890358 31.393488-141.942195 88.716738-140.57954 125.560848 2.325686 62.76077 1.362656 62.786975 1.362656 62.786976M705.575749 95.626469s-39.575972-1.362656-40.945179 34.12535c0 0-0.003276 5.457173 2.728587 10.914347 0 0 31.396763-35.48473 50.500146-16.378071" fill="#F7E4CD" p-id="13095"></path><path d="M532.262996 144.364335s-6.813278-54.47019-53.254938-22.801551c-30.024281 20.472589-27.292418 49.134215-21.835245 54.591388 5.457173 5.460449 3.97332 16.456686 8.130075 8.909671 4.153479-7.547015 2.784272-32.114123 17.799688-38.933952 15.015416-6.82638 39.628382-14.45201 49.16042-1.765556" fill="#F7E4CD" p-id="13096"></path><path d="M403.944081 513.267295l-128.292711 57.32325s53.228733 211.552275 25.929763 277.064562l-19.109934-6.823105-1.362655-80.524427-35.481454-152.859817-15.015417-42.314386 133.749884-90.076118 39.582524 38.210041M417.138255 630.278789l18.199313 22.208666v81.890357h-21.83852s-2.728587-57.323251-2.728587-64.14963c0-6.82638 2.728587-31.393488 2.728587-31.393488M417.59029 746.661366l-61.417769 2.725311 17.747279 12.283554 43.67049 6.82638" fill="#49728B" p-id="13097"></path><path d="M627.779909 733.008606l50.500146-1.362656 12.283554 125.564124-51.866077 6.823104-10.917623-131.024572" fill="#335061" p-id="13098"></path><path d="M641.429394 733.008606l76.429909-4.094518s31.390212-79.161771 31.390212-83.256289 27.29897-114.646501 27.29897-114.646501l-61.417769-64.14308-12.283553-10.920898-32.756143 32.756143v126.930055l-28.661626 117.375088" fill="#335061" p-id="13099"></path><path d="M675.548193 723.453639l-47.768284 9.554967 6.823105 38.219868c17.740727 8.189036 47.771559-13.65276 47.771559-13.652761M676.914124 484.612221l95.539843 70.96946 2.728587-32.756144-72.335391-66.874941-25.933039 28.661625" fill="#49728B" p-id="13100"></path><path d="M464.958949 1001.893958l-28.258725-114.662879-14.052386-84.602567-2.325686-62.800077 127.893086-6.806727 79.564671-0.013102-7.232556 143.321228 12.283554 110.551984-1.365932 20.472589-103.722327 8.189036-62.783699-13.649485" fill="#FFFFFF" p-id="13101"></path><path d="M610.035907 731.642675s-6.823105 141.945471 13.649484 242.942487c0 0-40.945179 25.936314-101.000291 32.756143l114.646501-4.094518 13.649485-8.189036-16.378072-223.832553-4.094518-47.774835" fill="#DCD9D8" p-id="13102"></path><path d="M692.88602 846.302278l53.228732-15.01214 100.997016-5.457174 15.015416-46.405628-27.298969-80.527702-31.386937-4.094518-43.677041 13.649485-41.904934 20.459487-22.244697-4.081416-17.337826 6.813278" fill="#FFFFFF" p-id="13103"></path><path d="M691.926265 818.993482s35.481454-16.374796 40.945178-15.008865l-15.01214-75.070529 17.744003-6.823105s12.283554 70.96946 12.283554 79.158496c0 0 76.426633 4.094518 83.253013 4.094518 0 0 16.378072-31.390212 12.283554-64.146356l15.01214 43.673766 1.365931 24.567108-21.83852 32.756143-24.567108 5.460449-40.945179-1.365931-13.646209-17.740728-47.768284 6.823105-15.015416 5.460449" fill="#DCD9D8" p-id="13104"></path><path d="M638.291356 722.104086l-30.024281-76.433185-31.393488-45.039697s6.823105-19.106658 16.378072-19.106658h31.393487l30.024281 10.917623-2.725311 50.500145-13.65276 79.161772" fill="#FFFFFF" p-id="13105"></path><path d="M644.157981 696.157945s-38.216592-73.698047-38.216592-84.615669c0 0 6.819829-16.378072 16.378071-12.283554 9.554967 4.094518 30.027556 15.008865 30.027557 15.008865v-25.929763l-46.405628-9.558243-31.390212 4.094518 53.228732 125.567399 10.917623 1.369207" fill="#DCD9D8" p-id="13106"></path><path d="M477.242502 516.015535l-37.810416-4.110896-35.488005-10.920898v12.283554l17.337826 19.123036 54.594664 24.567108" fill="#FFFFFF" p-id="13107"></path><path d="M416.23091 520.106778s42.314386 17.744003 55.960595 13.649484l1.35938 16.361694-38.210041-8.172658-23.204452-16.378071 4.094518-5.460449" fill="#DCD9D8" p-id="13108"></path><path d="M692.738617 586.172643c-23.158593-0.681328-44.079942-3.432844-62.400453-8.598488 1.244733-7.510984-1.080953-14.881116 0.786148-20.289155 5.109958-3.678515 13.665863-3.619554 21.38321-4.484316-6.672426-3.27889-16.05051-4.579309-23.75148-2.682728-0.180159-5.211502-2.518947-8.441258-3.934012-12.519398 13.020567-4.648097 43.755656-35.114585 61.047624-25.025693 8.23817 4.798775 11.739802 32.20584 12.378546 45.534314 0.53065 11.055198-1.002338 22.208665-5.506307 28.065464" fill="#D33833" p-id="13109"></path><path d="M581.996648 548.313092c-0.062237 1.752454-0.137576 3.51801-0.206364 5.286842-7.229281 4.749641-18.90357 4.69068-26.840383 8.683654 11.700494 0.510996 20.908246 3.328024 28.87454 7.301344l-0.514272 13.236757c-13.253136 9.073452-25.359806 22.585361-40.968108 31.095407-7.376683 4.022454-33.270415 14.379947-41.122062 12.545603-4.441733-1.028543-4.841358-6.541402-6.616741-11.736526-3.783335-11.123986-12.489917-28.835233-13.24986-45.580174-0.969582-21.150642-3.102007-56.602615 19.692993-52.246048 18.389299 3.508183 39.77906 11.982197 54.014881 19.761781 8.700032 4.756192 13.734651 10.63592 26.935376 11.65136" fill="#D33833" p-id="13110"></path><path d="M595.161342 573.551701c-2.02433-11.523611-4.363118-14.809052-3.455773-24.861913 30.725262-20.488968 36.496895 35.1932 3.452497 24.861913" fill="#D33833" p-id="13111"></path><path d="M639.654011 582.890477s-9.554967-13.649485-2.728586-17.744003c6.823105-4.094518 13.649485 0.003276 17.744002-6.823104s0-10.920898 1.362656-19.109934c1.362656-8.189036 8.192311-9.554967 15.015416-10.917623 6.823105-1.365931 25.933039-4.094518 28.661625 2.728587l-8.189036-24.567107-16.378071-5.457174-51.866077 30.024281-2.731863 15.015416v30.024281M496.349161 627.930174c-1.641083-21.298044-3.373883-42.569884-5.306496-63.848274-2.889092-31.773459 7.632181-26.231119 35.173547-26.23112 4.205889 0 25.903558 5.014966 27.452923 8.189036 7.445471 15.202126-12.447334 11.824968 8.575559 23.289618 17.744003 9.676165 49.091632-5.873176 41.924587-27.384136-4.012628-4.782397-20.908246-1.490405-26.964857-4.631718l-31.986373-16.58116c-13.567594-7.039295-44.918499-17.298519-59.383612-7.465125-36.647573 24.924149 2.312584 87.196853 15.38556 113.198679" fill="#EF3D3A" p-id="13112"></path><path d="M532.262996 144.364335c-37.201152-8.664-55.685443 15.565719-66.960108 40.699508-10.069238-2.440333-6.059886-16.132401-3.51801-23.109459 6.656048-18.310684 33.489881-42.68453 55.416843-39.382711 9.433769 1.421617 22.202114 10.049585 15.061275 21.792662M713.512563 186.724579l1.765556 0.072064c8.405226 17.4623 15.680366 35.959694 26.283529 51.37801-7.101532 16.545128-53.792138 31.187124-53.071503 1.477302 10.098719-4.415528 27.528263-0.900794 36.477241-6.538126-5.175471-14.206339-12.643871-26.296632-11.454823-46.38925M551.307418 187.17989c7.976121 14.622342 10.573683 29.984973 21.910584 41.036896 5.106683 4.975658 15.03507 11.03882 10.111821 24.875015-1.149741 3.262512-9.554967 10.537651-14.406152 11.965819-17.727625 5.234432-59.02657 1.080953-45.039697-21.016341 14.655098 0.684603 34.361194 9.518935 45.318125-1.123536-8.418329-13.449672-23.417367-40.060763-17.894681-55.737853M706.856515 335.78796c-26.68643 17.144565-56.445386 35.786086-100.174837 31.462275-9.345328-8.123524-12.90592-26.201639-3.829194-38.141253 4.726711 8.123524 1.755729 23.0636 14.923699 25.313948 24.812778 4.245196 53.69387-15.179197 71.539417-21.969545 11.071576-18.657899-0.949928-25.520311-10.920898-37.528714-20.413628-24.603139-47.791213-55.099108-46.798702-91.933391 8.251272-5.984547 8.962081 9.129137 10.147853 11.880653 10.658849 24.943803 37.479579 56.845011 57.057926 78.192189 4.805326 5.257361 12.71921 10.301807 13.600351 13.78051 2.538601 10.108546-6.603638 22.218492-5.545615 28.943328M355.022781 317.739325c-8.365919-4.775846-10.357492-25.80529-20.177784-26.401451-14.032732-0.85166-11.474477 27.282592-11.418792 43.732726-9.663062-8.76882-11.35983-35.772984-4.261574-49.641935-8.090767-3.970045-11.700494 4.382772-16.188086 7.324274 5.765081-41.88528 61.273641-19.427669 52.046236 24.986386M723.850402 353.230606c-12.421129 23.64666-29.9948 49.687794-66.449112 50.444461-0.740289-7.635457-1.310246-19.257337 0.039307-23.856299 27.868927-2.676177 45.072453-16.859587 66.409805-26.588162M549.204473 368.560481c23.25031 12.224593 65.980699 13.54139 97.580551 12.614391 1.696768 6.924649 1.657461 15.477278 1.722973 23.918536-40.620893 2.030881-88.651226-8.025255-99.303524-36.532927M544.788945 391.358757c16.073439 40.365395 71.333053 35.720574 117.935218 34.606865-2.050535 5.240983-6.498819 11.431894-12.02478 13.669139-14.936801 6.076265-56.1211 10.68833-76.852463-0.321011-13.148316-6.990161-21.59285-22.781898-28.795926-32.038783-3.478702-4.474489-20.800151-15.893281-0.262049-15.919486" fill="#231F20" p-id="13113"></path><path d="M704.917351 614.028467c-18.867538 32.313935-36.919449 65.505735-59.304997 94.010131 9.384635-27.593775 13.400538-73.776661 14.818879-108.98624 19.634032-9.188098 36.444485 2.066913 44.486118 14.976109" fill="#81B0C4" p-id="13114"></path><path d="M806.445017 730.171924c-21.124437 4.225542-35.966245 24.757093-56.573135 23.440296 11.323799-15.965344 31.170746-22.696732 56.573135-23.440296M815.764139 763.229423c-17.216629 1.817966-37.440272 4.605514-54.902571 3.170795 8.264375-12.627493 40.116449-8.270926 54.902571-3.170795M821.729033 791.730544c-19.349054 0.419279-43.40189 0.032756-61.794464-1.506783 10.878315-11.687392 49.245586-4.336913 61.794464 1.506783" fill="#231F20" p-id="13115"></path><path d="M668.508898 869.729472c2.774445 24.301783 12.411303 48.924575 11.202601 75.535666-10.698156 3.609727-16.846484 6.767419-31.180573 6.747765-1.012165-22.618117-4.035557-57.195502-3.131487-78.75887 7.049122 0.468413 17.445922-5.037895 23.109459-3.524561" fill="#DCD9D8" p-id="13116"></path><path d="M637.311947 511.573802c-9.715472 6.341589-17.989674 14.262025-27.321899 21.03272-20.695331 1.021992-31.986374-1.434719-47.1885-13.315372 0.248947-0.953204 1.775383-0.527374 1.834344-1.700044 22.149704 9.872702 50.31016-4.019179 72.676055-6.017304" fill="#F0D6B7" p-id="13117"></path><path d="M521.027639 662.569795c6.086091-26.371971 29.932564-40.031283 51.58765-54.555356 22.352792 28.36682 35.946592 64.850612 50.916149 100.053639-35.370083-10.662125-71.506661-27.960644-102.503799-45.498283" fill="#81B0C4" p-id="13118"></path><path d="M645.399439 873.254033c-0.90407 21.560093 2.119322 56.140754 3.131487 78.75887 14.337364 0.019654 20.482416-3.138039 31.180573-6.747765 1.208702-26.611091-8.42488-51.233884-11.202601-75.535666-5.663537-1.513334-16.057061 3.992974-23.109459 3.524561z m-223.210187-122.625898c9.453423 86.898772 23.145491 159.948247 48.256351 236.895703 55.731302 16.921824 122.917427 18.39585 172.17939 3.128212-9.047247-43.43137-5.09358-96.306337-10.383697-142.653004-3.979871-34.836158-1.948991-69.885231-7.412715-105.425647-59.688244-12.417854-144.061518-2.902194-202.639329 8.054736z m216.753951-7.507708c-0.504445 37.319074 1.670563 74.133703 4.520348 111.501911 14.330813-2.152079 24.056112-3.590073 37.371483-6.508645-4.323811-35.972796-3.793161-76.452838-12.601288-108.275431-10.177334 0.098268-19.14269-0.117922-29.290543 3.282165z m72.698984-6.017303c-6.803451-1.559192-14.720611-0.058961-21.219429 0.065512 3.052873 30.423906 10.465588 63.992401 13.072976 95.926365 10.226468 0.317735 15.686917-4.50397 24.098695-6.125399 0.448759-28.029432-2.45016-66.648925-15.952242-89.866478z m110.077019 100.574462c21.311147-5.175471 34.711685-31.282117 28.750067-58.086469-3.999525-18.015879-11.123986-51.938141-18.749616-63.465028-5.634057-8.523148-20.908246-19.686442-33.106634-11.874101-19.843672 12.709384-54.797752 16.39445-69.266141 31.773458 7.255486 24.157656 9.505833 57.339629 12.499745 87.950245 24.786574 1.54609 55.289094-6.819829 75.902535 2.057086-14.389774 4.661199-33.067327 4.700507-45.501559 11.49413 10.164231 4.90687 33.955018 3.917635 49.471603 0.150679z m-198.187768-129.609508c-14.969557-35.203027-28.563357-71.683544-50.916149-100.053639-21.655086 14.524074-45.501558 28.183386-51.590926 54.555356 31.000414 17.537639 67.136991 34.836158 102.507075 45.498283z m36.899795-109.01572c-1.418341 35.206303-5.434244 81.392465-14.818879 108.98624 22.385548-28.504396 40.437459-61.69292 59.304997-94.010131-8.041633-12.90592-24.852086-24.164207-44.486118-14.976109z m-41.829595-14.861462c-8.480565-0.917172-15.67709 9.748228-26.706083 5.136163-2.525499 2.794099-4.821704 5.820767-7.396338 8.546078 24.354192 29.349504 35.419218 70.989113 54.231071 105.481332 10.092168-33.132839 8.929325-69.429921 11.153467-105.592703-13.868951 0.88114-21.563369-12.542327-31.282117-13.574146z m-26.896069-35.501108c-0.907345 10.05286 1.431443 13.338301 3.455773 24.861913 33.041122 10.331288 27.272765-45.35088-3.455773-24.861913z m-36.644297-12.031331c-14.23582-7.779584-35.625581-16.247047-54.014881-19.758506-22.798276-4.359843-20.659299 31.092131-19.692993 52.246048 0.759943 16.74494 9.466525 34.456187 13.24986 45.580174 1.775383 5.195124 2.175008 10.707983 6.616741 11.739801 7.851648 1.827793 33.745379-8.526424 41.125338-12.548878 15.605027-8.510046 27.711697-22.021955 40.964832-31.095407 0.173608-4.415528 0.340664-8.824505 0.517547-13.236757-7.96957-3.97332-17.177321-6.790348-28.87454-7.301344 7.933538-3.992974 19.607827-3.934013 26.837108-8.683654 0.072064-1.768832 0.144127-3.534388 0.206364-5.286842-13.200726-1.01544-18.232069-6.895168-26.935376-11.654635z m-135.99368-24.698132c-11.815141 11.9953 33.142666 28.347166 47.460376 29.228306-0.08189-7.589598 4.323811-14.746816 3.439395-20.194162-17.003714-2.984085-39.346679-1.01544-50.899771-9.03742z m145.5683 5.634056c-0.058961 1.169394-1.585397 0.743564-1.834344 1.696769 15.202126 11.883929 26.496444 14.340639 47.1885 13.315372 9.332225-6.770695 17.606427-14.69113 27.321899-21.03272-22.365895 1.998125-50.526351 15.890005-72.676055 6.017304z m133.612308 40.512798c-0.638745-13.328475-4.140376-40.73554-12.378546-45.534314-17.291968-10.092168-48.027057 20.377597-61.047624 25.025693 1.415065 4.07814 3.753854 7.307896 3.930737 12.519398 7.704245-1.893305 17.082329-0.596162 23.754755 2.682728-7.717347 0.864762-16.276528 0.805801-21.379935 4.484316-1.873651 5.408039 0.458586 12.778171-0.786147 20.289155 18.317235 5.165644 39.24186 7.91716 62.400453 8.598488 4.50397-5.856798 6.036957-17.010265 5.503032-28.065464z m-299.073414-34.544628c-3.711271-2.646696-28.812304-35.307847-32.251698-33.951743-45.422944 17.914335-87.897835 48.888544-125.849102 78.185638 36.185711 77.648437 50.791676 172.778828 53.372859 264.4731 41.456175 19.385086 77.864628 47.335902 134.116753 50.254475-6.508646-46.055137-12.45061-87.144443-16.148779-130.50375-14.131-5.961618-34.407053 0.2686-47.633983-1.847446-0.114647-15.939139 20.200713-6.980334 21.89093-17.698144 1.27749-8.110421-11.176396-8.722961-7.121185-21.48803 10.341114 3.75713 15.768807 12.057536 26.794525 15.175921 10.079065-22.044884-0.137576-61.0509 1.313521-79.47623 0.275152-3.459049 1.729524-19.162344 9.476353-16.410828 6.859136 2.440333-0.393074 41.773909 0.360317 59.21328 0.687879 16.066888-1.939164 31.609678 4.566206 41.69857 54.355544-7.399613 109.592228-12.18201 168.405884-13.796887-12.938677-5.548891-28.311135-10.802976-45.160895-20.302258-9.138964-5.152541-37.931614-15.867076-40.571759-24.544178-4.205889-13.826368 11.03882-21.193225 13.646209-33.044397-27.439821 14.963006-32.792175-14.347191-39.284442-35.108034-5.879728-18.805302-9.227406-32.854412-10.668676-43.699971-23.636833-11.268113-48.908197-22.680354-69.253038-37.129088z m275.066437-30.001352c37.846448-18.349991 44.666277 68.588088 29.834295 96.594591 2.29293 8.352817 10.177334 11.549816 13.397263 19.060799-21.121161 37.833345-44.581111 73.144468-66.128102 110.535606 16.030856-9.980797 38.927401-1.78521 57.791663-9.253611 6.895168-2.728587 11.883929-18.513772 17.105258-31.141265 14.360293-34.741165 29.43467-78.539404 36.143128-111.691897 1.513334-7.556842 5.640608-24.016804 4.716885-30.738365-1.65091-12.037883-17.983123-20.963932-26.29008-28.409403-15.306946-13.747753-24.943803-25.847873-40.912423-38.704659-6.469338 9.558243-20.364494 15.978447-25.657887 23.748204zM312.623229 157.941756c-18.035532 19.843672-14.258749 57.021894-12.07719 83.47248 32.595638-20.505346 75.863228 1.621429 75.453776 36.496895 15.559168-0.412727 5.814215-19.437495 2.997187-31.691569-9.197925-40.028007 15.500207-83.515063 1.12026-120.120053-27.918061 2.116047-50.853912 13.51846-67.494033 31.842247z m129.032999-115.160772C400.825696 54.350453 348.507584 84.011141 331.733163 120.69147c12.987811-1.890029 22.005577-8.441258 34.81978-9.250335 4.844634-0.314459 11.189499 2.030881 16.754767 0.645296 11.094506-2.751516 20.452936-27.61998 28.822131-36.87359 8.15628-9.03742 17.960193-12.899369 24.671927-21.137539 4.310708-2.080015 10.685054-1.935888 10.927449-8.408502-1.8671-1.998125-3.832469-3.521285-6.072989-2.885816z m212.518582 10.88159c-42.373347-23.908709-114.099473-41.891831-159.175203-19.421117-36.369146 18.137076-85.532841 48.141704-102.297435 86.161759 15.660712 36.690156-4.634994 70.311061-5.928862 107.564623-0.687879 19.817467 9.332225 37.122537 10.098719 58.699009-5.358905 8.844159-21.72715 9.931663-33.060775 9.325674-3.812815-19.087005-10.491793-40.542278-30.148754-42.697633-27.813241-3.043046-48.15153 19.977972-49.412642 44.034083-1.496956 28.288205 21.72715 75.175349 54.643798 71.919388 12.715935-1.257836 15.837595-14.003251 29.693444-13.872226 7.507708 14.98266-11.582572 19.686442-13.547941 30.400976-0.510996 2.767894 1.582122 13.587248 2.80065 18.657899 5.981272 24.704683 19.306471 56.674679 32.428582 75.479981 16.646672 23.853023 49.360232 27.449648 84.550157 29.788436 6.289179-13.54139 29.441221-12.427681 44.528701-8.886741-18.081391-7.160493-34.891844-24.521249-48.823032-39.890431-16.001376-17.629356-32.212391-36.542753-33.031295-59.583425 30.240471 41.950793 55.226857 78.588539 110.21132 97.040074 41.610129 13.954117 90.203867-6.393999 122.173863-28.845059 13.266238-9.332225 21.183398-24.138002 30.613891-37.689219 35.281642-50.752368 51.744879-123.192579 48.125326-193.405371-1.490405-28.956431-1.424892-57.814593-11.140365-77.294671-10.154404-20.371045-44.49922-38.596563-64.601665-20.171233-3.727649-19.80764 16.71546-32.058437 40.732264-24.930701-17.124912-22.097294-35.094932-48.649424-59.432746-62.384075z m78.94558 653.350756c33.113185-16.459962 94.979713-44.305959 115.740556 0.062237 7.661662 16.351867 16.646672 43.998052 20.616717 60.880568 5.6013 23.816992-6.076265 73.878205-30.561482 81.870704-21.619054 7.055673-46.851112 6.626568-72.895521 1.395412-3.065975-2.551704-6.482441-6.996712-8.870363-11.631707-18.595662-0.720635-36.012104 0.995787-50.703234 8.641071 1.392136 13.754305-7.910609 15.962069-16.630294 18.795475-6.466063 25.634958 12.935401 59.111736 8.29058 82.48652-3.311646 16.653223-23.800614 19.227856-38.861888 22.342965-0.491342 9.256886 0.661674 16.980785 1.686941 24.809503-3.439395 12.68973-18.887192 19.912459-33.519361 21.681291-48.148255 5.78801-121.253415 8.388848-167.564051-8.264375-12.922298-31.69812-23.102908-70.2521-33.869852-106.447639-45.167446 4.82498-81.693821-19.489905-116.136905-35.419217-11.923236-5.525961-28.415954-8.572283-32.87079-18.061738-4.320535-9.188098-2.551704-26.801076-3.62283-43.434645-2.728587-42.491269-5.0641-83.47248-16.279803-126.975914-5.04117-19.522661-13.823092-36.749117-19.948491-55.56097-5.660262-17.432819-15.552617-38.97981-18.133801-56.363495-3.825918-25.765982 20.439833-27.200701 35.953143-38.363995 23.980772-17.269039 42.809004-26.817454 68.781349-42.399552 7.694418-4.615341 30.892319-16.296181 33.532464-21.678015 5.247534-10.6654-9.004664-25.703746-12.814203-34.066389-6.02713-13.220379-9.17172-24.452461-10.033207-37.495957-21.789386-3.445946-38.305034-16.410828-48.282555-31.03317-16.505821-24.200239-27.950817-68.968059-13.672414-103.021346 1.12026-2.682728 6.705183-7.956467 7.530637-12.073915 1.624705-8.113697-3.059424-18.900295-3.350953-27.524987-1.500231-44.263376 7.488054-82.398078 37.286318-95.746206 12.096844-48.187562 55.390638-64.211867 96.181863-88.159884 15.247985-8.948978 32.055162-14.671477 49.412642-21.058924 62.269428-22.916198 157.812547-18.598938 209.491914 20.485691 21.91386 16.574608 56.943279 51.571272 69.472504 76.908149 33.090256 66.89132 30.74164 178.684761 7.596149 260.054296-3.111834 10.924174-7.62563 26.984511-13.927912 40.106622-4.389323 9.161893-18.048635 27.498782-16.387898 35.589549 1.706595 8.365919 31.134714 30.708884 37.443547 36.794976 11.363106 10.960206 32.949404 25.507209 34.695307 39.340128 1.880203 14.717335-6.485716 34.852536-10.721086 49.058876-14.167032 47.401415-27.990124 91.219307-44.053737 133.478007" fill="#231F20" p-id="13119"></path><path d="M512.209685 378.885218c1.795037-2.391198 11.671014-6.020579 25.490831 0.632193 0 0-16.378072 2.731862-15.015416 30.037383l-6.823105-1.369206s-7.055673-24.760369-3.65231-29.30037" fill="#F7E4CD" p-id="13120"></path><path d="M631.874427 613.589535a7.507708 7.507708 0 1 1-15.01214-0.006552 7.507708 7.507708 0 0 1 15.01214 0.006552M639.382135 648.392937a7.507708 7.507708 0 1 1-15.015416-0.006552 7.507708 7.507708 0 0 1 15.012141 0.006552" fill="#1D1919" p-id="13121"></path></svg>