<?xml version="1.0" standalone="no"?><!DOCTYPE svg PUBLIC "-//W3C//DTD SVG 1.1//EN" "http://www.w3.org/Graphics/SVG/1.1/DTD/svg11.dtd"><svg t="1740282574637" class="icon" viewBox="0 0 1024 1024" version="1.1" xmlns="http://www.w3.org/2000/svg" p-id="20958" xmlns:xlink="http://www.w3.org/1999/xlink" width="200" height="200"><path d="M832 0a192 192 0 0 1 192 192v640a192 192 0 0 1-192 192H192a192 192 0 0 1-192-192V192a192 192 0 0 1 192-192h640z m18.656 240.288l-3.2 0.32c-12.48 2.592-11.968 3.616-23.36 8.864-10.944 5.184-33.792 3.616-76.384 15.072-42.592 10.912-76.896 76.512-76.896 76.512s-32.704 68.8-62.848 106.752c-29.6 38.592-77.92 55.232-128.864 67.2-50.4 11.456-72.704 25.536-87.776 31.744-15.072 5.76-63.904 42.72-81.568 80.736-17.664 38.016-37.92 43.2-37.92 43.2s-23.936 3.136-60.8 5.248c-35.328 2.08-50.88 27.072-50.88 27.072s3.104 3.104 8.288 8.832c5.184 5.76 27.52 4.16 27.52 4.16s-26.496 18.24-24.896 27.616c1.536 9.376 5.696 15.104 46.208 15.104s61.824-14.56 96.096-41.152c34.336-26.016 37.952-29.12 75.872-36.992 37.888-7.776 165.216 16.704 165.216 16.704s-10.432 31.232-43.136 78.624c36.384 3.616 72.736-14.08 95.616-28.64 22.336-14.56 24.384-55.712 59.2-69.248 19.2 39.552 81.6 31.232 94.048 11.968-38.976-22.4-26.016-90.08-26.016-90.08l21.344-89.568s11.936-43.2 17.088-86.432c5.248-43.2 28.64-68.224 46.24-82.848 17.184-14.56 34.88-34.88 40.544-49.92 5.76-15.136 4.16-38.08 4.16-38.08s-3.616-15.072-16.064-12.48z m-25.024 39.872c3.648-4.16 6.752-2.624 2.08 2.08-7.808 12.48-12.96 29.696-13.504 41.152-1.536 2.08-3.136 6.752-3.136-0.512 1.6-9.92 2.08-21.92 14.56-42.688z m3.648 3.104c3.616-4.64 5.184-1.536 2.08 2.624-7.808 12.48-8.32 26.048-8.832 37.536-1.568 2.048-1.568 4.64-3.136 0.992 1.6-9.888-1.024-18.24 9.888-41.152z m-6.752-6.752c3.648-4.16 6.752-3.136 2.048 1.568-8.8 10.912-20.256 31.776-21.248 43.712-1.6 2.112-2.592 5.248-2.592-2.048 3.616-11.488 8.8-26.56 21.76-43.232z m-3.648-4.16c3.648-4.704 7.776-4.704 2.592 0.544-8.32 10.912-22.304 31.744-26.464 46.336-1.6 2.56-5.216 7.808-2.624-1.6 8.32-20.288 13.504-28.64 26.496-45.28z m-62.848 22.432c10.4-6.24 22.336-4.672 22.336-4.672s6.752 13.536-8.832 24.448c-15.072 11.456-24.96-1.568-24.96-1.568s1.6-12.48 11.456-18.208z" fill="#3E71F9" p-id="20959"></path></svg>