<svg width="228" height="200" xmlns="http://www.w3.org/2000/svg" xmlns:xlink="http://www.w3.org/1999/xlink" xml:space="preserve" overflow="hidden"><defs><clipPath id="clip0"><rect x="0" y="260" width="228" height="200"/></clipPath><radialGradient cx="644.156" cy="2701.55" r="180.673" gradientUnits="userSpaceOnUse" spreadMethod="pad" id="fill1" gradientTransform="matrix(0.635098 0 0 0.557477 -238.097 -1299)"><stop offset="0" stop-color="#D10000"/><stop offset="1" stop-color="#990000"/></radialGradient></defs><g clip-path="url(#clip0)" transform="matrix(1 0 0 1 0 -260)"><path d="M171.005 107.19C108.769 107.19 57.1191 151.339 57.1191 207.052 57.1191 262.765 108.769 306.913 171.005 306.913 233.24 306.913 284.891 262.765 284.891 207.052 284.891 151.339 233.24 107.19 171.005 107.19Z" fill="#FFBF00" transform="matrix(1 0 0 1.00291 -57.1191 152.499)"/><path d="M276.952 207.052C276.952 257.82 229.518 298.975 171.005 298.975 112.492 298.975 65.0581 257.82 65.0581 207.052 65.0581 156.284 112.492 115.129 171.005 115.129 229.518 115.129 276.952 156.284 276.952 207.052Z" fill="url(#fill1)" transform="matrix(1 0 0 1.00291 -57.1191 152.499)"/><path d="M4182.67 2539.86C4179.61 2527.62 4163.09 2520.11 4153.79 2518.17 4137.41 2509.96 4116.26 2516.52 4111.15 2531.95 4096.04 2536.06 4095.75 2557.86 4091.17 2561.34 4090.64 2562.07 4090.42 2563.27 4090.83 2563.55 4099.22 2567.39 4091.28 2568.06 4086.55 2579.17 4086.47 2579.75 4085.84 2581.91 4090 2584.34 4078.66 2587.6 4084.66 2598.8 4087.02 2599.78 4073.97 2611.43 4081.22 2624.73 4085.73 2631.27 4093.74 2636.12 4099.72 2636.92 4105.53 2637.38L4136.92 2638.87C4164.34 2638.25 4183.11 2609.5 4182.67 2539.86Z" fill="#CA6B0B" transform="matrix(1 0 0 1.00291 -4042.56 -2227.27)"/><path d="M4137.67 2515.59C4124.56 2515.89 4114 2523.67 4111.98 2533.13 4097.48 2536.66 4098.23 2552.41 4092.61 2561.41 4091.79 2562.02 4091.71 2563.38 4092.31 2563.65 4100.03 2567.21 4089.54 2571.65 4087.97 2578.7 4086.87 2583.66 4093.86 2581.91 4095.11 2582.07 4097.53 2582.4 4099.96 2584.71 4101.64 2583.68 4103.59 2582.49 4102.39 2580.48 4102.53 2579.05 4102.68 2577.64 4103.92 2578.36 4104.26 2580.07 4104.6 2581.78 4104.16 2583.04 4103.49 2584.28 4103.14 2584.92 4101.2 2585.2 4099.64 2585.27 4099.63 2585.27 4099.62 2585.27 4099.62 2585.27 4098.18 2584.73 4096.37 2584.15 4094.99 2584.06 4094.83 2584.05 4094.67 2584.03 4094.52 2584.04 4092.24 2584.08 4091.38 2585.56 4091.38 2585.56 4087.24 2584.85 4084.57 2587.13 4084.24 2591.7 4084 2594.87 4084.84 2598.21 4089.28 2599.58 4077.69 2607.31 4078.14 2618.6 4086.26 2630.42L4097.85 2633.95C4091.81 2619.68 4084.66 2611.01 4101.8 2603.93 4105.7 2610.83 4110.94 2613.92 4118.02 2611.79 4117.7 2604.17 4113.65 2604.34 4112.81 2598.25 4111.93 2598.45 4110.97 2597.52 4109.96 2595.97 4111.72 2595.73 4113.62 2594.51 4113.17 2593.73 4112.8 2589.68 4113.13 2586.25 4114.94 2584.69L4117.92 2587.79C4117.42 2575.8 4131.09 2579.82 4127.19 2563.79L4120.47 2570.8C4117.81 2570.99 4114.62 2571.42 4111.92 2573.34 4113.29 2571.15 4112.46 2569.97 4111.51 2568.24 4109.83 2568.12 4107.11 2567.57 4104.96 2568.54 4104.58 2570.47 4105.48 2571.08 4106.74 2572.11 4101.68 2572.7 4102.23 2567.27 4099.97 2566.51 4098.13 2565.81 4098.9 2563.63 4098.49 2562.36 4100.39 2562.12 4101.71 2562.13 4102.95 2561.41 4110.17 2557.25 4115.29 2562.28 4121.49 2565.2 4122.49 2564.36 4123.07 2564.38 4123.08 2562.54 4125.66 2562.7 4124.71 2560.01 4125.04 2558.8 4124.53 2558.72 4122.54 2557.37 4120.18 2559.39 4127.55 2548.74 4121.18 2544.91 4139.17 2535.63 4136.97 2538.45 4137.46 2538.64 4137.32 2540.85 4147.23 2537.49 4139.34 2535 4152.01 2529.94 4144.54 2528.56 4145.17 2534.13 4137.41 2530.51 4143.42 2526.49 4150.64 2523.56 4159.49 2522.08 4152.1 2517.3 4144.53 2515.42 4137.67 2515.59ZM4139.61 2521.15C4143.1 2521.13 4146.5 2521.46 4149.63 2521.62 4144 2523.4 4135.49 2524.3 4129.57 2530.29 4125.14 2527.55 4121.31 2530.56 4118.04 2531.23 4123.95 2522.78 4131.94 2521.17 4139.61 2521.15ZM4109.44 2562.13C4108.26 2562.16 4107.31 2562.76 4105.07 2562.61 4104.71 2563.86 4104.43 2565.09 4105.31 2566.04 4112.16 2565.38 4112.3 2568.09 4117.03 2569.49 4117.34 2568.9 4117.86 2568.73 4117.76 2568.18 4117.57 2567.2 4115.48 2566.74 4115.22 2564.97 4112.03 2562.6 4110.62 2562.09 4109.44 2562.13ZM4128.85 2580.66C4128.85 2580.67 4124.79 2584.31 4122.38 2584.06 4121.84 2584.6 4120.72 2586.01 4120.47 2586.66 4117.71 2593.97 4117.92 2597 4117.92 2597 4118.86 2594.71 4119.74 2592.96 4121.13 2591.7 4121.73 2591.78 4121.59 2592.48 4122.18 2593.48 4123.42 2586.71 4129.42 2584.94 4128.85 2580.66ZM4100.25 2585.95C4102.7 2587.6 4106.64 2591.77 4108.51 2594.54 4105.82 2593.52 4103.28 2591.59 4099.6 2588.98 4098.28 2587.57 4099 2586.28 4100.25 2585.95ZM4089.12 2593.62C4090.9 2596.48 4094.39 2598.34 4099.54 2599.18 4100.07 2600.51 4100.63 2601.76 4101.22 2602.92 4098.71 2602.58 4097.67 2601.7 4095.67 2601.19 4093.32 2601.41 4091.08 2601.33 4089.62 2599.34 4089.61 2599.35 4089.6 2599.35 4089.6 2599.36Z" fill="#FFBF00" transform="matrix(1 0 0 1.00291 -4042.56 -2227.27)"/><path d="M4178.5 2514C4162.04 2509.79 4151.11 2523.74 4151.11 2523.74 4163.27 2522.81 4150.48 2524.4 4156.49 2528.27 4145.73 2536.76 4147.52 2553.63 4140.57 2555.75 4138.78 2558.24 4140.99 2557.36 4143.7 2560.71 4145.45 2567.68 4133.11 2571.5 4137.42 2579.81 4130.19 2588.3 4134.34 2592 4137.5 2595.99 4133.65 2599.28 4133.06 2603.31 4134.31 2615.98L4128.6 2630.43C4129.05 2643.11 4157.84 2650.48 4166.91 2639.17 4184.8 2616.85 4214.98 2620.8 4214.58 2621.61 4213.43 2612.32 4214.15 2602.92 4219.7 2593.18 4242.46 2552.79 4224.17 2507.67 4178.5 2514Z" fill="#CA6B0B" transform="matrix(1 0 0 1.00291 -4042.56 -2227.27)"/><path d="M4172.34 2514.32C4163.08 2514.37 4157.15 2519.37 4153.8 2522.47L4157.75 2522.99C4157.75 2522.99 4155.8 2524.52 4155.49 2525.93 4155.17 2527.33 4157.49 2528.27 4157.49 2528.27 4144.71 2538.76 4149.09 2553.33 4141.2 2556.08 4139.5 2559.31 4146.98 2559.23 4144.91 2561.11 4144.15 2568.96 4137.58 2570.51 4137.39 2575.24 4137.33 2576.54 4137.46 2578.27 4138.14 2579.19 4139.64 2579.73 4141.97 2580.51 4142.79 2580.48 4144.22 2580.45 4145.93 2579.8 4147.23 2579.67 4148.66 2579.52 4150.69 2581.67 4152.01 2580.73 4153.11 2579.94 4153 2577.61 4152.81 2576.56 4152.5 2574.93 4154.5 2575.68 4154.41 2577.59 4154.28 2580.36 4155.48 2581.95 4151.75 2582.73 4149.02 2583.3 4148.96 2580.45 4143.6 2582.37 4140.79 2581.15 4140.12 2581.33 4137.37 2580.85L4136.15 2582.55C4131.11 2589.49 4137.13 2594.82 4138.52 2596.06 4132.79 2599.54 4134.76 2608.9 4134.99 2615.81 4135.05 2617.78 4130.85 2625.07 4130.02 2629.57 4128.71 2636.73 4138.56 2643.1 4151.53 2643.71 4150.45 2639.59 4150.07 2639.08 4147.08 2636.72 4148.11 2633.27 4147.07 2630.24 4147.09 2627.82L4150.53 2631.19C4150.75 2625.08 4153.6 2623.59 4152.79 2612.28 4151.66 2612.43 4150.84 2612.29 4149.28 2614.65 4150.7 2607.67 4150.38 2608.95 4153.98 2605.73 4153.18 2604.27 4152.76 2602.82 4153.3 2601.37 4154.53 2602.5 4156.16 2606.48 4157.53 2603.61 4155.58 2610 4164.04 2615.12 4169.6 2618 4173.52 2607.88 4170.32 2609.28 4170.27 2603.03 4170.27 2603.03 4169.6 2603.52 4168.19 2603.57 4166.84 2603.61 4166.38 2602.83 4166.8 2601.9 4167.22 2600.98 4168.59 2600.69 4168.59 2600.69L4166.92 2598.21C4165.92 2597.89 4165.46 2598.08 4164.48 2598.69 4162.84 2594.75 4163.12 2593.01 4160.71 2591.76 4162.75 2590.96 4162.58 2590.74 4164.98 2590.61 4163.71 2587.69 4163.21 2585.29 4163.97 2583.72 4166.56 2581.12 4167.96 2578.51 4169 2575.9 4171.79 2573.49 4173.74 2572.79 4175.65 2572.13 4175.16 2567.72 4173.17 2565.36 4168.19 2567.15 4168.14 2567.39 4168.04 2567.67 4167.87 2568.06 4164.27 2568.21 4163.83 2564.82 4161.62 2563.9 4157.6 2565.21 4156.36 2564.81 4155.15 2564.39L4157.67 2569.1C4154.57 2568.01 4148.58 2565.14 4150.53 2560.02 4147.73 2562.36 4147.87 2558.82 4147.41 2556.49 4151.81 2556.97 4155.23 2555.4 4158.84 2553.65 4162.7 2558.51 4168.93 2554.01 4171.78 2560.36L4172.36 2561.61C4173.47 2560.14 4174.38 2558.61 4174.22 2556.33L4174.13 2546.75C4179.65 2542.09 4184.35 2538.07 4183.71 2532.97 4182.68 2527.83 4178.7 2527.69 4173.71 2528.27 4177.13 2523.26 4183.28 2522.27 4190.44 2521.22 4188.73 2518.23 4181.77 2520.48 4176.32 2521.22 4175.2 2516.74 4189.69 2515.46 4192.96 2516.68 4189.77 2512.93 4183.1 2514.95 4177.84 2514.83 4175.89 2514.46 4174.05 2514.31 4172.34 2514.32ZM4173.63 2519.04C4170.65 2521.17 4169.22 2521.94 4168.84 2528.19L4161.2 2528.19C4160.27 2527.97 4161.12 2520.59 4163.72 2519.42 4163.72 2519.42 4162.26 2521.11 4162.87 2522.47 4162.9 2522.54 4165.66 2521.08 4165.95 2521.26 4165.95 2521.26 4163.91 2522.5 4164.38 2524.91 4164.99 2524.88 4165.73 2525 4165.73 2525 4167.92 2519.64 4171 2519.49 4173.63 2519.04ZM4164.14 2558.87 4160.8 2560C4159.22 2560.44 4157.53 2560.3 4155.21 2559.91L4155.65 2561.87C4157.04 2562.62 4159.02 2562.71 4161.54 2562.13 4163.58 2563.08 4165.99 2563.82 4167.27 2565.22L4170.57 2563.93C4170.91 2563.47 4171.25 2563.02 4171.6 2562.59L4169.85 2561.09C4168.32 2558.52 4167.26 2560.5 4164.14 2558.87ZM4181.94 2571.91C4181.54 2571.82 4180.79 2572.77 4180.17 2572.7 4177.88 2582.71 4173.72 2577.22 4168.25 2591.03 4170.72 2589.39 4172.9 2586.74 4175.14 2583.54L4176.32 2585.07C4178.1 2580.08 4179.84 2580.1 4182.02 2574.99 4182.35 2572.7 4182.26 2571.99 4181.94 2571.91ZM4152.25 2582.67C4153.74 2584.01 4155.2 2585.33 4156.32 2587.33 4157.07 2587.1 4157.28 2587.33 4157.39 2586.78 4158.49 2588.1 4158.74 2590.73 4159.14 2593.25 4158.04 2592.06 4157.7 2590.09 4156.1 2589.6 4155.27 2589.58 4155.21 2590.07 4154.89 2590.79 4152.21 2589.22 4153.42 2585.61 4152.25 2582.67ZM4138.71 2586.96C4138.71 2586.96 4140.37 2590.87 4140.37 2591.46 4140.37 2592.06 4140.96 2589.93 4140.96 2589.93 4141.62 2590.69 4143.05 2591.34 4143.58 2592.69 4143.41 2591.9 4143.12 2591.09 4142.51 2590.17 4142.51 2590.17 4144.46 2591.2 4145.5 2592.16 4146.55 2593.11 4146.67 2593.96 4146.67 2593.96 4147.83 2593.65 4148.55 2593.57 4149.57 2593.88 4150.27 2599.03 4151.29 2598.13 4152.13 2600.25 4150.64 2599.54 4149.17 2598.81 4148.68 2596.94L4148.2 2598.13C4147.28 2597.49 4146.53 2596.74 4146.32 2595.63 4146.3 2596.69 4144.89 2596.14 4144.2 2596.36 4143.56 2595.61 4142.5 2596.22 4141.34 2594.77 4141.11 2595.64 4141.43 2595.15 4140.6 2596.01 4137.89 2593.74 4138.09 2589.79 4138.71 2586.96Z" fill="#FFBF00" transform="matrix(1 0 0 1.00291 -4042.56 -2227.27)"/><path d="M4201.65 2557.42C4200.52 2557.41 4199.23 2557.65 4197.75 2558.22 4188.33 2561.87 4189.21 2570.49 4191.54 2571.03 4189.48 2572.85 4188.05 2574.6 4190.21 2576.21 4191.29 2577.02 4192.13 2573.62 4192.13 2573.62L4194.21 2571.91C4192.74 2569.8 4193.14 2568.68 4194.21 2567.56 4197.19 2564.41 4201.09 2561.03 4203.39 2562.66 4205.67 2564.29 4205.4 2566.24 4205.81 2567.56 4204.33 2564.05 4202.47 2562.54 4200.87 2564.68 4198.85 2567.36 4206.39 2567.72 4201.76 2572.57 4200.59 2573.24 4198.49 2573.2 4198.49 2576.21L4201.23 2576.65C4201.23 2576.65 4200.72 2577.14 4199.38 2578.13 4197.25 2579.71 4195.32 2577.67 4194.51 2578.06 4194.16 2578.23 4193.52 2579.58 4192.35 2579.46 4190.58 2579.01 4188.39 2578.38 4186.96 2579.83 4184.52 2582.29 4182.44 2588.07 4187.1 2588.04 4195.31 2588 4193.43 2583.13 4199.38 2581.61 4204.24 2580.37 4208.79 2575.07 4209.08 2569.62 4209.32 2564.96 4207.79 2557.46 4201.65 2557.42Z" fill="#FFBF00" transform="matrix(1 0 0 1.00291 -4042.56 -2227.27)"/><path d="M4203.3 2606.61C4200.59 2608.46 4197.48 2609.79 4194.21 2610.89 4194.21 2610.92 4194.22 2610.93 4194.22 2610.96 4194.29 2612.16 4194.09 2613.85 4193.24 2616.32 4192.42 2618.69 4191.26 2620.58 4190.2 2622.34 4193.16 2621.62 4196.02 2621.05 4198.71 2620.69 4198.86 2618.23 4199.13 2616.39 4199.59 2615.12 4200.15 2613.58 4201 2612.68 4201.55 2612.08 4202.09 2611.47 4202.41 2611.13 4202.78 2609.91 4202.99 2609.2 4203.17 2608.05 4203.3 2606.61Z" fill="#FFBF00" transform="matrix(1 0 0 1.00291 -4042.56 -2227.27)"/></g></svg>