<?xml version="1.0" standalone="no"?><!DOCTYPE svg PUBLIC "-//W3C//DTD SVG 1.1//EN" "http://www.w3.org/Graphics/SVG/1.1/DTD/svg11.dtd"><svg t="1740283799342" class="icon" viewBox="0 0 1024 1024" version="1.1" xmlns="http://www.w3.org/2000/svg" p-id="37028" xmlns:xlink="http://www.w3.org/1999/xlink" width="200" height="200"><path d="M0 0h1024v1024H0V0z m802.440533 668.091733a845.141333 845.141333 0 0 0-96.290133-56.7296c-23.552-63.317333-40.413867-165.034667-106.9056-263.8848-71.611733-106.427733-183.432533-131.618133-276.343467-113.8688A577.194667 577.194667 0 0 0 291.4304 204.8c-23.4496-20.002133-103.3216-33.5872-120.456533-12.356267-17.066667 21.0944-19.5584 61.0304 39.048533 146.875734 14.609067 42.530133 14.609067 80.964267 64.8192 147.7632L241.595733 583.68c-21.947733 74.786133 15.701333 183.773867 52.8384 217.4976 19.797333 18.0224 36.522667 15.36 44.7488 12.117333 16.554667-6.4512 38.5024-55.0912 38.5024-103.3216 4.437333 10.786133 11.537067 44.987733 16.2816 57.514667 17.408 45.806933 35.089067 78.6432 72.0896 98.679467 16.0768 10.8544 40.823467 24.6784 51.882667 21.845333 11.093333-2.833067-54.954667-65.979733-85.0944-140.8-24.302933-60.381867-24.746667-98.474667-36.693333-121.275733a24.849067 24.849067 0 0 0-27.170134-12.5952 24.576 24.576 0 0 0-19.285333 22.869333c-2.9696 69.632-22.084267 111.786667-26.794667 124.484267-20.411733-23.278933-50.176-108.578133-34.0992-163.293867 15.9744-54.4768 25.122133-96.187733 32.290134-101.376 3.549867-8.977067 4.5056-23.005867 0-29.696-46.250667-68.8128-52.360533-113.4592-68.164267-157.115733C237.090133 265.6256 210.363733 239.957333 204.8 227.2256c24.029867-9.0112 41.710933 3.754667 54.545067 14.711467 13.175467 11.1616 25.770667 22.971733 37.717333 35.4304 6.144 6.4512 15.36 9.079467 24.029867 6.826666 77.073067-19.831467 174.011733-3.4816 237.226666 90.453334 67.549867 100.4544 83.729067 201.728 104.721067 262.280533 2.1504 6.144 6.690133 11.264 12.629333 14.097067a774.075733 774.075733 0 0 1 99.054934 57.5488c5.700267 3.857067 10.820267 7.406933 15.428266 10.717866h-76.014933a24.644267 24.644267 0 0 0-22.3232 14.2336 24.3712 24.3712 0 0 0 3.584 26.112c24.405333 28.740267 49.493333 56.900267 75.264 84.48 52.3264 43.9296 77.7216 32.5632 81.988267 28.910934 4.266667-3.6864-27.989333-46.762667-46.148267-62.464-13.073067-13.892267-25.941333-27.989333-38.570667-42.325334h84.718934a24.6784 24.6784 0 0 0 21.265066-12.151466 24.3712 24.3712 0 0 0 0.136534-24.3712c-6.007467-10.581333-20.002133-28.706133-71.611734-63.624534z m-423.458133-281.224533c10.5472 17.169067 24.712533 29.969067 35.2256 47.172267l1.501867-2.56c11.605333-13.346133 15.018667-59.6992-10.9568-85.674667-14.336-18.773333-50.141867-12.526933-61.098667-7.509333 15.530667 22.7328 27.306667 38.912 35.328 48.571733z" fill="#52619B" p-id="37029"></path></svg>