<?xml version="1.0" standalone="no"?><!DOCTYPE svg PUBLIC "-//W3C//DTD SVG 1.1//EN" "http://www.w3.org/Graphics/SVG/1.1/DTD/svg11.dtd"><svg t="1740284122287" class="icon" viewBox="0 0 1024 1024" version="1.1" xmlns="http://www.w3.org/2000/svg" p-id="41021" xmlns:xlink="http://www.w3.org/1999/xlink" width="200" height="200"><path d="M966 611.66l-182.24 67.382v212.962L421.892 1024V596.594l359.768-133.726V117.648L966 184.994v426.664z m-354.32 115.11c-31.436 11.448-56.916 47.848-56.906 81.296 0.014 33.434 25.506 51.266 56.928 39.84 31.436-11.45 56.92-47.844 56.91-81.294-0.006-33.45-25.5-51.284-56.934-39.842zM727.23 425l-360.784 133.756 0.592 271.52-128.42 45.984L58 810.52V383.852l181.408-67.384V103.51L523.944 0l203.288 64.928V425zM488.428 189.666c-31.434 11.444-56.924 47.85-56.916 81.3 0.004 33.45 25.5 51.292 56.936 39.85 31.436-11.444 56.924-47.85 56.92-81.3-0.006-33.45-25.504-51.292-56.94-39.85z" fill="#336D9E" p-id="41022"></path></svg>