<?xml version="1.0" standalone="no"?><!DOCTYPE svg PUBLIC "-//W3C//DTD SVG 1.1//EN" "http://www.w3.org/Graphics/SVG/1.1/DTD/svg11.dtd"><svg t="1740284867712" class="icon" viewBox="0 0 1024 1024" version="1.1" xmlns="http://www.w3.org/2000/svg" p-id="50073" xmlns:xlink="http://www.w3.org/1999/xlink" width="200" height="200"><path d="M605.781333 757.717333l186.325334 58.197334-111.232-244.352 168.746666-230.826667-252.629333 67.498667-123.904-228.608-49.749333 285.226666-251.648 95.786667 185.301333 89.301333-125.824 94.72-149.248-70.784S0 632.490667 0 560.682667c0-71.850667 83.882667-96.853333 83.882667-96.853334l248.746666-86.4 41.6-269.994666S393.728 0 460.074667 0s93.653333 85.632 127.488 142.250667l68.906666 129.194666 247.125334-72.533333s202.88-47.957333 81.92 145.109333l-175.573334 229.376 104.064 226.432s80.64 184.32-109.269333 159.658667l-179.456-63.829333-19.498667-137.898667v-0.042667z m-200.234666-235.648c-45.653333 9.088-53.973333 27.946667-53.973334 62.933334v46.08h107.989334v15.36h-148.48c-31.445333 0-58.965333 21.162667-67.541334 61.312-9.898667 46.08-10.282667 74.794667 0 122.88 7.68 35.754667 25.984 61.312 57.386667 61.312h37.12v-55.210667c0-39.936 30.762667-75.093333 67.456-75.093333h107.946667c29.994667 0 53.930667-27.733333 53.930666-61.44v-115.328c0-32.853333-24.661333-57.386667-53.973333-62.933334a298.282667 298.282667 0 0 0-107.904 0.128z m-6.784 32.128c11.136 0 20.309333 10.410667 20.309333 23.04 0 12.714667-9.088 22.997333-20.309333 22.997334-11.178667 0-20.266667-10.282667-20.266667-22.954667 0.085333-12.8 9.088-23.04 20.266667-23.04z m187.136 92.117334v53.76c0 41.6-31.488 76.672-67.498667 76.672H410.496c-29.525333 0-53.973333 28.330667-53.973333 61.44v115.2c0 32.853333 25.472 52.053333 53.973333 61.44 34.133333 11.178667 66.986667 13.226667 107.946667 0 27.178667-8.832 53.930667-26.624 53.930666-61.44v-46.08h-107.818666v-15.36h161.877333c31.402667 0 43.093333-24.576 53.973333-61.354667 11.306667-37.888 10.837333-74.325333 0-122.88-7.765333-34.944-22.528-61.269333-53.973333-61.269333h-40.533333v-0.128z m-60.714667 291.584c11.221333 0 20.309333 10.282667 20.309333 22.954666 0 12.8-9.088 23.04-20.309333 23.04-11.093333 0-20.309333-10.368-20.309333-23.04 0.085333-12.8 9.216-22.954667 20.309333-22.954666z" fill="#47A1FF" p-id="50074"></path></svg>