<?xml version="1.0" standalone="no"?><!DOCTYPE svg PUBLIC "-//W3C//DTD SVG 1.1//EN" "http://www.w3.org/Graphics/SVG/1.1/DTD/svg11.dtd"><svg t="1740284805263" class="icon" viewBox="0 0 1024 1024" version="1.1" xmlns="http://www.w3.org/2000/svg" p-id="49047" xmlns:xlink="http://www.w3.org/1999/xlink" width="200" height="200"><path d="M512.213 1.707L212.267 301.653a419.499 419.499 0 0 0 0 596.267 419.541 419.541 0 0 0 596.309 0c169.387-165.845 169.472-433.963 3.584-596.31l-74.155 74.113c123.52 123.52 123.52 324.608 0 448.128-123.477 123.477-324.608 123.477-448.128 0-123.477-123.52-123.477-324.651 0-448.128l197.632-197.59 24.747-28.288z m151.723 165.802a56.448 56.448 0 0 0-56.448 56.448 56.448 56.448 0 0 0 56.448 56.448 56.448 56.448 0 0 0 56.448-56.448 56.448 56.448 0 0 0-56.448-56.448z" fill="#595959" p-id="49048"></path></svg>