<?xml version="1.0" standalone="no"?><!DOCTYPE svg PUBLIC "-//W3C//DTD SVG 1.1//EN" "http://www.w3.org/Graphics/SVG/1.1/DTD/svg11.dtd"><svg t="1740291935713" class="icon" viewBox="0 0 1184 1024" version="1.1" xmlns="http://www.w3.org/2000/svg" p-id="60206" xmlns:xlink="http://www.w3.org/1999/xlink" width="231.25" height="200"><path d="M725.902031 459.287881h-67.034551c-19.360245 0-32.255168-12.954457-32.255168-29.123714s16.157351-29.123714 32.255168-29.123715h135.736036c14.359444 0 25.13498 7.144002 29.766674 17.395645a335.089408 335.089408 0 0 1 80.048541-9.108603v-69.725458c0-74.33334-58.175989-135.855102-132.378354-135.855102H571.710657v483.410794a335.006062 335.006062 0 0 1 154.191374-227.810314z" fill="#D81E06" p-id="60207"></path><path d="M539.372142 818.297789c-16.157351 0-32.255168-16.169258-32.255168-35.529503V135.855102A136.557596 136.557596 0 0 0 371.380938 0.023813H164.704963C90.431157 0.023813 32.326609 61.450323 32.326609 135.855102v682.442687C12.883017 818.297789 0 834.467046 0 853.827291s16.157351 35.624756 32.326609 35.624756H598.667358a335.184662 335.184662 0 0 1-28.576008-96.015385c-4.524535 14.29991-17.621871 24.861127-30.719208 24.861127zM332.672354 656.593306H200.305906c-19.443592 0-32.326609-12.954457-32.326608-29.123714s16.157351-29.123714 32.255168-29.123714h135.640782c19.431685 0 32.326609 12.954457 32.326609 29.123714s-16.157351 29.123714-35.529503 29.123714z m0-197.305425H200.305906c-19.443592 0-32.326609-12.954457-32.326608-29.123714s16.157351-29.123714 32.255168-29.123715h135.640782c19.431685 0 32.326609 12.954457 32.326609 29.123715s-16.157351 29.123714-35.529503 29.123714z m0-200.50832H200.305906c-19.443592 0-32.326609-12.954457-32.326608-29.123714s16.157351-29.123714 32.255168-29.123714h135.640782c19.431685 0 32.326609 12.954457 32.326609 29.123714s-16.157351 29.123714-35.529503 29.123714zM1036.475606 601.846438h-273.853405v278.318407h273.853405zM1012.781333 842.515955H789.674155v-25.801753h94.134131v-68.749112h-76.988527v-26.194673h76.952807v-58.128362H795.365543v-27.385341h209.188281v27.385341h-92.09809v58.164082h81.858354v26.194673h-81.858354v68.820552h100.277973z m-13.918897-42.566344l-20.872392 12.275776c-7.775055-12.69251-25.38502-32.314702-39.744464-46.257412l19.229272-10.632656c15.145284 13.097337 33.112449 31.909875 41.304238 44.602385z" fill="#D81E06" p-id="60208"></path><path d="M904.966438 467.955937l-0.095253 0.095253C751.310864 468.72987 627.481499 593.714183 628.112552 747.226877s125.63918 277.425406 279.175687 276.770539c153.179307-0.654867 276.961046-125.115286 276.770539-278.294593-3.905388-154.750987-127.520434-277.746886-279.09234-277.746886zM1068.028281 928.863125h-31.552675v-20.467566h-273.853405v20.467566h-30.266755V573.591911H1068.028281z" fill="#D81E06" p-id="60209"></path></svg>