<?xml version="1.0" standalone="no"?><!DOCTYPE svg PUBLIC "-//W3C//DTD SVG 1.1//EN" "http://www.w3.org/Graphics/SVG/1.1/DTD/svg11.dtd"><svg t="1740284425077" class="icon" viewBox="0 0 1024 1024" version="1.1" xmlns="http://www.w3.org/2000/svg" p-id="46060" xmlns:xlink="http://www.w3.org/1999/xlink" width="200" height="200"><path d="M1016.951061 499.328294l-42.968387-26.623249c-0.36607-4.185482-0.767978-8.370964-1.246685-12.525726l36.932078-34.433588a14.829661 14.829661 0 0 0-4.920181-24.672584l-47.220427-17.663502c-1.162207-4.095884-2.429371-8.15081-3.696536-12.180136l29.439169-40.925565a14.747744 14.747744 0 0 0-9.604849-23.233904l-49.777795-8.089372q-2.897838-5.631841-5.992791-11.197123l20.886451-45.935344a14.617187 14.617187 0 0 0-1.116129-14.335595 14.975577 14.975577 0 0 0-12.848277-6.571335l-50.573933 1.79195a264.266461 264.266461 0 0 0-7.948575-9.681647l11.624632-49.219731a14.827102 14.827102 0 0 0-17.832457-17.801737l-49.199252 11.639991a438.011317 438.011317 0 0 0-9.709805-8.007454l1.791949-50.561133a14.686305 14.686305 0 0 0-20.924849-13.995125l-45.868786 20.960688c-3.737495-2.022343-7.42379-4.075405-11.215043-6.00303l-8.14313-49.818754a14.824542 14.824542 0 0 0-23.200626-9.635568l-40.958844 29.475008a334.687513 334.687513 0 0 0-12.182696-3.681176l-17.663501-47.212747a14.847581 14.847581 0 0 0-24.664904-4.943221L563.685135 51.223181a408.912618 408.912618 0 0 0-12.523167-1.215965l-26.597649-42.976067a14.750304 14.750304 0 0 0-25.135931 0l-26.641168 42.981187c-4.188042 0.34815-8.355604 0.767978-12.459168 1.215965l-34.482227-36.993516a14.801502 14.801502 0 0 0-24.705862 4.943221l-17.663502 47.212747c-4.095884 1.151967-8.099611 2.401212-12.159657 3.681176L330.414279 40.596921a14.87574 14.87574 0 0 0-23.267183 9.635568l-8.076572 49.818754q-5.6728 2.890158-11.235523 6.003031L241.968775 85.093585a14.760543 14.760543 0 0 0-14.350955 1.169887 14.591588 14.591588 0 0 0-6.553415 12.825238l1.761231 50.561133a273.779153 273.779153 0 0 0-9.727726 8.007454L163.873059 146.017306a14.791263 14.791263 0 0 0-17.765898 17.801737l11.578553 49.217171a649.719902 649.719902 0 0 0-7.969055 9.681647l-50.530414-1.791949a14.763103 14.763103 0 0 0-13.964406 20.912049l20.92485 45.932784q-3.071913 5.567843-6.03631 11.197124l-49.734276 8.089372a14.847581 14.847581 0 0 0-9.602289 23.233904l29.454529 40.925565c-1.331162 4.060045-2.49081 8.071452-3.737495 12.180136l-47.199948 17.663501a14.89366 14.89366 0 0 0-4.94066 24.672584l36.973036 34.433588a328.221136 328.221136 0 0 0-1.279964 12.525726l-42.968387 26.623249a14.717025 14.717025 0 0 0 0 25.14617l42.968387 26.623249c0.36607 4.170122 0.767978 8.373524 1.279964 12.510367L14.34512 598.097986a14.793822 14.793822 0 0 0 4.94066 24.672584l47.199948 17.663501q1.740751 6.164306 3.737495 12.180136L40.758454 693.550012A14.745184 14.745184 0 0 0 50.417062 716.804395l49.777795 8.089372q2.900398 5.613922 5.992791 11.181764l-20.968369 45.932784a14.806622 14.806622 0 0 0 14.007925 20.91461l50.486895-1.79195q3.932049 4.927861 7.969055 9.727726l-11.537594 49.25045a14.765663 14.765663 0 0 0 17.809417 17.755658l49.176212-11.578553a286.517353 286.517353 0 0 0 9.727726 7.935776l-1.79195 50.561133A14.676066 14.676066 0 0 0 241.968775 938.750131l45.953263-20.927409c3.696536 2.083781 7.45451 4.072845 11.194564 6.01583L307.246933 973.634266a14.660706 14.660706 0 0 0 8.936707 11.245763 14.821982 14.821982 0 0 0 14.286957-1.579475l40.892286-29.446849c4.060045 1.279964 8.099611 2.542008 12.203176 3.696535l17.663501 47.228107a14.711905 14.711905 0 0 0 24.621385 4.943221l34.482227-36.944877q6.251344 0.686061 12.543646 1.246684l26.597649 42.981187a14.804062 14.804062 0 0 0 25.135931 0l26.595089-42.981187q6.287183-0.568304 12.543646-1.246684l34.418228 36.944877a14.86806 14.86806 0 0 0 24.662344-4.943221l17.663502-47.228107c4.095884-1.154527 8.16361-2.416572 12.180136-3.696535l40.925565 29.439169a14.676066 14.676066 0 0 0 23.200625-9.666287l8.14313-49.788035a459.215199 459.215199 0 0 0 11.215044-6.01583l45.868785 20.927409a14.847581 14.847581 0 0 0 20.924849-13.961846l-1.791949-50.561133a335.683325 335.683325 0 0 0 9.709806-7.935776l49.150613 11.578553a14.791263 14.791263 0 0 0 17.788938-17.755659l-11.537595-49.250449a447.280815 447.280815 0 0 0 7.948576-9.727726l50.530414 1.79195a14.727264 14.727264 0 0 0 14.007924-20.91461l-20.924849-45.932784c2.019783-3.711895 4.060045-7.43915 5.992791-11.181764l49.790594-8.094492a14.88598 14.88598 0 0 0 9.625329-23.249263l-29.454529-40.925565 3.740055-12.180136 47.197387-17.663502a14.786143 14.786143 0 0 0 4.899702-24.672584l-36.929518-34.482226c0.427508-4.136843 0.880615-8.340245 1.200607-12.510367l43.006786-26.623249a14.693985 14.693985 0 0 0 0-25.14617h0.043518z m-287.66932 356.597935a30.46314 30.46314 0 1 1 36.158979-23.40798 30.442661 30.442661 0 0 1-36.158979 23.40798z m-14.565989-98.785052a27.695858 27.695858 0 0 0-32.912991 21.357477l-15.25205 71.20439a374.85534 374.85534 0 0 1-312.073111-1.484758l-15.25461-71.18903a27.64722 27.64722 0 0 0-32.912991-21.308839l-62.838546 13.488259A374.005444 374.005444 0 0 1 210.993649 730.883998h305.814089c3.417504 0 5.757278-0.599023 5.757277-3.757974v-108.241425c0-3.158951-2.255296-3.760534-5.757277-3.760534h-89.479715v-68.606063h96.765269c8.808711 0 47.199948 2.49593 59.510641 51.572304 3.824532 15.085654 12.223655 64.208108 18.024451 79.941424 5.757278 17.627662 29.155017 52.834349 54.116872 52.834349h152.384819a29.183176 29.183176 0 0 0 5.521764-0.568304 370.25003 370.25003 0 0 1-34.630702 40.674692z m-423.01526 97.300294a30.46314 30.46314 0 1 1 23.3747-36.171779 30.422181 30.422181 0 0 1-23.3747 36.171779zM175.666647 383.847393a30.46314 30.46314 0 1 1-39.745439-14.609508 30.337704 30.337704 0 0 1 39.745439 14.609508z m-35.641874 84.554414l65.53415-29.126858a27.770096 27.770096 0 0 0 14.028404-36.645366l-13.426821-30.501539h53.036583v239.097251H152.16395a374.773422 374.773422 0 0 1-12.05214-142.884927z m287.346769-23.221105v-70.462011h126.324755c6.530376 0 46.040301 7.549227 46.0403 37.103593 0 24.562507-30.335144 33.358418-55.25604 33.358418h-117.109015z m458.979686 63.43501c0 9.336056-0.322551 18.623474-1.054691 27.785455h-38.368197c-3.824532 0-5.393768 2.511289-5.393768 6.317902v17.612303c0 41.524588-23.415659 50.561133-43.93348 52.852268-19.529689 2.209218-41.163638-8.168729-43.869481-20.141511-11.494076-64.791771-30.678174-78.66146-61.013318-102.558386 37.630938-23.899485 76.759433-59.17017 76.759433-106.334278 0-50.957922-34.932774-83.069655-58.734982-98.813211-33.407057-22.048658-70.382653-26.456853-80.351012-26.456854H233.329019a373.856968 373.856968 0 0 1 209.338091-118.217463l46.813399 49.150613a27.690738 27.690738 0 0 0 39.187374 0.901094l52.355642-50.118265a374.351034 374.351034 0 0 1 256.17197 182.492129l-35.856908 81.026833a27.844334 27.844334 0 0 0 14.079603 36.630006l69.048931 30.673054c1.203166 12.274854 1.791949 24.626505 1.791949 37.198311h0.087038zM489.513788 98.914635a30.46314 30.46314 0 1 1 0.084478 41.982815 30.46314 30.46314 0 0 1-0.084478-41.982815zM845.315586 385.293752a21.659549 21.659549 0 1 1-0.040959 0.046079z m0 0" fill="#302F2F" p-id="46061"></path></svg>