<?xml version="1.0" standalone="no"?><!DOCTYPE svg PUBLIC "-//W3C//DTD SVG 1.1//EN" "http://www.w3.org/Graphics/SVG/1.1/DTD/svg11.dtd"><svg t="1740287386112" class="icon" viewBox="0 0 1024 1024" version="1.1" xmlns="http://www.w3.org/2000/svg" p-id="55323" xmlns:xlink="http://www.w3.org/1999/xlink" width="200" height="200"><path d="M277.333 418.133C308.608 292.95 386.86 230.4 512 230.4c187.733 0 211.243 140.8 305.11 164.267 62.591 15.658 117.333-7.851 164.266-70.4C950.144 449.408 871.893 512 746.709 512c-187.733 0-211.2-140.8-305.066-164.267-62.635-15.701-117.376 7.808-164.352 70.4z m-234.752 281.6C73.856 574.592 152.107 512 277.248 512c187.776 0 211.2 140.8 305.152 164.267 62.55 15.701 117.333-7.808 164.267-70.4C715.349 731.05 637.14 793.6 512 793.6c-187.776 0-211.243-140.8-305.152-164.267-62.55-15.658-117.333 7.851-164.267 70.4z" fill="#154097" p-id="55324"></path></svg>