<?xml version="1.0" standalone="no"?><!DOCTYPE svg PUBLIC "-//W3C//DTD SVG 1.1//EN" "http://www.w3.org/Graphics/SVG/1.1/DTD/svg11.dtd"><svg t="1740292015820" class="icon" viewBox="0 0 1024 1024" version="1.1" xmlns="http://www.w3.org/2000/svg" p-id="61322" xmlns:xlink="http://www.w3.org/1999/xlink" width="200" height="200"><path d="M900.374173 776.795972c68.260317 0 123.590107 55.329791 123.590107 123.590108C1023.96428 968.634489 968.634489 1023.96428 900.374173 1023.96428a123.590107 123.590107 0 0 1-111.683546-70.629722l-229.487064 0.011907a11.906561 11.906561 0 0 1-11.906562-11.906562v-11.501738a11.906561 11.906561 0 0 1 11.906562-11.906561h218.842598c-0.821553-5.762776-1.250189-11.656524-1.250189-17.645524H378.069044l39.363092 39.374998a11.906561 11.906561 0 0 1 0 16.835878l-8.132181 8.132181a11.906561 11.906561 0 0 1-16.835878 0l-64.485937-64.47403a11.906561 11.906561 0 0 1-10.192016-11.787495v-11.489832a11.906561 11.906561 0 0 1 11.906561-11.906562H781.903887c15.192772-51.043429 62.485634-88.275246 118.470286-88.275246zM156.89276 310.023046a11.906561 11.906561 0 0 1 11.906561 11.906561v463.40337a123.625827 123.625827 0 0 1 78.380894 115.053103c0 68.24841-55.329791 123.578201-123.590108 123.5782C55.329791 1023.96428 0 968.634489 0 900.374173c0-53.103264 33.493157-98.37201 80.512168-115.850842V551.428578a11.906561 11.906561 0 0 1 11.906562-11.906561h11.501738a11.906561 11.906561 0 0 1 11.906561 11.906561v225.605525a125.399905 125.399905 0 0 1 17.657431 0.142879l-0.011907-406.882922-39.363092 39.374998a11.906561 11.906561 0 0 1-16.835878 0l-8.132181-8.132181a11.906561 11.906561 0 0 1 0-16.835878l64.462123-64.497843a11.906561 11.906561 0 0 1 11.787496-10.192017h11.489832z m221.700173 360.673558a346.873853 346.873853 0 0 0 21.300838 50.721951c14.585538 27.980419 31.742893 50.067091 50.983896 65.65278 3.286211 2.678976 6.620048 5.131728 9.989605 7.382068a287.579177 287.579177 0 0 1-155.761636-87.703731 227.260537 227.260537 0 0 1 23.33686-14.549819 305.629525 305.629525 0 0 1 50.150437-21.503249z m277.303815 0a304.462682 304.462682 0 0 1 50.13853 21.503249 228.725044 228.725044 0 0 1 23.348767 14.549819 287.602991 287.602991 0 0 1-155.761636 87.703731c3.369557-2.262247 6.703394-4.714998 10.001511-7.382068 19.229097-15.573782 36.374545-37.684267 50.971989-65.65278a347.302489 347.302489 0 0 0 21.300839-50.721951z m-151.17761-20.81267v136.401568c-30.659396-5.715149-59.616153-32.350127-82.631536-76.440125a322.67972 322.67972 0 0 1-19.467228-46.197458c31.635734-8.167901 66.200481-12.882899 102.098764-13.763985z m25.051405 0c35.898283 0.881086 70.46303 5.596084 102.098764 13.752079a322.691627 322.691627 0 0 1-19.479135 46.197458c-23.003477 44.101903-51.960234 70.736881-82.631536 76.452031zM900.374173 0C968.634489 0 1023.96428 55.329791 1023.96428 123.590107c0 46.173645-25.325256 86.441636-62.866644 107.647222v225.772217a11.906561 11.906561 0 0 1-11.906561 11.906562h-11.489832a11.906561 11.906561 0 0 1-11.906561-11.906562V244.560771c-5.738963 1.190656-11.63271 2.000302-17.645524 2.381312v391.213888l39.363092-39.363092a11.906561 11.906561 0 0 1 16.835877 0l8.132182 8.120275a11.906561 11.906561 0 0 1 0 16.847785l-64.462124 64.485936a11.906561 11.906561 0 0 1-11.787495 10.192017h-11.489832a11.906561 11.906561 0 0 1-11.906562-11.906562v-442.447821c-54.996407-12.513796-96.038324-61.711708-96.038324-120.494402C776.795972 55.329791 832.125763 0 900.38608 0zM354.577398 524.519749c0.940618 43.089846 6.703394 84.584212 16.788252 122.220853a329.811751 329.811751 0 0 0-54.936874 23.479739c-9.537156 5.179354-18.729021 10.97785-27.504157 17.359767a286.590933 286.590933 0 0 1-59.425648-163.060359z m450.365685-0.011906a286.590933 286.590933 0 0 1-59.413741 163.060358 246.858737 246.858737 0 0 0-27.516063-17.359766 331.871586 331.871586 0 0 0-54.948781-23.479739c10.096764-37.636641 15.85954-79.131007 16.800158-122.220853z m-300.247758 0v100.324686c-38.339128 0.904899-75.356627 5.989-109.302234 14.835576-9.441903-35.338674-14.847482-74.463635-15.764287-115.160262h125.066521z m150.117926 0c-0.916805 40.72044-6.322384 79.809681-15.764288 115.160262-33.945607-8.846575-70.963106-13.930677-109.302233-14.835576v-100.324686zM395.416904 384.296176c33.945607 8.858482 70.963106 13.930677 109.302234 14.847482v100.324686H379.64071c0.916805-40.696627 6.322384-79.833494 15.764288-115.172168z m243.655873 0c9.441903 35.338674 14.847482 74.475542 15.764287 115.172168H529.758636v-100.324686c38.339128-0.916805 75.356627-5.989 109.302234-14.847482z m-350.136252-47.88819c8.787042 6.381917 17.978908 12.168506 27.516064 17.34786a329.811751 329.811751 0 0 0 54.948781 23.467832c-10.096764 37.636641-15.85954 79.142914-16.800158 122.220853H229.510878a286.590933 286.590933 0 0 1 59.413741-163.036545z m456.61663 0a286.590933 286.590933 0 0 1 59.413742 163.036545H679.876562c-0.940618-43.077939-6.703394-84.584212-16.788251-122.220853a329.811751 329.811751 0 0 0 54.936874-23.467832 247.930328 247.930328 0 0 0 27.504157-17.359767z m-215.782612-98.729207c30.659396 5.715149 59.616153 32.362034 82.631536 76.475844a322.691627 322.691627 0 0 1 19.467228 46.173645c-31.635734 8.167901-66.200481 12.870993-102.098764 13.763985z m-25.051405 0V374.104159c-35.898283-0.892992-70.46303-5.596084-102.098764-13.763985 5.286513-15.883353 11.787496-31.326163 19.479134-46.197458 23.003477-44.089997 51.960234-70.724975 82.631536-76.440124z m68.903271-8.167901a287.543458 287.543458 0 0 1 155.761636 87.715637 227.296257 227.296257 0 0 1-23.336861 14.549818 305.629525 305.629525 0 0 1-50.150436 21.50325 347.064358 347.064358 0 0 0-21.300839-50.721951c-14.585538-27.980419-31.742893-50.067091-50.983895-65.65278a134.127414 134.127414 0 0 0-9.989605-7.393974z m-112.755137 0c-3.369557 2.262247-6.703394 4.714998-10.001512 7.382068-19.229097 15.597595-36.374545 37.684267-50.971989 65.652779a347.481088 347.481088 0 0 0-21.300838 50.721952 305.188982 305.188982 0 0 1-50.13853-21.50325 227.260537 227.260537 0 0 1-23.348767-14.549818 287.602991 287.602991 0 0 1 155.761636-87.703731zM123.578201 0a123.590107 123.590107 0 0 1 111.695452 70.629722l229.487065-0.011906a11.906561 11.906561 0 0 1 11.906561 11.906561v11.501738a11.906561 11.906561 0 0 1-11.906561 11.906562h-218.842599c0.821553 5.762776 1.250189 11.656524 1.250189 17.645524h398.726928l-39.363092-39.374999a11.906561 11.906561 0 0 1 0-16.835878l8.132182-8.132181a11.906561 11.906561 0 0 1 16.835877 0l64.485937 64.47403a11.906561 11.906561 0 0 1 10.192017 11.787496v11.489831a11.906561 11.906561 0 0 1-11.906562 11.906562H242.060393c-15.192772 51.043429-62.485634 88.275246-118.470286 88.275246C55.329791 247.168308 0 191.838517 0 123.578201 0 55.329791 55.329791 0 123.590107 0z" fill="#007EFF" p-id="61323"></path></svg>