<?xml version="1.0" standalone="no"?><!DOCTYPE svg PUBLIC "-//W3C//DTD SVG 1.1//EN" "http://www.w3.org/Graphics/SVG/1.1/DTD/svg11.dtd"><svg t="1740291849503" class="icon" viewBox="0 0 1024 1024" version="1.1" xmlns="http://www.w3.org/2000/svg" p-id="59911" xmlns:xlink="http://www.w3.org/1999/xlink" width="200" height="200"><path d="M511.49 765.436v-222.56l423.886-113.58-63.661 237.585-282.05 162.841z" fill="#8375B4" fill-opacity=".4" p-id="59912"></path><path d="M511.47 870.524l0.019-105.088 28.207-8.897c144.135-45.463 273.007-135.442 338.088-236.053 14.385-22.238 28.932-54.089 35.322-77.335 4.774-17.37 5.656-24.635 5.732-47.214 0.075-22.35-0.687-29.188-4.696-42.082-15.295-49.202-52.381-85.213-111.057-107.839-63.837-24.615-152.693-27.946-248.391-9.312-11.782 2.294-21.72 3.874-22.083 3.51-1.22-1.22 53.658-15.661 75.391-19.84 44.262-8.51 61.543-10.506 100.918-11.649 48.47-1.408 75.948 1.165 113.766 10.651 97.825 24.538 155.356 85.27 167.254 176.56 4.843 37.164-1.049 83.646-16.523 130.352-56.847 171.58-230.858 344.005-446.208 442.144l-15.756 7.18 0.019-105.088z m-248.403-65.2c-102.094-6.386-179.225-49.142-214.527-118.92-26.218-51.822-28.032-123.315-4.932-194.319 46.2-142.008 170.585-284.59 339.13-388.745 29.454-18.2 116.49-63.52 122.043-63.547 2.02-0.01 2.566 22.272 2.566 104.6v104.612l-8.724 2.195c-14.948 3.76-56.89 18.616-82.468 29.208C302.007 327.68 201.337 404.421 145.274 486.9c-38.227 56.24-54.1 118.27-42.384 165.634 13.016 52.62 50.653 91.128 112.963 115.579 61.385 24.087 153.62 27.687 246.09 9.605 14.104-2.758 25.918-4.74 26.253-4.404 0.336 0.335-11.815 4.058-27.002 8.272-69.26 19.223-138.225 27.486-198.127 23.739zM520.69 243.006c2.258-0.97 5.491-1.764 7.185-1.764 1.94 0 1.561 0.652-1.026 1.764-2.259 0.97-5.492 1.764-7.185 1.764-1.941 0-1.562-0.652 1.026-1.764z" fill="#1D2087" p-id="59913"></path></svg>