<svg xmlns="http://www.w3.org/2000/svg" width="19.781" height="14" viewBox="0 0 19.781 14"><defs><style>.a{fill:#fff;}</style></defs><g transform="translate(-73 -59)"><path class="a" d="M.655,0h3.01V-.661H1.438V-2.268H3.26v-.661H1.438V-4.313H3.591v-.661H.655ZM4.226,0h.817l.432-.79c.115-.223.229-.446.344-.655h.034c.135.209.263.439.385.655L6.723,0h.844L6.372-1.849,7.486-3.713h-.81l-.391.743c-.1.209-.209.419-.31.628H5.947C5.825-2.551,5.7-2.761,5.6-2.97L5.15-3.713H4.313L5.427-1.937ZM9.956.088a1.839,1.839,0,0,0,1.208-.459L10.84-.884a1.272,1.272,0,0,1-.81.337c-.614,0-1.046-.52-1.046-1.31s.445-1.309,1.073-1.309a.97.97,0,0,1,.661.29l.385-.506a1.594,1.594,0,0,0-1.087-.425A1.822,1.822,0,0,0,8.181-1.856,1.757,1.757,0,0,0,9.956.088Zm3.686,0A2.252,2.252,0,0,0,14.9-.3L14.627-.8a1.576,1.576,0,0,1-.884.277A1.121,1.121,0,0,1,12.6-1.654h2.41a2.012,2.012,0,0,0,.04-.4c0-1.046-.533-1.755-1.519-1.755a1.8,1.8,0,0,0-1.694,1.951A1.785,1.785,0,0,0,13.642.088ZM12.589-2.194A1,1,0,0,1,13.54-3.2c.54,0,.83.371.83,1.006ZM17.017.088a1.217,1.217,0,0,0,.418-.061l-.1-.587a.539.539,0,0,1-.128.013c-.094,0-.182-.074-.182-.284V-5.38h-.776V-.871C16.247-.27,16.456.088,17.017.088Z" transform="translate(75.346 72.912)"/><g transform="translate(-2823 -2386)"><rect class="a" width="2" height="1" transform="translate(2896 2458)"/><rect class="a" width="1" height="13" transform="translate(2896 2446)"/><rect class="a" width="1" height="5" transform="translate(2904 2448)"/><rect class="a" width="6" height="1" transform="translate(2896 2445)"/><path class="a" d="M-10602,2336h-2l-1-1v-2l3,3Z" transform="translate(13507 112)"/></g><rect class="a" width="1" height="3" transform="translate(78 59.996)"/><rect class="a" width="3" height="1" transform="translate(79 61.996)"/></g></svg>