<svg xmlns="http://www.w3.org/2000/svg" width="14" height="14.001" viewBox="0 0 14 14.001"><defs><style>.a{fill:#fff;}</style></defs><g transform="translate(-2896 -2444.999)"><path class="a" d="M10.957,10.563l-.007,0a1.457,1.457,0,0,0-.537-.432A2.255,2.255,0,0,0,9.555,10H8.046v5H9.6a2.035,2.035,0,0,0,.82-.141,1.448,1.448,0,0,0,.543-.422,2.262,2.262,0,0,0,.372-.758,3.875,3.875,0,0,0,.146-1.128,4.374,4.374,0,0,0-.14-1.2,2.228,2.228,0,0,0-.384-.787m-.4,2.814a1.294,1.294,0,0,1-.19.479.708.708,0,0,1-.293.226,1.618,1.618,0,0,1-.578.075H8.871V10.845h.375a3.36,3.36,0,0,1,.672.044.767.767,0,0,1,.394.242,1.152,1.152,0,0,1,.239.505,3.952,3.952,0,0,1,.077.875,4.024,4.024,0,0,1-.075.862ZM15,10.845V10H12.19v5h.825V12.874h1.719v-.845H13.015V10.845Zm-8.468-.774h0A4.062,4.062,0,0,0,5.559,10H4.229v5h.826V13.113H5.6a2.657,2.657,0,0,0,1.057-.148,1.19,1.19,0,0,0,.512-.515,1.849,1.849,0,0,0,.2-.909,1.822,1.822,0,0,0-.237-.976,1.1,1.1,0,0,0-.6-.494m-.119,1.9a.555.555,0,0,1-.272.234,1.979,1.979,0,0,1-.627.065H5.055V10.845h.4a2.469,2.469,0,0,1,.68.058.548.548,0,0,1,.271.229.868.868,0,0,1,0,.836Z" transform="translate(2895 2444)"/><rect class="a" width="2" height="1" transform="translate(2896 2458)"/><rect class="a" width="1" height="13" transform="translate(2896 2446)"/><rect class="a" width="1" height="5" transform="translate(2904 2448)"/><rect class="a" width="6" height="1" transform="translate(2896 2445)"/><path class="a" d="M-10578,2336h-2l-1-1v-2l3,3Z" transform="translate(13483 112)"/><rect class="a" width="1" height="3" transform="translate(2901 2446)"/><rect class="a" width="3" height="1" transform="translate(2902 2448)"/></g></svg>