<svg xmlns="http://www.w3.org/2000/svg" width="40" height="40" viewBox="0 0 40 40"><defs><style>.a,.b{fill:#fff;}.b{opacity:0.399;}</style></defs><g transform="translate(-1279 -31)"><g transform="translate(1291 43)"><path class="a" d="M7.007,1a6.007,6.007,0,1,0,6.007,6.007A6.014,6.014,0,0,0,7.007,1m0-1A7.007,7.007,0,1,1,0,7.007,7.007,7.007,0,0,1,7.007,0Z"/><path class="a" d="M0,5.5A.5.5,0,0,1-.5,5V0A.5.5,0,0,1,0-.5.5.5,0,0,1,.5,0V5A.5.5,0,0,1,0,5.5Z" transform="translate(11.464 11.464) rotate(-45)"/></g><path class="b" d="M20,1a19.005,19.005,0,0,0-7.4,36.507A19.005,19.005,0,0,0,27.4,2.493,18.88,18.88,0,0,0,20,1m0-1A20,20,0,1,1,0,20,20,20,0,0,1,20,0Z" transform="translate(1279 31)"/></g></svg>