<svg xmlns="http://www.w3.org/2000/svg" width="40" height="40" viewBox="0 0 40 40"><defs><style>.a,.b{fill:#fff;}.a{opacity:0.399;}</style></defs><g transform="translate(-1296 -33)"><path class="a" d="M20,1a19.005,19.005,0,0,0-7.4,36.507A19.005,19.005,0,0,0,27.4,2.493,18.88,18.88,0,0,0,20,1m0-1A20,20,0,1,1,0,20,20,20,0,0,1,20,0Z" transform="translate(1296 33)"/><g transform="translate(907.5 -28.5)"><path class="b" d="M14.646,15.354l-15-15L.354-.354l15,15Z" transform="translate(401.5 74.5)"/><path class="b" d="M.354,15.354l-.707-.707,15-15,.707.707Z" transform="translate(401.5 74.5)"/></g></g></svg>