<svg xmlns="http://www.w3.org/2000/svg" width="19.888" height="14.001" viewBox="0 0 19.888 14.001"><defs><style>.a{fill:#fff;}</style></defs><g transform="translate(-98 -58.999)"><path class="a" d="M1.168,0h.945l.655-2.761c.081-.391.162-.763.236-1.141h.027c.067.378.142.749.23,1.141L3.929,0h.965l.979-4.975H5.123L4.651-2.383C4.57-1.863,4.482-1.33,4.4-.79H4.367c-.115-.54-.223-1.073-.338-1.593L3.388-4.975h-.7L2.052-2.383c-.115.526-.229,1.06-.337,1.593H1.688c-.088-.533-.175-1.067-.263-1.593L.959-4.975h-.8ZM8.276.088a1.785,1.785,0,0,0,1.748-1.944A1.791,1.791,0,0,0,8.276-3.807,1.791,1.791,0,0,0,6.527-1.856,1.785,1.785,0,0,0,8.276.088Zm0-.635c-.581,0-.945-.52-.945-1.31s.365-1.309.945-1.309.952.526.952,1.309S8.863-.547,8.276-.547ZM11.1,0h.776V-2.315c.23-.587.594-.8.9-.8a1.1,1.1,0,0,1,.371.061l.142-.675a.924.924,0,0,0-.418-.081,1.283,1.283,0,0,0-1.053.763H11.8l-.061-.668H11.1Zm4.138.088a1.556,1.556,0,0,0,1.08-.506h.027L16.409,0h.635V-5.38h-.776V-4l.034.614a1.432,1.432,0,0,0-1-.419,1.755,1.755,0,0,0-1.593,1.951C13.709-.621,14.31.088,15.241.088Zm.182-.641c-.58,0-.911-.466-.911-1.309,0-.8.418-1.3.938-1.3a1.164,1.164,0,0,1,.817.337v1.816A1.091,1.091,0,0,1,15.424-.553Z" transform="translate(100.845 72.912)"/><g transform="translate(-2798 -2386)"><rect class="a" width="2" height="1" transform="translate(2896 2458)"/><rect class="a" width="1" height="13" transform="translate(2896 2446)"/><rect class="a" width="1" height="5" transform="translate(2904 2448)"/><rect class="a" width="6" height="1" transform="translate(2896 2445)"/><path class="a" d="M-10627,2336h-2l-1-1v-2l3,3Z" transform="translate(13532 112)"/></g><rect class="a" width="1" height="3" transform="translate(103 59.996)"/><rect class="a" width="3" height="1" transform="translate(104 61.996)"/></g></svg>