<svg xmlns="http://www.w3.org/2000/svg" width="34" height="34" viewBox="0 0 34 34"><defs><style>.a,.b{fill:#fff;}.b{opacity:0.399;}</style></defs><g transform="translate(-1259 -920)"><g transform="translate(911 -558)"><g transform="translate(-905.5 102)"><path class="a" d="M16,.5H0v-1H16Z" transform="translate(1261.5 1393.5)"/><path class="a" d="M8,8.707-.707,0,0-.707,8.707,8Z" transform="translate(1269.5 1385.5)"/><path class="a" d="M0,8.707-.707,8,8-.707,8.707,0Z" transform="translate(1269.5 1393.5)"/></g></g><path class="b" d="M17,1A16,16,0,0,0,5.686,28.314,16,16,0,0,0,28.314,5.686,15.9,15.9,0,0,0,17,1m0-1A17,17,0,1,1,0,17,17,17,0,0,1,17,0Z" transform="translate(1259 920)"/></g></svg>