<?xml version="1.0" standalone="no"?><!DOCTYPE svg PUBLIC "-//W3C//DTD SVG 1.1//EN" "http://www.w3.org/Graphics/SVG/1.1/DTD/svg11.dtd"><svg t="1746326717359" class="icon" viewBox="0 0 1024 1024" version="1.1" xmlns="http://www.w3.org/2000/svg" p-id="5659" xmlns:xlink="http://www.w3.org/1999/xlink" width="200" height="200"><path d="M512 0C229.248 0 0 229.248 0 512s229.248 512 512 512 512-229.248 512-512S794.752 0 512 0z m14.677333 864.042667a352 352 0 1 1 0-704.085334 350.293333 350.293333 0 0 1 240.341334 95.317334L662.144 363.946667a199.936 199.936 0 0 0-135.466667-52.864 200.917333 200.917333 0 1 0 140.117334 344.789333l113.365333 100.096a350.890667 350.890667 0 0 1-253.482667 108.074667z" p-id="5660" fill="#ff550d"></path></svg>