<?xml version="1.0" standalone="no"?><!DOCTYPE svg PUBLIC "-//W3C//DTD SVG 1.1//EN" "http://www.w3.org/Graphics/SVG/1.1/DTD/svg11.dtd"><svg t="1746284883609" class="icon" viewBox="0 0 1024 1024" version="1.1" xmlns="http://www.w3.org/2000/svg" p-id="7887" xmlns:xlink="http://www.w3.org/1999/xlink" width="200" height="200"><path d="M223.3 179.2l-6.9-6.9-5.9 6.6-41 42.3-6.4 6.4 7.2 6.5 43.6 41.3 7.4 7.4 7.6-8-1-0.8 38.1-39.3 1.4 1.3 7.8-8m-54.3 39.3L178 226.5l38.1-39.3 43 40.8-38.2 39.3z" fill="#32716C" p-id="7888"></path><path d="M188.9 222.7l-5.6 5.4 7.1 6.9 5.2-5.8 8.1-8.4 6.3 6-6.4 6.7-5.6 5.5 7.1 6.6 5.3-5.7 6.4-6.7 8.8 8.3-8.7 9-5.8 5.6 7 6.6 5.4-5.9 24.6-25.4 6-5.9-7-6.6-4.5 5.1c-0.2-2.3-0.2-4.3-0.4-6.2l-3.1 0.1-4.3 0.3c-0.8 0-1.8 0-3.1-0.1l4.9-4.6-7.2-6.8-3.9 4.3-7.8 8.1-6.5-6 8.3-8.5 5.8-5.4-7.2-6.9-5.7 6.3-23.5 24.1z m39.9-1.8c0.1 2.4-0.1 4.6-0.5 6.5 4.1-0.5 6.8-0.6 7.9-0.5 1.2 0.1 2.4 0.2 3.2 0.4l-6.1 6.3-8.7-8.3 4.2-4.4z m118.1-76.3c1.8-3.3 3.9-7.1 6.4-11.4-4.5-0.6-7.3-1.1-8.3-1.4-1-0.3-2.2-0.7-3.5-1.3l-2.1 5.7c-0.5 1.6-2.8 6-6.9 13.5l-2.7-1.3c-0.9-0.5-3.1-0.9-6.4-1.4 1.9-2.9 3.9-5.9 5.9-9-1.6-0.2-3.1-0.4-4.6-0.7l11.9-6.1 7.8-3.8-4.4-8.4-7.7 4.1-33.5 17.3-7.1 3.4 4.5 8.5 6.8-3.8 11.8-6.1c-5 6.9-9.6 11.9-13.8 14.9-4.1 2.9-7.3 5.3-9.8 6.9 3.5 1.9 5.7 3.1 6.6 3.8 0.8 0.6 1.9 1.4 2.9 2.4 4-3.7 7-6.3 8.8-8.1 1.8-1.6 4.2-4.3 7.5-7.8l1.3 0.3c-2.1 3.7-4.5 7.2-7.1 10.6-2.7 3.2-5 5.8-7 7.8-2 1.9-4.4 3.9-7.4 6.1 3 1.6 5 2.7 6.1 3.5 0.9 0.6 2 1.4 3.2 2.4 5.7-5.6 9.9-10.3 12.4-14 2.7-3.6 5.5-7.8 8.5-12.8 0.5 0.3 1.2 0.8 1.7 1.3-2 4.1-5.2 9.4-9.5 15.6-4.3 6.3-10.6 12.7-18.7 19l4.4 2.2c1.3 0.6 3.1 1.9 5.6 3.8l8.5-9.4c2.5-2.6 5.3-6.2 8.5-10.6 3.1-4.5 5.6-8.5 7.5-12l0.4 1c0.5 0.9 1.1 2.3 1.7 4 0.7 1.6 0.7 3.1-0.1 4.3-0.6 1.3-3.3 2.6-7.8 4.1l3.4 2.7c0.9 0.6 2.6 2.5 5.2 5.6 6.3-3.4 9.9-6.3 10.8-8.7 0.9-2.5 0.9-4.9 0.4-7.2-0.7-2.1-1.8-4.8-3.5-8-1.8-3.1-2.9-5.3-3.7-6.4-0.7-1-1.5-2.2-2.4-3.5l2.1-3.1c3.5 3.5 6.7 6.2 9.6 8.3 2.9 1.9 6.2 3.5 10 4.9 3.8 1.4 9.1 2.2 16 2.7 0.3-3.3 0.6-5.6 0.9-7 0.3-1.4 0.7-3.1 1.3-5.3-4.8 0.5-9.7 0.2-14.7-1-4.8-1-8.7-2.8-11.6-5.3-2.7-2.4-4.7-4.4-6.1-5.8z" fill="#32716C" p-id="7889"></path><path d="M280.2 150.5l2 4.4 10.3-5.3-2.4-4.2-2.8-5.5 52-26.9 3 5.8 2.2 4.5 10.3-5.2-2.6-4.4-4.6-8.7-2.8-5.9-8.3 4.6-23.1 11.9c0.3-0.8 0.7-1.8 1.3-2.8-2.5-0.7-6.3-1.7-11.4-2.8-2 3.1-3.3 5.2-3.9 6-0.6 0.9-1.5 1.9-2.4 3 2.7 0.6 4.8 1.2 6.4 1.8l-21.6 11.1-9.2 4.3 3.1 5.6 4.5 8.7z m135.3-26.2l1.2 9.3 11.3-1.8-0.3-1.3 17.2-2.7 2 13c0.3 2 0.7 3.6 1.4 4.8 0.7 1.1 1.9 2.1 3.8 2.8 1.9 0.7 4.5 0.9 8 0.3 3.5-0.5 7.9-1.1 13.5-1.8 5.8-0.7 10-1.4 12.8-1.9 2.8-0.6 4.8-1.3 6.1-2 1.3-0.8 2.4-1.9 3.4-3.4s1.9-5.4 2.8-11.8c-3.3-0.6-7.2-1.8-11.6-3.5v3.6c0.1 2.3-0.4 4-1.4 5.1-1 1.1-2.4 1.8-4.1 2.3-1.8 0.5-4.8 0.9-9.1 1.5l-9.8 1.3c-2.1 0.3-3.5 0.1-4.1-0.4-0.6-0.7-0.9-1.3-1.1-2.1l-1.5-9.4 19.5-3.1 0.3 1.7 11.2-1.7-1.6-8.7-5.5-35.2-1-7.9-7.3 1.4-23.5 3.6-0.8-5-0.9-7.1-11.6 1.8 1.4 7 0.7 5.1-19.8 3.1-8.6 1 1.6 7.9 5.4 34.2z m56.6-21.1l1.6 10.1-19.5 3.1-1.6-10.2 19.5-3z m-3.2-19.8l1.6 10.3-19.5 3-1.6-10.3 19.5-3z m-25.6 34.7l-17.1 2.6-1.6-10.2 17-2.6 1.7 10.2z m-4.8-30l1.7 10.4-17.1 2.6-1.6-10.3 17-2.7z m177.8-12l-51.8-9-10.9-2.3-1.7 10.9-9.5 53.4-2.2 11.7 11.7 2.1 2-11.8 1.9-10.9c1.9 2.7 3.1 4.6 3.7 5.6 0.5 1.1 1.2 2.2 1.7 3.3 4-3.8 6.5-6.4 7.6-7.7 1.1-1.3 2-2.4 2.7-3.5l0.8 2.6c0.2 0.5 0.3 1.7 0.5 3.9l2.4-1.6c1.5-0.9 4-2 7.7-3.3-1.4-4.6-2.9-9-4.6-13.2l1.5-2.9c0.5-1 1.5-3.3 3-6.8 2.3 3.9 3.7 6.5 4.2 7.6 0.4 1 1.4 3.5 2.6 7.1l-2 3.5c-1.4 2.5-3.3 4.9-5.4 7.3-2.1 2.3-5 4.6-8.5 7 2.7 2.2 4.5 3.7 5.3 4.7 0.8 0.9 1.7 2 2.6 3.1 2-1.4 3.7-2.8 4.9-4.1 1.3-1.3 4-4.3 8-9.1l1.4 5.3c0.2 0.5 0.5 2.1 1 4.8 3.6-2.5 6.9-4.6 9.8-6.2l-1-3.2c-0.1-0.3-1.7-4.5-4.7-12.4l2.3-5.4c0.8-2 1.8-4.7 3.1-8.1l1.8-5.2c0.1-0.5 0.4-1.5 0.9-2.6-3.6-0.9-7.2-2-10.9-3.5l-0.5 2.8c-0.3 1.5-1.1 4.4-2.5 8.7-1.2-2.4-2.2-4.7-3.3-6.6l-2.2 1.4c-1.3 0.8-3.5 1.6-6.5 2.3l1.8-4.5c0-0.1 0.3-0.8 0.7-2.2 0.5-1.3 0.9-2.5 1.3-3.4-4.3-1.1-7.8-2.4-10.6-3.9l-0.8 3.7c-0.3 1.5-0.7 2.9-1.1 4.3-0.4 1.2-0.9 2.7-1.6 4.1-1.3-2.8-2.5-5.3-3.4-7.6-2.7 1.5-4.5 2.4-5.4 2.6-0.9 0.3-1.8 0.6-2.8 0.8l2.2-12.3 50.8 8.8-9.3 52.5c-0.2 1.1-0.5 1.8-1 2.3-0.5 0.6-1.9 0.6-4.1 0.1-1.9-0.4-3.9-0.9-5.9-1.6l0.9 3.1c0.8 3 1.1 5.2 1 6.6 0 1.5-0.2 2.6-0.2 3.5 5.8 0.7 10.1 0.7 12.8 0.3 2.7-0.5 4.5-1.4 5.2-2.9 0.7-1.6 1.2-3.3 1.6-5.1l10-56.6 2.2-10.8-11.2-1.5zM562.5 95c0.4 0.9 2 4.4 4.5 10.4-1.8 3.5-3.5 6.1-5.1 7.9-1.6 1.8-3.6 3.7-6 5.6l4.9-27.3 1.7 3.4z m169.1 66.2c1.8 4.6 4.5 9.1 7.7 13.4 4.5-3 7.2-4.8 8.3-5.4 1.1-0.6 2.3-1.1 3.5-1.5-2.6-2.5-4.3-4.4-5.2-5.5-0.7-1.1-1.7-2.6-2.6-4.3-1-1.8-2-4.3-3.2-7.7-1.2-3.4-1.5-7.1-0.9-11 0.5-4 1.1-6.6 1.6-8.2 0.5-1.4 0.9-2.6 1.5-3.5 0.5-1 1-2 1.8-3-4-1.9-7.5-4-10.6-6.3-1.9 5-3.1 8.5-3.7 10.6-0.6 2.2-1 5.1-1.5 8.5-0.4 3.6-0.5 7.2 0 11 0.3 4.1 1.5 8.3 3.3 12.9z m-55-21.8c5-1 10.6-2.4 16.8-4.3 6.2-1.9 11.3-4 15.3-6.3 4-2.2 8.9-5 14.7-8.3-2.8-3-5.3-6.3-7.6-10.1l-2.2 1.9c-3.5 3-7.5 5.6-12.1 7.8-4.7 2.1-9.5 3.9-14.6 5.2-5.2 1.3-9.7 1.8-13.6 1.3l1.2 2.8c0.5 1.7 1.3 5.1 2.1 10z m-2.8 34.9c2.3 1 8.2 3.4 18 7.7 9.8 4.2 17.2 7.5 22.4 9.9 0.2 3 0.3 5 0.2 6.1-0.1 1.1-0.1 2.3-0.3 3.7l3.4-0.8c0.2-0.1 3.4-0.5 9.9-1.4-0.9-8.5-2.3-19.5-4.2-33l-2.4 0.3c-1.4 0.2-4.5 0.1-9.3-0.5l1.2 5.8c0.3 1.5 0.7 4.6 1.2 9.5-10.1-5-20.4-9.9-30.7-15.1 5-1.5 9.2-2.9 12.7-4.2 3.5-1.4 6.9-2.8 10.4-4.4l7.3-3.5c0.9-0.4 2.2-1 4-1.9-2.6-3.7-5-7.7-7.1-11.9l-1.8 1.7c-0.9 0.7-2.9 2.3-6.3 4.5-3.3 2.3-6.6 4.1-9.9 5.7-3.3 1.5-6.5 2.8-9.5 3.9-3.1 1.1-5.6 1.8-7.4 2.1-1.8 0.3-4.6 0.5-8.3 0.7l0.1 3.1c0.1 2-0.3 5.2-1.3 9.6 2.8 0.7 5.4 1.6 7.7 2.4zM821.3 234l-18.7-20-5.9-6.8-5.8 5.8-11.5 10.7-6.7 5.6 6.4 6.4 18.8 19.9 6.6 7.4 6.2-6.2 11.5-10.7 6.3-5.2-7.2-6.9z m-17 14l-16.5-17.5 9-8.3 16.5 17.4-9 8.4z m25.1-14.9l7.5 8.4 7.9-7.3-8.1-7.9-26.3-28-6.8-7.6-7.8 7.2 7.3 7.3z" fill="#32716C" p-id="7890"></path><path d="M855 233.2l-40.8 37.7c-1.3 1.2-2.2 1.7-2.9 1.8-0.7 0-1.7-0.6-3-1.9-0.5-0.4-1.3-1.3-2.3-2.4-1.1-1.2-2.1-2.4-3-3.4l-1.4 3.3c-0.8 1.8-1.6 3.3-2.6 4.5-0.9 1.2-1.8 2.3-2.6 3.3 5.4 5 9.2 7.9 11.7 8.8 2.4 0.9 4.1 1.2 5.2 0.8 1-0.3 2.6-1.4 4.5-3.3l45.4-41.8 7.2-6.1-7.2-7.3-36.2-38.5-7.9-8.7-8 7.3 8.4 8.4 35.5 37.5z m-734.8 126c4.7 2.2 8.9 2.7 12.7 1.6 3.8-1.2 8-4.3 12.7-9.8 0.5-0.5 1.2-1.3 2.2-2.4 6.4-7.7 11.2-10.7 14.2-9.3 1.7 0.8 2.8 2.2 3.3 4.2 0.4 2 0 4.1-1.1 6.4-1.5 3.1-4.1 5.6-7.6 7.4-3.6 1.8-7.7 2.6-12.5 2.6l-0.5 6.4 19.4 4 2.4-4.9-2.4-2.5c2.2-1.2 4.2-2.6 5.8-4.3 1.6-1.7 3-3.7 4.1-5.8 2.6-5.3 3-10.5 1.3-15.7-1.8-5.2-5.3-9-10.6-11.5-2.7-1.3-5.4-1.9-8.1-2-2.7-0.1-5.3 0.5-7.6 1.6-1.1 0.6-2.7 1.7-4.5 3.5-1.8 1.8-4.2 4.2-7.2 7.3-0.4 0.5-0.9 1.1-1.7 2-5.8 6.5-10.3 9-13.3 7.5-2-1-3.4-2.7-4-5.3-0.6-2.4-0.3-5 1-7.6 1.8-3.8 5-6.6 9.4-8.6 4.5-2 9.8-2.9 16.1-2.7l0.6-7.1-24.5-4.2-2.3 4.7 3.2 2.6c-2.4 1.6-4.7 3.3-6.5 5.4-1.9 2.1-3.5 4.3-4.7 6.9-3 5.9-3.4 11.5-1.4 17 1.9 5.3 6 9.5 12.1 12.6z m-23.4 37.3c1.6-0.4 4.8 0 9.5 1.5l34.2 10.9-0.2 0.9c-1.2 3.5-3 6.2-5.8 7.9-2.7 1.7-6.7 2.9-12.1 3.6l0.6 6 20.8-0.3 14.7-45-16.7-12.2-4 4.5c4.1 3.6 6.6 6.9 7.7 9.8 1.2 3 1.2 6.2-0.1 9.8l-0.2 0.9-34.2-10.9c-4.8-1.6-7.7-2.9-8.7-4.3-1-1.4-1.1-3.2-0.4-5.8l-7.5-2.4-8.8 27.2 7.6 2.3c0.8-2.4 2-4 3.6-4.4zM89.1 469l0.4-0.1 49.7-6.9 2.5-12.9-41.4-24.4c-0.3-0.1-0.6-0.3-1.1-0.6-5.4-3.1-8.1-6.8-7.9-10.9l-7.8-1.4-4.5 23.5 7.6 1.5c0.5-2.4 1.2-3.9 2-4.7 0.9-0.7 2.2-1 3.7-0.6 0.2 0 0.5 0.1 0.8 0.2 0.3 0.1 0.6 0.2 1 0.3l8.2 4-3.3 17.3-9.3 1.3c-0.4 0.1-0.8 0.1-1.3 0.1-0.5-0.1-1-0.1-1.6-0.2-1.3-0.2-2.2-0.8-2.6-1.7-0.4-0.9-0.4-2.4 0-4.4l0.1-0.7-7.6-1.4-5.3 27.4 7.8 1.4c1.4-3.3 4.6-5.3 9.9-6.1z m20.5-28.6l17 9.5-19.1 1.9 2.1-11.4zM81.1 510c1.4-0.9 4.6-1.2 9.7-1l35.8 1.6v0.9c-0.1 3.7-1.3 6.7-3.5 9.2-2.1 2.3-5.6 4.5-10.7 6.5l2.2 5.6 20-5.6 2.1-47.3-19.3-7.4-2.7 5.3c4.8 2.5 8.1 5 10.1 7.5 1.8 2.6 2.7 5.7 2.5 9.4l-0.1 0.9-35.8-1.7c-5.1-0.2-8.3-0.8-9.5-1.9-1.4-0.9-2-2.8-1.9-5.5l-7.9-0.3-1.4 28.4 7.9 0.4c0.3-2.4 1.2-4 2.5-5z m22.1 80.2c-5.9-2.4-10.6-5.4-14.2-9.3-3.6-3.8-5.7-7.8-6.3-12.1-0.3-2.6 0-4.3 0.9-5.3s3-1.8 6.4-2.2l14.9-1.8 0.3 2.8c0.3 2.2-0.3 4.1-1.9 5.5-1.6 1.4-4.2 2.6-7.9 3.5l0.7 6 28.9-3.4-0.7-6c-4.1 0.3-6.9 0-8.3-0.9-1.3-0.8-2.2-2.7-2.6-5.6l-0.4-2.8 9.2-1c3.4-0.5 5.7-0.3 6.8 0.5 1 0.8 1.8 2.4 2.1 4.9 0.5 4.3-0.2 8.4-2.2 12.3-2 3.9-5.3 7.7-9.8 11.2l3.8 4.9 18.3-9.9-5.8-47.1-7.8 0.9c0.2 2.5-0.2 4.3-1.4 5.4-1.3 1.1-4.3 1.8-9.6 2.4L92.2 546c-5.2 0.6-8.5 0.6-10-0.1-1.4-0.8-2.3-2.4-2.6-5l-7.9 0.9 5.9 48.3 22.9 6 2.7-5.9z m23.3 87.3c1.5 0.3 3 1.6 4.5 3.9l6.9-2.7-9.6-24.8-7 2.7c0.8 2.4 1 4.3 0.3 5.7-0.5 1.4-1.9 2.5-4.1 3.3-3.1 1.3-6 1.3-8.6-0.1-2.7-1.2-4.6-3.5-5.9-6.8-1.6-4.1-0.9-8.1 2-11.7 3-3.7 8.1-6.9 15.3-9.6 7.5-2.9 13.6-3.9 18.4-3.3 4.9 0.8 8 3.2 9.7 7.3 1.3 3.3 1.2 6.8-0.2 10.2-1.4 3.5-4.4 7.6-8.8 12.2l5 5.2 18.4-12.7-1.9-5.1-2.9-0.2c0.3-2.5 0.3-4.8 0.1-6.9-0.3-2-0.8-4.1-1.5-6.1-3.1-7.9-8.5-13.3-16.3-16.2-7.8-2.9-16.1-2.6-25.1 0.8-9.7 3.8-16.5 9-20.7 15.6-4.1 6.7-4.7 13.7-1.8 21.1 1.2 3.1 2.8 5.8 4.6 7.9 1.9 2.1 4.2 4.1 7.1 5.7l-4.1 4.1 3.1 7.9 15.9-6.1c3.4-1.3 5.8-1.7 7.2-1.3z m56.9 18.8l-15.9-28.8-6.9 3.8c1.2 2.5 1.5 4.4 0.8 5.8-0.8 1.5-3.3 3.5-7.8 6l-21.8 11.7c-4.5 2.4-7.5 3.5-9.2 3.4-1.6-0.2-3.1-1.5-4.6-3.9l-6.9 3.8 13.9 25.2 7-3.7c-1.3-2.5-1.5-4.4-0.8-5.9s3.4-3.4 7.9-5.8l7.1-3.9 2.7 5-15.6 29.2 8.9 16.1 6.8-3.7c-0.9-1.9-1.2-3.7-1.1-5.4 0-1.6 0.6-3.5 1.7-5.7l8.5-17.8c3.5 3.3 6.9 5.2 10.4 5.8 3.5 0.5 7.1-0.2 11-2.2 5.2-2.8 8-6.6 8.6-11.5 0.7-4.6-0.8-10.5-4.7-17.5z m-6.8 9.5c-0.5 2.8-2.1 4.8-4.7 6.3-3 1.6-5.8 1.6-8.6 0.1-2.7-1.6-5.5-4.8-8-9.5-0.4-0.7-0.8-1.3-1-1.7-0.2-0.4-0.4-0.8-0.5-1.2l10.4-5.5c3-1.6 5.1-2.2 6.4-2 1.3 0.3 2.6 1.7 3.9 4.1 1.9 3.4 2.5 6.6 2.1 9.4z m-8.6 66.9c0.5-1.6 2.9-3.9 6.9-6.8l20.1-14.3c4-2.9 6.9-4.5 8.6-4.4 1.7 0 3.4 1.1 5.2 3.3l6.4-4.7-17.2-23.5-6.4 4.6c1.6 2.4 2 4.3 1.5 5.8-0.5 1.6-2.8 3.8-6.9 6.8l-20.1 14.4c-4 2.8-7 4.4-8.6 4.3-1.7 0-3.4-1.1-5.1-3.3l-6.5 4.6 17.2 23.5 6.4-4.5c-1.6-2.3-2.1-4.2-1.5-5.8z m68.8-1.6L219 749.4l-6.2 4.9c1.6 2 2.2 3.7 1.7 5.2-0.5 1.6-2.7 3.9-6.9 7.2l-19 15.3c-4.1 3.2-7 4.9-8.5 5-1.6 0.2-3.2-0.7-4.9-2.7l-6.2 4.9 17.8 21.9c6.9 8.3 14.1 13 22.1 13.9 7.9 1 15.9-1.7 23.9-8.2 8.1-6.5 12.5-13.6 13.2-21.4 0.5-7.8-2.5-15.9-9.2-24.3z m-3.2 18.7c-1.4 5.1-5 10.1-10.9 14.8-5.8 4.6-11.5 7.1-16.8 7.3-5.4 0.2-9.7-1.9-13.2-6.1-1.5-1.9-2.3-3.5-2.1-4.7 0.2-1.2 1.6-2.9 4.4-5.1l25.2-20.1c2.8-2.2 4.8-3.3 6-3.2 1.2 0.1 2.6 1.1 4.2 3 3.4 4.3 4.5 9 3.2 14.1z m73.7 72.2l8.3-23.2-3.7-2.7-3.2 2.5c-1.1-2.6-2.3-4.8-3.7-6.7-1.4-1.9-3.1-3.5-4.8-5-6.9-5.1-14.4-7-22.7-5.5-8.3 1.5-15.3 6.1-21.2 13.8-6.2 8.1-9 16.3-8.3 24.5 0.7 8.2 4.7 15.1 12.1 20.7 5.1 3.9 10.6 5.9 16.4 6.2 5.9 0.3 12-1.5 18.6-4.9l-3.6-6.9c-4.4 2.1-8.8 3.1-13.2 2.9-4.4 0-8-1.1-10.8-3.3-4.1-3.1-6.1-7.3-5.8-12.5 0.3-5.3 2.7-10.9 7.4-16.9 4.5-6 9.4-10 14.4-11.7 4.9-1.8 9.3-1.3 13.2 1.6 3 2.3 4.7 5.7 5.6 10.1 0.8 4.6 0.5 9.6-1 15.2l6 1.8z m59.4 11.4c-2.6-8-8-14-16.5-17.9-8.4-4-16.5-4.4-24.4-1.4-7.8 3.1-13.9 9.1-18.2 18.1-4.3 9-5.2 17.5-2.6 25.4 2.6 8 8 13.9 16.4 17.9 8.4 3.9 16.5 4.4 24.4 1.3 7.9-3.1 14-9.1 18.3-18 4.3-9 5.2-17.5 2.6-25.4z m-17.1 18.5c-3.4 7.2-7.3 12.1-11.6 15.1-4.3 2.8-8.7 3.3-12.9 1.2-4.4-2-6.8-5.6-7.3-10.7s1-11.2 4.4-18.5c3.5-7.2 7.4-12.2 11.7-15.1 4.3-2.8 8.7-3.3 13-1.3 4.3 2.1 6.6 5.6 7.1 10.8 0.5 5.2-1 11.3-4.4 18.5z m79.6 11.1c1.7-5.5 1-10.3-1.9-14.1-3-3.9-8.3-6.9-15.9-9.2l-31.8-9.4-2.2 7.4c2.6 0.9 4.2 2.2 4.7 3.7s0 4.7-1.4 9.6l-7.1 23.5c-1.5 4.8-2.8 7.7-4.1 8.7-1.2 0.9-3.3 1.2-6 0.5l-2.3 7.6 27.9 8.3 2.2-7.6c-2.6-0.8-4.2-2.1-4.7-3.6-0.5-1.6 0-4.8 1.4-9.6l2.4-7.7 5.5 1.7 9.7 31.6 17.8 5.2 2.3-7.3c-1.9-0.9-3.5-1.8-4.6-3-1.2-1.3-2.2-3-2.9-5.4l-6.6-18.6c4.9-0.1 8.6-1.1 11.6-3.1 2.7-1.9 4.7-5 6-9.2z m-14.9-4.1c-1 3.2-2.9 5.2-6 6-3.1 0.9-7.2 0.5-12.5-1.2-0.9-0.3-1.5-0.4-2-0.5-0.4-0.1-0.8-0.3-1.1-0.4l3.4-11.2c0.9-3.2 2-5.2 3.2-5.8 1.2-0.7 3.1-0.6 5.6 0.1 3.8 1.1 6.6 2.8 8.2 5.1 1.7 2.4 2.1 5 1.2 7.9z m57.4-7.1l-30.4-3.8-1 7.7c2.5 0.4 4.2 1.3 4.9 2.7 0.7 1.4 0.7 4.7 0.1 9.9l-3.1 24.2c-0.7 5.2-1.5 8.2-2.6 9.4-1.1 1.2-2.8 1.6-5.4 1.4l-1 7.8 28 3.5 0.9-7.7c-2.6-0.5-4.2-1.3-4.9-2.8-0.7-1.4-0.8-4.6-0.1-9.7l0.9-6.5 9.9 1.3c7 0.9 12.6 0.1 16.5-2.6 3.9-2.5 6.2-6.9 7.1-13 0.8-6.2-0.4-11.2-3.8-14.9-3.4-3.8-8.7-6-16-6.9z m4.7 19.2c-0.4 3.6-1.9 6.3-4.4 7.9-2.4 1.6-5.9 2.1-10.3 1.6-0.6-0.1-1.2-0.2-1.6-0.3-0.4-0.1-0.7-0.1-1.2-0.2l1.8-13.6c0.4-3.3 1.1-5.4 2-6.3 0.8-0.9 2.3-1.3 4.5-1 3.3 0.4 5.8 1.7 7.3 3.9 1.7 2 2.3 4.7 1.9 8z m80.3 14.4c-0.3-9.9-3.6-17.9-9.6-23.7-6-5.9-13.7-8.7-23-8.4-9.2 0.5-16.7 3.7-22.2 10-5.6 6.4-8.1 14.4-7.8 24.3s3.5 17.9 9.6 23.8c6 5.9 13.5 8.7 23 8.3 9.2-0.3 16.6-3.6 22.2-10 5.5-6.3 8.1-14.4 7.8-24.3z m-19.5 19.2c-2.4 4.5-6.1 6.9-10.9 7-4.8 0.2-8.6-1.9-11.5-6.2-2.8-4.3-4.3-10.4-4.6-18.3-0.3-7.9 0.8-14.2 3.3-18.7s6.1-6.8 10.9-7c4.8-0.1 8.5 1.9 11.4 6.2 2.8 4.4 4.5 10.5 4.7 18.4 0.4 7.9-0.7 14-3.3 18.6z m85.1-7.7c-1.6-0.6-3.3-1.7-4.9-3.5l-14.2-13.8c4.3-2.1 7.3-4.7 9-7.7 1.7-3.1 2.2-6.7 1.6-11.1-1-5.7-3.7-9.6-8-11.9-4.4-2.2-10.5-2.6-18.4-1.3l-32.7 5.3 1.3 7.8c2.7-0.4 4.7 0 5.8 1.2 1.2 1.2 2.2 4.2 3 9.2l4 24.2c0.8 5 0.9 8.3 0.1 9.6-0.7 1.5-2.4 2.5-5.1 3l1.3 7.7 28.6-4.6-1.3-7.7c-2.8 0.4-4.6-0.1-5.8-1.2-1.2-1.2-2.1-4.3-2.9-9.3l-1.3-7.9 5.7-0.9 22.7 24.3 18.3-3.1-1.2-7.5c-2.2 0.1-4-0.1-5.6-0.8z m-26.5-25.3c-2.4 2.1-6.2 3.5-11.7 4.4-0.9 0.1-1.6 0.3-2 0.4-0.5 0-0.9 0.1-1.3 0.1l-2-11.6c-0.5-3.3-0.4-5.5 0.3-6.7 0.8-1 2.5-1.9 5.2-2.2 3.9-0.6 7.1-0.3 9.5 1 2.5 1.4 4 3.6 4.5 6.6 0.8 3.2-0.1 6-2.5 8z m85.5-3.4l-0.3-0.3-32.3-38.2-12.3 4.7 1 47.7v1.2c0.1 6.2-1.6 10.4-5.2 12.5l2.9 7.3 22.5-8.6-2.8-7.1c-2.2 0.7-3.9 1-5.1 0.8-1.2-0.4-2-1.3-2.6-2.8-0.1-0.2-0.2-0.5-0.3-0.8-0.1-0.4-0.1-0.7-0.2-1l-0.9-9.1 16.6-6.3 6 7.1c0.3 0.3 0.5 0.7 0.7 1 0.3 0.5 0.4 0.9 0.7 1.4 0.4 1.2 0.4 2.2-0.2 3.1-0.5 0.8-1.8 1.6-3.6 2.3l-0.7 0.3 2.8 7.2 26.2-10-2.8-7.4c-3.2 0.8-6.7-0.9-10.1-5z m-35.4-2.1l-0.9-19.3 11.8 15.1-10.9 4.2z m76.2-9.9c-1.5-0.8-3.5-3.4-5.8-7.8L699.6 857l0.9-0.4c3.3-1.8 6.6-2.3 9.7-1.7 3.2 0.6 6.9 2.4 11.2 5.8l3.8-4.7-15.2-14.1-42.2 22 3.3 20.3 6-0.4c-0.3-5.4 0.2-9.6 1.5-12.5 1.2-2.9 3.5-5.2 6.9-7l0.8-0.4 16.7 31.5c2.4 4.4 3.5 7.4 3.3 9s-1.5 3.1-3.8 4.4l3.7 6.9 25.5-13.3-3.7-7c-2.5 1.4-4.5 1.5-5.9 0.8z m45.2-28c-1.7-0.5-3.9-2.9-6.7-7l-14-20.2c-2.8-4.1-4.2-7-4.2-8.7 0.1-1.6 1.2-3.3 3.5-5l-4.5-6.4-24.2 16.5 4.5 6.4c2.4-1.4 4.4-1.9 5.9-1.4 1.6 0.6 3.8 2.9 6.7 7l14 20.2c2.9 4.1 4.3 7 4.3 8.7-0.1 1.6-1.2 3.3-3.5 5l4.4 6.4 24.3-16.5-4.5-6.5c-2.4 1.6-4.5 2-6 1.5z m44.2-60.1c-5.9-7.9-13.1-12.8-21.4-14.2-8.3-1.5-16.2 0.5-23.7 6-7.5 5.6-11.7 12.5-12.6 20.8-0.9 8.3 1.6 16.3 7.6 24.3s13.2 12.7 21.5 14.2 16.2-0.5 23.7-6c7.4-5.5 11.6-12.4 12.6-20.8 0.9-8.2-1.6-16.4-7.7-24.3z m-9.8 38.6c-3.9 2.8-8.2 3.2-13 1.2-4.8-2-9.6-6.1-14.4-12.5-4.8-6.4-7.5-12.1-8-17.2s1.2-9.1 5-12c3.8-2.8 8.1-3.2 12.9-1.2 4.8 2 9.6 6.2 14.5 12.5 4.7 6.4 7.4 12.1 7.9 17.2 0.5 5.2-1.2 9.1-4.9 12z m112.9-150.9c-3.1-7.9-9.1-13.9-18.2-18.2-9.2-4.2-17.7-5.1-25.7-2.5-8.1 2.6-14 8.1-18 16.4-4 8.3-4.4 16.4-1.3 24.2 3.1 7.7 9.2 13.8 18.3 18 9 4.2 17.6 5.1 25.6 2.5 8.1-2.5 14.2-8 18.1-16.3 3.9-8.4 4.4-16.4 1.2-24.1z m-8.6 20.5c-2.1 4.3-5.7 6.7-10.8 7.2-5.2 0.5-11.4-0.9-18.7-4.3-7.3-3.4-12.4-7.3-15.3-11.5-3-4.3-3.3-8.5-1.3-12.8 2-4.2 5.6-6.6 10.7-7.1 5.3-0.5 11.5 0.9 18.8 4.3 7.3 3.4 12.3 7.2 15.2 11.4 3 4.3 3.4 8.6 1.4 12.8z m20.4-59.1c-1.6 0.5-4.7-0.1-9.5-1.8l-10.2-3.5 0.9-2.5c0.9-2.5 2.4-4.1 4.5-4.9 2.2-0.7 5-0.7 8.7 0.1l1.8-5.1-28.3-9.6-1.8 5.1c3.6 1.4 6 3 6.9 4.5 0.8 1.5 0.7 3.9-0.3 7.1l-0.9 2.5-8.4-2.9c-3.3-1.1-5.2-2.2-5.8-3.5-0.5-1.2-0.4-3.3 0.5-5.9 1.5-4.2 3.9-7.6 7.2-10.3 3.4-2.7 7.7-4.7 12.9-6l-1-5.8-20.2 1.9-15.8 45.4 7.4 2.5c1.1-2.5 2.5-4 4.1-4.5 1.5-0.6 4.6 0.1 9.4 1.8l23.5 7.9c4.8 1.7 7.7 3.2 8.6 4.5 0.9 1.4 0.9 3.3 0.2 6l7.5 2.6 9.6-27.6-7.5-2.6c-1 2.6-2.3 4.1-4 4.6z m30.7-105.5c-2.6-5.1-7.1-9.6-13.4-13.6l-4.4 6.5c4 2.8 7.1 6.2 9.1 10 2.2 3.9 3 7.5 2.5 11-0.7 5.2-3.4 8.8-8.1 11.2-4.8 2.3-10.9 3-18.6 1.9-7.5-1-13.3-3.2-17.4-6.6-4.1-3.4-5.8-7.5-5.1-12.2 0.5-3.6 2.4-6.9 6-9.8 3.6-3 8.2-5.2 13.8-6.6l-1.3-6.3-24.5 4.3-0.6 4.5 3.8 1.6c-1.8 2.2-3.1 4.4-4.1 6.5-1 2.1-1.7 4.3-2 6.5-1.2 8.5 1 15.9 6.4 22.3 5.4 6.3 13 10.2 22.6 11.4 10.2 1.4 18.6-0.3 25.6-4.9 6.9-4.7 11-11.6 12.2-20.6 1.2-6.2 0.2-11.9-2.5-17.1z m-9.7-78.1c-1.4 1-4.5 1.6-9.7 1.8l-24.6 1c-5.2 0.3-8.5-0.1-9.9-1-1.3-0.9-2.1-2.6-2.3-5.3l-7.9 0.3 1.2 28.6 7.6-0.4c0-2.6 0.6-4.4 2-5.4 1.3-1.1 4.5-1.6 9.7-1.8l6.5-0.3 0.9 21.7-6.4 0.3c-5.1 0.1-8.3-0.2-9.8-1-1.5-0.9-2.3-2.7-2.5-5.3l-7.6 0.3 1.2 28.5 7.9-0.3c0-2.6 0.6-4.4 2-5.4s4.5-1.6 9.7-1.8l24.7-1c5-0.1 8.3 0.1 9.7 1 1.4 0.9 2.2 2.6 2.4 5.3l7.9-0.3-1.2-28.4-7.7 0.3c0.1 2.7-0.6 4.5-1.8 5.4-1.3 0.9-4.5 1.6-9.7 1.8l-10.8 0.4-0.9-21.7 10.8-0.4c5.1-0.2 8.4 0.1 9.8 1 1.5 0.9 2.2 2.7 2.4 5.3l7.6-0.3-1.2-28.5-7.9 0.3c-0.2 2.5-0.9 4.3-2.1 5.3z m-5.5-39c-1.2 1.2-4.2 2.3-9.1 3.1l-24.4 4.3c-4.9 0.9-8.2 1-9.7 0.3-1.5-0.8-2.6-2.4-3.3-5.2l-7.8 1.4s0.8 3.4 2.4 13 2.8 15.6 2.8 15.6l7.8-1.4c-0.3-2.8 0-4.7 1.2-5.9 1.2-1.2 4.2-2.3 9.3-3.2l24.3-4.3c4.9-0.9 8.2-1 9.7-0.2 1.5 0.7 2.6 2.4 3.2 5.1l7.8-1.4-5.2-28.6-7.8 1.4c0.3 2.9 0 4.8-1.2 6z m-59.5-53.5c-1.6-0.5-2.8-2-3.6-4.6l-7.6 2.2 5.8 20.4 7.4-2.1c-0.6-2.6-0.4-4.5 0.7-5.8 1-1.1 4-2.4 8.9-3.8l16.6-4.7-29.9 29.1 6.6 23.4 7.8-2.1c-0.7-2.6-0.5-4.5 0.5-5.8 1.1-1.3 4.1-2.6 9-3.9l23.7-6.6c5-1.4 8.1-1.8 9.7-1.3 1.6 0.5 2.8 2.1 3.6 4.5l7.6-2-5.9-20.7-7.4 2.1c0.6 2.6 0.4 4.6-0.6 5.7-1.1 1.3-4.1 2.6-9 3.9l-28.7 8.1 40.2-39.4-2.9-10-42.8 11.9c-4.9 1.6-8.2 2.1-9.7 1.5z m-18.5-17.3l48.2-3.5c0.3 0 0.7-0.1 1.2-0.1 6.3-0.5 10.6 1.1 12.8 4.3l7.3-3.2-9.9-21.8-7.1 3.2c0.9 2.2 1.4 3.9 1.1 5-0.3 1.2-1.1 2-2.6 2.7-0.2 0.1-0.5 0.2-0.9 0.3-0.3 0.1-0.7 0.2-0.9 0.3l-9.2 1.4-7.3-16.1 6.9-6.3c0.3-0.2 0.6-0.5 1-0.7 0.4-0.3 0.9-0.5 1.4-0.7 1.2-0.5 2.2-0.6 3.2 0 0.8 0.5 1.6 1.8 2.5 3.5l0.2 0.6 7.2-3.1-11.6-25.4-7.3 3.2c1 3.2-0.4 6.7-4.3 10.4l-0.3 0.1-36.8 34 5.2 11.9z m26.6-21.7l4.8 10.6-19.4 2m-45.4 393.4c-0.5-1.6 0.1-3.5 1.8-5.6l-6.1-5-13.8 16.3 5.9 4.9c1.8-1.9 3.5-2.8 5.2-2.6 1.6 0.2 4.3 2 8.2 5.2l13.2 10.9-41.1-8.1-15.8 18.6 6 5.1c1.8-2 3.5-2.9 5.1-2.8 1.7 0.1 4.5 1.9 8.3 5.1l18.9 15.6c3.9 3.3 6.1 5.7 6.5 7.3 0.5 1.5-0.1 3.4-1.8 5.5l6.1 5.1 13.9-16.4-6-4.9c-1.8 1.9-3.6 2.8-5.2 2.7-1.7-0.2-4.4-1.9-8.3-5.1l-22.8-19 55.4 10.7 6.7-8-34-28.3c-3.7-3.3-5.9-5.7-6.3-7.2zM320.9 587.9c18.7 6.1 38.5 11.1 59.1 14.9-4.3-27.3-6.7-56.1-6.7-85.8 0.1-140.7 52.6-260.5 126-305.7-57.9 63.3-95.4 164.7-95.5 279 0 41.4 4.9 81.2 14 118.1 27.5 3.1 56.1 4.2 85.5 3 154.3-6 283.2-71.8 328.4-158.2-27.4-153-161-269.2-322-269.3h-0.3C400 214 317.1 355.3 317 525.2c0 21.5 1.4 42.4 3.9 62.7z m82.3 91.5c-5.2-15.7-9.6-32.2-13.1-49.4-21.5-4.8-41.8-10.8-60.5-17.8 2.8 16.9 6.4 33.3 10.9 49.2 19.7 7.1 40.7 13.2 62.7 18z m13.7 35.9c-21.6-2.8-42.4-6.7-62.1-11.5 16.1 40.8 37.7 76.3 63.3 104.4-35.3-21.8-65.7-60.8-87.8-111-48.6-14.7-89.6-35.5-118.9-60.6 48.2 120.5 166 205.6 303.8 205.7 7.6 0 15.2-0.3 22.7-0.8-49.5-14.2-92.3-60.6-121-126.2z" fill="#32716C" p-id="7891"></path><path d="M537.3 642.3c-37.2 1.5-73.2-0.4-106.8-5.1 5.4 17.5 11.7 34.3 18.9 50.2 24.2 3.1 49.3 4.8 75 4.9 118 0.1 222.7-34.5 288-87.8-46.7 67.6-170.2 116.1-315.4 116-10.4 0-20.7-0.3-30.9-0.8 32.4 55.9 76.6 96.4 127 113.3 142.6-34.7 248.6-162.7 249.6-315.7-45.2 67.9-164.1 119.5-305.4 125zM190.2 553c25 39.1 68 72.8 122.9 97.3-4.8-16-8.8-32.9-12.1-50.3-34.8-16.8-62.3-37.7-80-61.6 21.8 16.7 47.8 31.1 76.9 42.9-3.7-25.3-5.6-51.7-5.6-79 0.1-130.5 45.2-243 110.4-294.7C277.5 253.5 188.1 373.7 188 514.9c0 12.9 0.8 25.6 2.2 38.1z" fill="#32716C" p-id="7892"></path><path d="M167 515c0 192.3 155.9 348.2 348.3 348.2 192.3 0 348.2-155.9 348.2-348.2 0-192.4-155.9-348.3-348.2-348.3-192.4 0-348.3 156-348.3 348.3z m348.3-340.2c187.9 0 340.2 152.3 340.2 340.2 0 187.9-152.3 340.2-340.2 340.2-187.9 0-340.2-152.3-340.2-340.2 0-187.9 152.3-340.2 340.2-340.2z" fill="#32716C" p-id="7893"></path></svg>