<?xml version="1.0" standalone="no"?><!DOCTYPE svg PUBLIC "-//W3C//DTD SVG 1.1//EN" "http://www.w3.org/Graphics/SVG/1.1/DTD/svg11.dtd"><svg t="1746326411107" class="icon" viewBox="0 0 1024 1024" version="1.1" xmlns="http://www.w3.org/2000/svg" p-id="4675" xmlns:xlink="http://www.w3.org/1999/xlink" width="200" height="200"><path d="M699.054 894.366L445.199 735.077 329.627 849.846l44.747-157.984L887.1 163.88 312.472 651.791 106.888 522.795l780.212-358.919-188.042 730.488z m-351.013-572.48H470.902L348.042 374.78v-52.894z m675.961 0v-75.374C1024.002 109.707 917.446 0 782.929 0H698.092v224.077L617.622 258.72V0H242.634C108.115 0 0 109.707 0 246.514v75.372h195.143v80.472H0.002v376.276C0.002 915.44 108.117 1024 242.634 1024h374.985V878.093l80.471 51.27V1024h84.837C917.447 1024 1024.002 915.44 1024.002 778.634V402.358H851.747l20.717-80.472H1024.002z" fill="#0093FD" p-id="4676"></path></svg>