<?xml version="1.0" standalone="no"?><!DOCTYPE svg PUBLIC "-//W3C//DTD SVG 1.1//EN" "http://www.w3.org/Graphics/SVG/1.1/DTD/svg11.dtd"><svg t="1746284217098" class="icon" viewBox="0 0 1024 1024" version="1.1" xmlns="http://www.w3.org/2000/svg" p-id="2455" xmlns:xlink="http://www.w3.org/1999/xlink" width="200" height="200"><path d="M200.96 310.72256s-68.92544 66.048-72.704 135.86944v13.056c3.00544 56.38656 45.568 89.6 45.568 89.6 68.28544 66.816 233.66656 150.85056 272.512 169.856 0 0 2.24256 1.152 3.712-0.384l0.768-1.47456v-1.46944C344.77056 484.66944 201.088 310.656 201.088 310.656l-0.128 0.06656z m223.29344 465.152c-0.768-3.01056-3.70688-3.01056-3.70688-3.01056l-275.52256 9.728c29.824 53.376 80.256 94.39744 132.864 82.10944 35.84-9.344 118.016-66.432 144.896-85.888 2.24256-1.85344 1.46944-3.328 1.46944-3.328v0.38912z m3.01056-29.12256c-120.96-81.792-355.456-206.848-355.456-206.848a168.30976 168.30976 0 0 0-7.808 48.57344v2.56c0 40.00256 14.90944 67.968 14.90944 67.968a163.44576 163.44576 0 0 0 87.36256 82.11456c26.17344 11.19744 52.28544 11.58144 52.28544 11.58144 4.48512 0.768 164.22912 0 206.78656 0 1.92 0 3.00544-1.92 3.00544-1.92v-2.176c0-1.152-1.08544-1.92-1.08544-1.92v0.06656zM402.23744 200.576a127.67744 127.67744 0 0 0-96 117.57056v15.36c1.15712 22.39488 6.016 39.168 6.016 39.168 24.64256 108.288 144.06656 285.568 169.856 322.944 1.92 1.85344 3.712 1.08544 3.712 1.08544a3.72224 3.72224 0 0 0 2.24256-3.712c39.61344-395.70944-41.344-500.992-41.344-500.992-11.97056 0.768-44.416 8.576-44.416 8.576h-0.06656z m309.82656 84.736S693.76 218.112 620.99456 200.192c0 0-21.31456-5.18656-43.71456-8.192 0 0-81.34656 104.89344-41.79456 501.376 0.384 2.56 2.24256 2.944 2.24256 2.944 2.56 1.152 3.712-1.09056 3.712-1.09056 26.88-38.46144 145.60256-215.04 169.856-322.56 0 0 13.44-52.28544 0.768-87.35744z m-108.98944 487.936s-2.62656 0-3.39456 1.92c0 0-0.32256 2.56 1.152 3.64544 26.112 19.072 106.368 74.69056 144.83456 85.888 0 0 5.94944 1.92 16 2.24256h5.30944c25.728-0.768 70.912-13.824 112-84.352l-276.29056-9.344h0.38912zM895.36 459.264c5.248-76.86656-72.448-148.16256-72.448-148.54656 0 0-143.67744 173.952-248.96 403.2 0 0-1.152 2.944 0.768 4.80256l1.47456 0.384h2.23744c39.552-19.77344 203.84256-103.424 271.744-169.472 0 0 42.94144-34.74944 45.184-90.368z m56.76544 79.93856s-234.42944 125.75744-355.38944 207.16544c0 0-1.92 1.46944-1.152 4.096 0 0 1.152 2.23744 2.62656 2.23744 43.32544 0 207.54944 0 211.64544-0.768 0 0 21.31456-0.70144 47.42656-10.81344 0 0 58.23488-18.62656 88.50944-84.736 0 0 27.19744-54.144 6.33344-117.18144z" fill="#D40000" p-id="2456"></path></svg>