<?xml version="1.0" standalone="no"?><!DOCTYPE svg PUBLIC "-//W3C//DTD SVG 1.1//EN" "http://www.w3.org/Graphics/SVG/1.1/DTD/svg11.dtd"><svg t="1736507097375" class="icon" viewBox="0 0 1024 1024" version="1.1" xmlns="http://www.w3.org/2000/svg" p-id="12534" xmlns:xlink="http://www.w3.org/1999/xlink" width="200" height="200"><path d="M321.237333 373.461333h-30.08v40.149334h30.122667c16.042667 0 24.106667-8.021333 24.106667-20.096-0.042667-14.037333-10.069333-20.053333-24.149334-20.053334z m-136.533333 12.032c0-10.026667-8.021333-14.037333-20.096-14.037333h-30.08v30.122667h28.117333c14.037333-2.005333 22.058667-6.016 22.058667-16.085334z m265.045333 48.213334h36.138667l-18.048-46.208z m-281.088 0h-36.138666v30.122666h36.138666c14.037333 0 22.101333-6.016 22.101334-16.042666s-8.064-14.08-22.101334-14.08zM0 0v1024h1024V0H0z m359.424 128.512h146.56v40.149333h-50.176v126.506667H409.6V168.661333H359.424v-40.149333z m-10.069333 0v38.144h-88.32v26.112H341.333333v36.138667H261.034667v26.112h90.368v40.149333H216.832l-2.005333-166.656h134.528z m-112.426667 325.248c0 28.117333-24.106667 46.165333-62.250667 46.165333H88.362667V333.312h86.314666c20.096 0 36.138667 6.016 46.165334 14.037333 6.058667 6.016 10.069333 16.085333 10.069333 28.117334 0 20.096-10.026667 30.122667-26.112 38.144 20.096 6.016 32.128 18.090667 32.128 40.149333zM114.432 240.938667c8.021333 10.026667 16.042667 16.042667 26.112 16.042666 12.032 0 18.090667-8.021333 18.090667-24.106666V126.506667H204.8v106.410666c0 20.096-6.016 36.138667-16.042667 46.165334s-26.112 16.085333-46.208 16.085333c-30.122667 2.005333-46.165333-10.069333-58.197333-26.112l30.08-28.117333z m357.418667 654.549333H88.362667v-64.256h383.488v64.256z m38.144-393.514667l-12.032-30.122666h-64.256l-12.032 30.122666h-48.213334l0.853334-2.005333h-28.970667l-34.133333-50.176h-20.053334v50.176H244.949333V333.312h78.293334c26.112 0 42.154667 6.016 54.229333 18.090667 10.026667 10.026667 14.037333 22.101333 14.037333 38.144 0 26.112-14.037333 42.154667-34.133333 52.224l25.813333 37.461333 62.506667-145.877333h44.16l70.272 168.661333h-50.133333z m102.4-2.005333h-46.165334V333.312h46.165334v166.656z m168.661333 0h-40.149333L670.634667 409.6v92.373333h-46.165334V333.312h42.154667l68.266667 88.362667V333.312h46.165333v166.656z m82.304 2.005333a106.154667 106.154667 0 0 1-78.293333-26.112l26.112-30.122666c16.042667 14.037333 34.133333 20.096 54.229333 20.096 12.032 0 20.096-4.010667 20.096-12.032s-6.016-10.026667-28.117333-16.042667c-36.138667-8.021333-62.250667-18.090667-62.250667-52.224 0-30.122667 24.106667-54.229333 64.256-54.229333 28.117333 0 50.176 8.021333 68.266667 22.101333l-24.106667 32.128c-16.085333-10.069333-32.128-16.085333-46.208-16.085333-12.032 0-16.042667 4.010667-16.042667 10.026666 0 8.021333 6.016 10.026667 28.117334 16.042667 38.144 8.021333 62.250667 20.096 62.250666 52.224-0.042667 34.133333-26.112 54.229333-68.309333 54.229333z" p-id="12535"></path></svg>