<?xml version="1.0" standalone="no"?><!DOCTYPE svg PUBLIC "-//W3C//DTD SVG 1.1//EN" "http://www.w3.org/Graphics/SVG/1.1/DTD/svg11.dtd"><svg t="1736506866883" class="icon" viewBox="0 0 1288 1024" version="1.1" xmlns="http://www.w3.org/2000/svg" p-id="8558" xmlns:xlink="http://www.w3.org/1999/xlink" width="251.5625" height="200"><path d="M1221.738005 241.016455h-1004.590711A102.165382 102.165382 0 0 0 118.607823 319.933347L1.298929 945.722974A65.266403 65.266403 0 0 0 69.764666 1023.786711h1013.975421a97.899604 97.899604 0 0 0 93.207249-78.063737L1286.364541 319.933347a63.986669 63.986669 0 0 0-64.626536-78.916892z" p-id="8559"></path><path d="M224.825695 248.694855a100.459071 100.459071 0 0 0-95.980005 76.784004L13.882974 939.750885a63.986669 63.986669 0 0 0 67.186003 76.570715h306.709436l149.302229-767.840034z" fill="#103F91" p-id="8560"></path><path d="M1210.433693 248.694855H921.000658l-140.770673 767.840034H1074.995243a95.766715 95.766715 0 0 0 90.434492-76.570715l108.350761-614.272027a63.986669 63.986669 0 0 0-63.346803-76.997292z" fill="#2B7CD3" p-id="8561"></path><path d="M511.699263 248.694855l-146.102896 767.840034h430.843575l145.889606-767.840034H511.699263z" fill="#185ABD" p-id="8562"></path><path d="M221.413072 910.103728a31.993335 31.993335 0 0 1-19.196001-57.588002l313.534681-235.684233L274.09543 405.248906a32.185295 32.185295 0 1 1 42.65778-48.203291l258.079567 225.233077a45.643824 45.643824 0 0 1 16.209956 36.68569 46.49698 46.49698 0 0 1-18.982712 35.619246L240.609073 903.705061a31.993335 31.993335 0 0 1-19.196001 6.398667zM581.018155 871.285149h416.979795M997.784662 903.278484H580.804866a31.993335 31.993335 0 0 1 0-63.98667h416.979796a31.993335 31.993335 0 0 1 0 63.98667z" fill="#FFFFFF" p-id="8563"></path><path d="M1198.276226 255.946678v268.530723A29.647157 29.647157 0 0 1 1169.268936 554.551135H651.403491a29.647157 29.647157 0 0 1-29.00729-30.073734V255.946678z" p-id="8564"></path><path d="M1176.947336 255.946678v249.548011a27.300979 27.300979 0 0 1-26.661112 27.727556h-479.900021a27.300979 27.300979 0 0 1-26.661112-27.727556V255.946678z" p-id="8565"></path><path d="M665.05398 0m25.594668 0l460.70402 0q25.594668 0 25.594668 25.594668l0 460.70402q0 25.594668-25.594668 25.594668l-460.70402 0q-25.594668 0-25.594668-25.594668l0-460.70402q0-25.594668 25.594668-25.594668Z" fill="#185ABD" p-id="8566"></path><path d="M729.04065 85.315559h106.644449a121.148094 121.148094 0 0 1 48.203291 8.531556 89.581337 89.581337 0 0 1 33.059779 23.461779 93.847115 93.847115 0 0 1 18.982712 34.126224 139.064362 139.064362 0 0 1 6.185378 42.657779 144.396584 144.396584 0 0 1-5.545511 40.524891 93.420537 93.420537 0 0 1-18.556134 33.486357 91.714226 91.714226 0 0 1-32.206624 22.821912 120.934805 120.934805 0 0 1-47.136846 8.318267h-51.829203v145.036451h-57.801291z m57.801291 56.948136v101.738804h47.563425a65.266403 65.266403 0 0 0 22.608623-3.625911 40.73818 40.73818 0 0 0 24.314934-26.021245 72.731514 72.731514 0 0 0 0-40.524891 44.790669 44.790669 0 0 0-8.958134-16.636534 40.311602 40.311602 0 0 0-15.3568-10.877734 56.948136 56.948136 0 0 0-21.32889-4.052489zM1115.093556 258.719433a4.265778 4.265778 0 0 1-3.199334-1.279733 11.304312 11.304312 0 0 1-1.706311-3.199333v-3.839201a10.237867 10.237867 0 0 0-1.279734-3.8392 71.66507 71.66507 0 0 0-11.091022-11.944178 77.850448 77.850448 0 0 0-14.716934-10.024578 91.287648 91.287648 0 0 0-17.063112-6.611956 63.986669 63.986669 0 0 0-17.916268-2.559467 78.063737 78.063737 0 0 0-14.503645 1.279734 42.65778 42.65778 0 0 0-12.370756 4.052489 24.954801 24.954801 0 0 0-8.318267 7.251822 18.129556 18.129556 0 0 0-3.199333 10.877734 22.821912 22.821912 0 0 0 3.412622 12.370756 32.206624 32.206624 0 0 0 10.024578 8.958134 83.609248 83.609248 0 0 0 16.849823 7.6784c6.825245 2.559467 14.716934 5.118934 23.888357 7.891689a144.823162 144.823162 0 0 1 62.280358 34.552802 68.465736 68.465736 0 0 1 19.835868 48.41658 85.315559 85.315559 0 0 1-7.038534 34.552801 90.434493 90.434493 0 0 1-21.32889 28.794001 97.899604 97.899604 0 0 1-31.780046 19.835868 118.588627 118.588627 0 0 1-42.657779 7.251822 138.851073 138.851073 0 0 1-55.241825-10.877733 140.344095 140.344095 0 0 1-45.643824-34.766091l29.433868-60.360758a6.398667 6.398667 0 0 1 4.479067 4.052489c0 2.346178 2.132889 5.545511 3.625911 9.811289a49.269735 49.269735 0 0 0 11.517601 14.077068 107.924182 107.924182 0 0 0 14.930222 12.797334 97.899604 97.899604 0 0 0 19.196001 8.958133 56.948136 56.948136 0 0 0 19.196001 3.412623 61.213914 61.213914 0 0 0 31.353468-6.611956 21.32889 21.32889 0 0 0 11.091023-19.835868 28.794001 28.794001 0 0 0-2.346178-11.730889 26.874401 26.874401 0 0 0-7.891689-9.384712 55.241825 55.241825 0 0 0-13.863779-8.318267c-5.7588-2.559467-13.010623-5.118934-21.328889-7.891689l-14.077068-4.692356c-4.692356-1.493022-9.171423-3.412622-13.863778-5.332222a158.68694 158.68694 0 0 1-24.741512-13.437201 85.315559 85.315559 0 0 1-18.342846-16.636534 63.986669 63.986669 0 0 1-11.5176-21.328889 83.18267 83.18267 0 0 1-4.052489-26.021246 62.706936 62.706936 0 0 1 8.531556-28.367423 82.329515 82.329515 0 0 1 19.40929-25.594668 93.633826 93.633826 0 0 1 29.433868-18.556134 95.340137 95.340137 0 0 1 36.472401-7.251823 114.109561 114.109561 0 0 1 50.122891 11.091023 118.801916 118.801916 0 0 1 42.65778 35.619246z" fill="#FFFFFF" p-id="8567"></path></svg>