<svg width="1437" height="1436" xmlns="http://www.w3.org/2000/svg" xmlns:xlink="http://www.w3.org/1999/xlink" xml:space="preserve" overflow="hidden"><g transform="translate(-1482 -520)"><path d="M1484.5 1003.44C1484.5 737.826 1699.83 522.5 1965.44 522.5L2435.56 522.5C2701.17 522.5 2916.5 737.826 2916.5 1003.44L2916.5 1472.56C2916.5 1738.17 2701.17 1953.5 2435.56 1953.5L1965.44 1953.5C1699.83 1953.5 1484.5 1738.17 1484.5 1472.56Z" stroke="#98062D" stroke-width="4.58333" stroke-miterlimit="8" fill="#98062D" fill-rule="evenodd"/><path d="M2255.54 793.183 2375.94 793.183 2505.98 1181.9C2504.6 1164.93 2503 1145.32 2501.16 1123.08 2499.33 1100.83 2497.84 1078.59 2496.69 1056.34 2495.54 1034.1 2494.97 1015.18 2494.97 999.583L2494.97 793.183 2585.78 793.183 2585.78 1295.42 2465.38 1295.42 2336.73 906.703C2338.1 921.38 2339.48 938.81 2340.86 958.991 2342.23 979.172 2343.49 999.583 2344.64 1020.22 2345.79 1040.86 2346.36 1059.21 2346.36 1075.26L2346.36 1295.42 2255.54 1295.42ZM1810.54 793.183 1913.74 793.183 1913.74 1147.5C1913.74 1168.6 1919.13 1184.77 1929.91 1196.01 1940.69 1207.24 1955.94 1212.86 1975.66 1212.86 1994.93 1212.86 2010.06 1207.24 2021.07 1196.01 2032.08 1184.77 2037.58 1168.6 2037.58 1147.5L2037.58 793.183 2140.78 793.183 2140.78 1148.19C2140.78 1195.43 2125.99 1232.93 2096.41 1260.68 2066.82 1288.43 2026.58 1302.3 1975.66 1302.3 1924.75 1302.3 1884.5 1288.54 1854.92 1261.02 1825.34 1233.5 1810.54 1195.89 1810.54 1148.19Z" stroke="#F5F5F7" stroke-width="3" stroke-linejoin="round" stroke-miterlimit="10" fill="#F5F5F7" fill-rule="evenodd"/><text fill="#000000" fill-opacity="0" font-family="Arial,Arial_MSFontService,sans-serif" font-size="509.12" x="1810.54" y="1238.66">UN</text><path d="M2469.1 1553.11 2469.1 1639.79 2510.47 1639.79C2524.84 1639.79 2536.13 1635.97 2544.34 1628.35 2552.56 1620.72 2556.67 1610.16 2556.67 1596.67 2556.67 1583.17 2552.56 1572.54 2544.34 1564.77 2536.13 1556.99 2524.84 1553.11 2510.47 1553.11ZM2469.1 1425.07 2469.1 1501.19 2507.83 1501.19C2520.73 1501.19 2530.85 1497.74 2538.19 1490.85 2545.52 1483.95 2549.19 1474.64 2549.19 1462.91 2549.19 1450.88 2545.52 1441.57 2538.19 1434.97 2530.85 1428.37 2520.73 1425.07 2507.83 1425.07ZM2405.31 1371.83 2508.71 1371.83C2530.12 1371.83 2548.82 1375.27 2564.81 1382.17 2580.79 1389.06 2593.26 1398.67 2602.21 1410.99 2611.15 1423.31 2615.62 1437.83 2615.62 1454.55 2615.62 1472.73 2610.64 1487.91 2600.67 1500.09 2590.69 1512.26 2577.79 1519.52 2561.95 1521.87L2561.95 1522.75C2573.97 1523.92 2584.6 1528.1 2593.84 1535.29 2603.08 1542.47 2610.27 1551.64 2615.41 1562.79 2620.54 1573.93 2623.1 1586.4 2623.1 1600.19 2623.1 1618.67 2618.49 1634.87 2609.25 1648.81 2600.01 1662.74 2587.1 1673.59 2570.53 1681.37 2553.95 1689.14 2534.67 1693.03 2512.67 1693.03L2405.31 1693.03ZM2099.67 1371.83 2165.67 1371.83 2165.67 1598.43C2165.67 1611.92 2169.11 1622.26 2176.01 1629.45 2182.9 1636.63 2192.65 1640.23 2205.27 1640.23 2217.59 1640.23 2227.27 1636.63 2234.31 1629.45 2241.35 1622.26 2244.86 1611.92 2244.86 1598.43L2244.86 1371.83 2310.86 1371.83 2310.86 1598.87C2310.86 1629.08 2301.41 1653.06 2282.49 1670.81 2263.57 1688.55 2237.83 1697.43 2205.27 1697.43 2172.71 1697.43 2146.97 1688.63 2128.05 1671.03 2109.12 1653.43 2099.67 1629.37 2099.67 1598.87ZM1798.31 1371.83 1864.31 1371.83 1864.31 1496.79 1938.23 1496.79 1938.23 1371.83 2004.23 1371.83 2004.23 1693.03 1938.23 1693.03 1938.23 1556.19 1864.31 1556.19 1864.31 1693.03 1798.31 1693.03Z" stroke="#F5F5F7" stroke-width="3" stroke-linejoin="round" stroke-miterlimit="10" fill="#F5F5F7" fill-rule="evenodd"/><text fill="#000000" fill-opacity="0" font-family="Arial,Arial_MSFontService,sans-serif" font-size="325.6" x="1798.31" y="1656.73">HUB</text></g></svg>