<?xml version="1.0" standalone="no"?><!DOCTYPE svg PUBLIC "-//W3C//DTD SVG 1.1//EN" "http://www.w3.org/Graphics/SVG/1.1/DTD/svg11.dtd"><svg t="1746936692354" class="icon" viewBox="0 0 1024 1024" version="1.1" xmlns="http://www.w3.org/2000/svg" p-id="1606" xmlns:xlink="http://www.w3.org/1999/xlink" width="200" height="200"><path d="M845.88544 0H181.30944A186.88 186.88 0 0 0 0.06144 191.488v641.536C0.06144 940.544 78.90944 1024 179.77344 1024h664.576C945.21344 1024 1024.06144 940.032 1024.06144 833.024V191.488C1024.06144 83.968 945.72544 0 845.88544 0z m158.208 833.024c0 94.72-70.144 168.96-159.744 168.96H179.26144c-89.6 0-159.744-74.24-159.744-168.96V191.488A163.84 163.84 0 0 1 181.30944 22.016h664.576c88.576 0 158.208 74.24 158.208 168.96v642.048z" fill="#000000" p-id="1607"></path><path d="M845.88544 22.016H181.30944a163.84 163.84 0 0 0-161.28 168.96v642.048c0 94.72 70.144 168.96 159.744 168.96h664.576c89.6 0 159.744-74.24 159.744-168.96V191.488c0-95.232-69.632-169.472-158.208-169.472z" fill="#FCAF17" p-id="1608"></path><path d="M850.49344 609.28h-128L701.50144 470.016l-75.264 138.24h-14.336a128 128 0 0 1-11.776-53.76c0-23.552 1.536-46.592 1.536-76.8 0-40.448-10.752-61.44-39.424-69.632V407.04c61.44-9.216 89.088-53.248 89.088-115.2 0-88.576-54.272-107.52-124.928-107.52H336.44544L256.06144 599.04h101.376L386.62144 447.488h67.072c35.84 0 51.2 18.944 51.2 55.808 0 27.648-3.072 49.664-3.072 71.168 0 7.68 1.536 26.112 6.656 33.28l73.216 83.968-62.976 146.944 134.656-86.528 99.84 83.456-18.944-138.24 116.224-88.576zM484.41344 370.688H403.51744L422.97344 270.336h74.752c26.624 0 54.272 7.68 54.272 43.008 0 45.056-31.232 57.344-67.584 57.344z" fill="#000000" p-id="1609"></path><path d="M793.14944 629.76h-85.504l-14.336-100.864-54.272 99.84H553.02144l52.224 59.904-43.008 99.84 93.696-60.416 74.24 61.44-13.824-101.376 76.8-58.368z" fill="#FFFFFF" p-id="1610"></path></svg>