<svg width="473" height="473" xmlns="http://www.w3.org/2000/svg" xmlns:xlink="http://www.w3.org/1999/xlink" xml:space="preserve" overflow="hidden"><defs><clipPath id="clip0"><rect x="1964" y="1008" width="473" height="473"/></clipPath></defs><g clip-path="url(#clip0)" transform="translate(-1964 -1008)"><path d="M2146 1185C2146 1216.48 2171.52 1242 2203 1242 2234.48 1242 2260 1216.48 2260 1185 2260 1153.52 2234.48 1128 2203 1128 2171.52 1128 2146 1153.52 2146 1185Z" fill="#1E88E5" fill-rule="evenodd"/><path d="M2354 1390.58C2354 1382.52 2350.17 1374.92 2343.71 1370.35 2321.52 1354.55 2273.71 1328 2202.97 1328 2137.67 1328 2103.64 1346.76 2076.28 1361.81 2073.79 1363.16 2071.43 1364.5 2069.08 1365.78 2058.52 1371.49 2052 1382.45 2052 1394.48L2052 1428.23C2092.68 1461.24 2144.53 1481 2200.95 1481 2259.32 1481 2312.71 1459.82 2354 1424.8L2354 1390.58Z" fill="#1E88E5" fill-rule="evenodd"/><path d="M2057.17 1343.88C2059.45 1342.68 2061.8 1341.33 2064.22 1340.06 2092.43 1324.56 2131.12 1303.29 2202.59 1303.29 2280.11 1303.29 2333.17 1332.07 2357.36 1350.12 2374.02 1362.54 2377.51 1381.19 2378.05 1391.93 2378.18 1394.82 2381.74 1395.96 2383.55 1393.74 2418.42 1351.2 2438.7 1296.37 2436.89 1236.72 2432.99 1111.37 2329.68 1009.91 2204.14 1008.03 2071.88 1006.01 1964 1112.58 1964 1244.23 1964 1303.15 1985.63 1357.04 2021.36 1398.37 2023.78 1401.19 2028.35 1400.18 2029.36 1396.63 2033.52 1381.73 2043.4 1351.33 2057.17 1343.88ZM2202.59 1095.53C2252.1 1095.53 2292.27 1135.66 2292.27 1185.12 2292.27 1234.57 2252.1 1274.7 2202.59 1274.7 2153.09 1274.7 2112.92 1234.57 2112.92 1185.12 2112.92 1135.66 2153.02 1095.53 2202.59 1095.53Z" fill="#64B5F6" fill-rule="evenodd"/></g></svg>