<?xml version="1.0" standalone="no"?><!DOCTYPE svg PUBLIC "-//W3C//DTD SVG 1.1//EN" "http://www.w3.org/Graphics/SVG/1.1/DTD/svg11.dtd"><svg t="1740981585594" class="icon" viewBox="0 0 6465 1024" version="1.1" xmlns="http://www.w3.org/2000/svg" p-id="3171" xmlns:xlink="http://www.w3.org/1999/xlink" width="1262.6953125" height="200"><path d="M1247.45985898 137.5431831c-12.65615508-6.35620254-18.16861377 5.73745693-25.53730839 11.86866123-2.53123066 2.02498506-4.72496484 4.55621572-6.86244815 6.97494815-18.56236113 20.24984795-40.21844854 33.46849864-68.51198671 31.89351005-41.39968974-2.36248242-76.72442432 10.91241826-107.99918966 43.19967657-6.58120078-39.82470117-28.68728467-63.56202364-62.2682833-78.8619085-17.60611816-7.93119023-35.32473545-15.86238135-47.64339228-33.13100214-8.54993584-12.26240771-10.91241826-25.98730489-15.18738663-39.43095382-2.75622891-8.15618847-5.45620869-16.48112607-14.62489013-17.88736552-10.01242529-1.57498857-13.89364541 6.97494727-17.83111641 14.06239453-15.5811331 29.19353115-21.6560874 61.31204033-21.03734179 93.82429599 1.34998945 73.12445156 31.6122627 131.45526386 91.68681181 172.85495362 6.86244815 4.78121396 8.66243496 9.56242792 6.46870167 16.48112607-4.04996924 14.28739277-8.99993232 28.12478906-13.27490069 42.41218184-2.69997979 9.11243145-6.74994902 11.13741651-16.36862696 7.14369639A276.0729293 276.0729293 0 0 1 841.73165175 348.87284844c-42.7496792-42.18718359-81.39313916-88.81808379-129.59902792-125.26781045-11.13741651-8.43743672-22.61233037-16.42487695-34.31224248-24.01856983-49.27463086-48.76838437 6.41245166-88.81808379 19.29360498-93.59929775 13.44364893-4.94996309 4.66871484-21.93733565-38.86845821-21.7685874-43.53717305 0.16874912-83.3618751 15.07488662-134.15524365 34.87473897a151.48011357 151.48011357 0 0 1-23.17482598 6.91869814 469.68397734 469.68397734 0 0 0-143.9426707-5.11871221c-94.10554424 10.68742002-169.25498086 56.08082901-224.49206602 133.59274805C66.10621924 347.74785722 50.46883613 453.60956269 69.59369287 563.97123565c20.08109971 116.43662636 78.29941289 212.73590479 167.73624229 288.11033877 92.69930479 78.07441465 199.51725322 116.38037724 321.35384003 109.01168261 73.96819541-4.33121748 156.37382753-14.4561419 249.29812969-94.78053896 23.45607422 11.92491035 48.03713964 16.6498752 88.87433379 20.24984795 31.38726445 2.98122803 61.64953769-1.57498857 85.10561192-6.52495167 36.6747249-7.93119023 34.14349424-42.63718008 20.86859355-48.99338261-107.54919316-51.18711592-83.9243707-30.37477237-105.41170987-47.1933958 54.67458955-66.0370043 137.02397256-134.60524013 169.31122998-356.84732373 2.53123066-17.66236729 0.33749737-28.74353467 1e-8-43.03092656-0.22499825-8.71868497 1.68748769-12.09365947 11.47491386-13.10615245a205.31096016 205.31096016 0 0 0 77.11817168-24.18731807c69.69322705-38.81220908 97.87426612-102.65548008 104.4554669-179.21115615 1.01249209-11.69991211-0.16874912-23.79357158-12.31865772-29.92477588zM640.07691435 826.26301778C535.84644658 742.61989531 485.27807539 715.05760185 464.35323271 716.23884307c-19.51860322 1.18124121-15.97488047 24.01856982-11.69991299 38.8684582 4.49996661 14.62489013 10.34992266 24.74981455 18.56236114 37.68721787 5.62495781 8.49368672 9.56242792 21.20609092-5.68120693 30.71226973-33.58099776 21.20609092-91.96806006-7.14369638-94.66804073-8.54993585-67.94949023-40.78094414-124.76156396-94.72428984-164.81126338-168.467487A522.55858096 522.55858096 0 0 1 141.31190498 418.05982988c-1.01249209-19.68735234 4.66871484-26.60605049 23.79357158-30.20602412 25.14356104-4.89371308 50.96211768-5.56870781 76.33067784-1.96873506 106.42420195 15.86238135 197.04227256 64.4620166 272.97920214 141.35519004 43.3121748 43.87467129 76.10567959 96.18677842 109.91167559 147.37389434 35.94348018 54.28084307 74.58694102 106.03045459 123.74907188 148.44263731 17.43736904 14.84988838 31.27476533 26.15605401 44.54966601 34.48099071-40.04969941 4.55621572-106.81794844 5.56870781-152.49260567-31.33101445z m50.00587471-328.10378906c0-8.71868497 6.80619902-15.6373831 15.41238487-15.63738224q2.92497803 0 5.28746044 0.95624209a15.52488398 15.52488398 0 0 1 9.9561753 14.68114015 15.46863398 15.46863398 0 0 1-15.41238487 15.69363222 15.29988487 15.29988487 0 0 1-15.24363574-15.69363222zM845.27537539 579.49611875c-9.95617529 4.16246836-19.91235059 7.762442-29.47477852 8.15618848a61.31204033 61.31204033 0 0 1-39.82470205-12.93740244c-13.66864717-11.64366299-23.45607422-18.22486289-27.56229258-38.64345997a89.83057588 89.83057588 0 0 1 0.78749385-29.92477587c3.54372364-16.6498752-0.39374737-27.33729521-11.86866122-37.06847227-9.39367969-7.93119023-21.31859004-10.12492441-34.36849249-10.12492353a27.44979434 27.44979434 0 0 1-12.7124042-3.937471 12.99365244 12.99365244 0 0 1-5.62495781-18.22486289c1.34998945-2.81247891 7.98744023-9.56242792 9.56242793-10.68742002 17.77486641-10.34992266 38.24971348-6.97494727 57.2058211 0.73124472 17.54986816 7.31244551 30.82476885 20.81234356 49.94962558 39.8809503 19.51860322 23.00607773 23.06232685 29.30603028 34.14349424 46.57465107 8.83118408 13.49989893 16.87487344 27.33729521 22.27483213 43.19967569 3.37497451 9.95617529-0.95624297 18.05611465-12.48740596 23.06232773z m2466.7127499 184.83611396h-62.54953066v-96.91802313h62.54953066c38.64345996 0 77.79316641-9.56242792 103.16172569-36.39347755 25.36856016-26.88729873 34.64973984-68.2869876 34.64974072-109.23667998 0-40.89344326-9.28118057-82.12438388-34.64974072-108.95543349-25.31231016-26.88729873-64.51826572-36.39347666-103.16172569-36.39347666-38.9247082 0-77.84941641 9.56242792-103.21797568 36.39347666-25.5935584 26.88729873-34.64973984 68.06198935-34.64974073 108.95543349v398.47201084h-109.68667734V279.46086875h109.68667734v40.66844502h20.08109971c2.02498506-2.2499833 4.27496836-4.49996661 6.74994903-6.74994903 27.39354433-25.14356104 69.35572969-33.91849599 111.03666767-33.91849599 64.51826572 0 129.54277881 16.03112959 171.95495977 60.74954473 42.18718359 44.71841425 57.54331846 113.51164834 57.54331846 181.79863681 0 68.06198935-15.35613487 136.85522344-57.54331846 181.51738857-42.41218183 44.9996625-107.43669404 60.74954473-171.95495977 60.74954385zM1641.4881541 296.27949307h62.49328067v96.91802314H1641.4881541c-38.69970997 0-77.84941641 9.56242792-103.21797657 36.67472491-25.31231016 26.83104873-34.64973984 68.06198935-34.64973984 108.95543261 0 40.89344326 9.28118057 82.12438388 34.64973984 108.95543262 25.36856016 26.88729873 64.51826572 36.6747249 103.21797657 36.6747249 38.9247082 0 77.84941641-9.78742617 103.21797569-36.6747249 25.5935584-26.83104873 34.64973984-68.06198935 34.64973984-108.95543262v-398.24701347h109.68667734V781.4321044h-109.68667734v-40.94969327h-20.08109883a43.48092393 43.48092393 0 0 1-6.80619903 6.74994991c-27.39354433 25.14356104-69.29948057 34.19974336-110.98041767 34.19974336-64.51826572 0-129.54277881-16.08737959-172.01120977-61.0307921C1427.28976075 675.68289717 1411.989875 607.11466133 1411.989875 538.82767373s15.29988487-136.85522344 57.48706934-181.79863681c42.46843184-44.66216513 107.43669404-60.74954473 172.01120976-60.74954385z m798.46276113 233.99824482v38.9247082h-292.27280801V491.35302969h193.8360463c-4.49996661-28.3497873-14.79363925-54.73083955-32.90600303-73.79944629-26.60605049-27.89979083-66.99324727-37.91221523-107.43669405-37.91221611-40.16219854 0-80.88689356 10.01242529-107.21169579 37.9122161-26.38105224 27.56229346-35.94348018 70.31197266-35.94348106 112.7241545 0 42.46843184 9.56242792 85.10561192 35.94348106 113.00540274 26.32480224 27.84354083 67.04949727 37.68721699 107.21169579 37.68721699 40.38719677 0 80.83064355-9.84367617 107.43669405-37.68721699a124.87406308 124.87406308 0 0 0 10.06867441-12.8249042h108.44918701c-9.28118057 33.63724776-24.58106543 64.06826924-47.19339668 87.91809081-44.21216865 46.40590195-111.7116624 62.99952714-178.76115879 62.99952716s-134.60524013-16.59362519-178.53616142-62.99952716c-44.21216865-46.46215195-60.0183-117.56161846-60.0183-188.09858935s15.80613135-141.58018828 60.0183-188.04233935c43.93092041-46.23715283 111.48666416-62.77452891 178.53616142-62.77452979s134.54899102 16.53737607 178.76115879 62.77452979c44.21216865 46.46215195 60.0183 117.50536846 60.0183 188.04233935z m550.62712003 0v38.9247082h-292.27280713V491.35302969h194.06104453c-4.49996661-28.3497873-14.79363925-54.73083955-33.13100215-73.79944629-26.32480224-27.89979083-66.76824902-37.91221523-107.2116958-37.91221611-40.16219854 0-80.83064355 10.01242529-107.2116958 37.9122161-26.32480224 27.56229346-35.88723106 70.31197266-35.88723105 112.7241545 0 42.46843184 9.56242792 85.10561192 35.88723105 113.00540274 26.38105224 27.84354083 67.04949727 37.68721699 107.2116958 37.68721699 40.49969589 0 80.88689356-9.84367617 107.2116958-37.68721699 3.76872187-4.04996924 7.31244551-8.2686876 10.34992266-12.8249042h108.44918701c-9.56242792 33.63724776-24.63731543 64.06826924-47.2496458 87.91809081-44.15591865 46.40590195-111.7116624 62.99952714-178.76115967 62.99952716-66.99324727 0-134.54899102-16.59362519-178.76115879-62.99952716-43.93092041-46.46215195-59.73705175-117.56161846-59.73705264-188.09858935s15.80613135-141.58018828 59.73705264-188.04233935c44.21216865-46.23715283 111.76791152-62.77452891 178.76115879-62.77452979 67.04949727 0 134.60524013 16.53737607 178.81740878 62.77452979 43.87467129 46.46215195 59.73705175 117.50536846 59.73705177 188.04233935z m863.26227597 251.09811651c67.04949727 0 134.54899102-9.78742617 178.47991143-37.1247214 44.21216865-27.39354433 60.0183-69.35572969 60.0183-111.03666679 0-41.62468799-15.80613135-83.58687334-60.0183-110.98041767-43.87467129-27.33729521-111.43041416-37.12472138-178.47991143-37.12472227h2.2499833c-28.68728467 0-57.48706846-3.76872187-76.10567959-14.62489014a47.2496458 47.2496458 0 0 1-25.59355752-42.91842744c0-16.31237783 6.74994902-32.34350742 25.59355752-43.14342656 18.56236113-10.57492089 47.47464404-14.34364277 76.10567959-14.34364278s57.48706846 3.76872187 76.33067695 14.34364278a47.2496458 47.2496458 0 0 1 25.31231016 43.14342656h111.7679124c0-41.62468799-14.28739277-83.58687334-53.9995957-110.98041767-39.93720029-27.33729521-100.91174326-37.12472138-161.66128711-37.12472227s-121.78033682 9.78742617-161.71753711 37.12472227c-39.93720029 27.39354433-54.22459307 69.29948057-54.22459307 110.98041767 0 41.68093711 14.28739277 83.64312246 54.22459307 110.9804168 39.93720029 27.39354433 100.91174326 37.18097138 161.71753711 37.18097138 31.6122627 0 66.0370043 3.76872187 86.84934873 14.34364277 20.81234356 10.5186709 28.12478906 26.83104873 28.12478906 43.14342657 0 16.08737959-7.31244551 32.39975742-28.12478906 42.97467744-20.81234356 10.5186709-52.7058545 14.51239102-84.37436719 14.51239102-31.6122627 0-63.56202364-3.93747011-84.09311982-14.51239102-20.81234356-10.57492089-28.3497873-26.88729873-28.3497873-42.97467744H3615.28585068c0 41.68093711 15.80613135 83.64312246 59.73705176 110.98041767 44.21216865 27.39354433 111.48666416 37.12472138 178.81740879 37.12472139z m789.18158145-251.09811651v38.9247082h-292.32905801V491.35302969h194.11729453c-4.49996661-28.3497873-14.79363925-54.73083955-33.18725127-73.79944629-26.32480224-27.89979083-66.76824902-37.91221523-107.15544668-37.91221611-40.16219854 0-80.88689356 10.01242529-107.2116958 37.9122161-26.38105224 27.56229346-35.94348018 70.31197266-35.94348017 112.7241545 0 42.46843184 9.56242792 85.10561192 35.94348017 113.00540274 26.32480224 27.84354083 67.04949727 37.68721699 107.2116958 37.68721699 40.38719677 0 80.83064355-9.84367617 107.2116958-37.68721699a99.56175293 99.56175293 0 0 0 10.29367354-12.8249042h108.44918613c-9.56242792 33.63724776-24.58106543 64.06826924-47.1933958 87.91809081-44.21216865 46.40590195-111.7116624 62.99952714-178.76115967 62.99952716s-134.60524013-16.59362519-178.76115879-62.99952716c-43.98717041-46.46215195-59.79330176-117.56161846-59.79330176-188.09858935s15.80613135-141.58018828 59.79330176-188.04233935c44.15591865-46.23715283 111.7116624-62.77452891 178.76115879-62.77452979s134.54899102 16.53737607 178.76115967 62.77452979c43.93092041 46.46215195 59.73705175 117.50536846 59.73705176 188.04233935z m550.85211826 0v38.9247082h-292.27280801V491.35302969h194.06104453c-4.72496484-28.3497873-14.79363925-54.73083955-33.07475215-73.79944629-26.43730137-27.89979083-67.04949727-37.91221523-107.26794492-37.91221611-40.16219854 0-80.83064355 10.01242529-107.2116958 37.9122161-26.60605049 27.56229346-35.88723106 70.31197266-35.88723105 112.7241545 0 42.46843184 9.28118057 85.10561192 35.88723105 113.00540274 26.38105224 27.84354083 67.04949727 37.68721699 107.2116958 37.68721699 40.21844854 0 80.88689356-9.84367617 107.26794492-37.68721699 3.71247188-4.04996924 6.97494727-8.2686876 10.23742354-12.8249042h108.50543613c-9.56242792 33.63724776-24.63731543 64.06826924-47.47464404 87.91809081-43.93092041 46.40590195-111.48666416 62.99952714-178.53616055 62.99952716-66.99324727 0-134.83023838-16.59362519-178.76115966-62.99952716-43.93092041-46.46215195-59.73705175-117.56161846-59.73705177-188.09858935s15.80613135-141.58018828 59.73705177-188.04233935c43.93092041-46.23715283 111.76791152-62.77452891 178.76115966-62.77452979 67.04949727 0 134.60524013 16.53737607 178.53616055 62.77452979 44.21216865 46.46215195 60.0183 117.50536846 60.0183 188.04233935zM5267.72970723 118.24957812h109.74292646v663.2950254h-109.74292646V118.24957812z m296.99777197 396.95327315l180.0549 266.17300313h-136.12397871l-179.99865-266.17300313 179.99865-213.41089952h136.12397871l-179.99865 213.41089952z" fill="#1296db" p-id="3172"></path></svg>