<svg width="3816" height="605" xmlns="http://www.w3.org/2000/svg" xmlns:xlink="http://www.w3.org/1999/xlink" xml:space="preserve" overflow="hidden"><defs><clipPath id="clip0"><rect x="292" y="935" width="3816" height="605"/></clipPath></defs><g clip-path="url(#clip0)" transform="translate(-292 -935)"><path d="M1088.04 985.795C1079.53 981.523 1075.83 989.652 1070.89 993.774 1069.19 995.135 1067.72 996.837 1066.28 998.463 1053.82 1012.07 1039.27 1020.96 1020.27 1019.9 992.474 1018.31 968.75 1027.24 947.752 1048.94 943.333 1022.17 928.486 1006.21 905.938 995.929 894.115 990.598 882.217 985.266 873.945 973.658 868.203 965.415 866.617 956.188 863.747 947.151 861.896 941.669 860.083 936.073 853.926 935.128 847.203 934.069 844.596 939.816 841.953 944.581 831.49 964.205 827.41 985.795 827.826 1007.65 828.732 1056.81 849.054 1096.02 889.393 1123.85 894.002 1127.06 895.211 1130.27 893.737 1134.93 891.018 1144.53 887.694 1153.83 884.823 1163.44 883.01 1169.56 880.29 1170.92 873.832 1168.24 852.004 1158.65 832.229 1144.94 815.588 1127.85 786.881 1099.5 760.932 1068.15 728.562 1043.65 721.083 1037.98 713.377 1032.61 705.521 1027.5 672.433 994.719 709.827 967.797 718.477 964.583 727.504 961.255 721.612 949.836 692.376 949.95 663.141 950.063 636.398 960.083 602.29 973.393 597.235 975.356 592.031 976.911 586.728 978.044 554.877 971.929 522.274 970.768 490.07 974.603 426.878 981.787 376.415 1012.3 339.323 1064.41 294.753 1127.1 284.252 1198.26 297.095 1272.45 310.579 1350.72 349.673 1415.45 409.73 1466.12 471.978 1518.6 543.706 1544.35 625.52 1539.4 675.19 1536.49 730.526 1529.68 792.925 1475.69 808.675 1483.7 825.182 1486.88 852.604 1489.3 873.681 1491.3 894.002 1488.24 909.753 1484.91 934.382 1479.58 932.683 1456.25 923.766 1451.98 851.546 1417.57 867.41 1431.56 852.982 1420.25 889.696 1375.86 944.992 1329.77 966.675 1180.38 968.374 1168.5 966.903 1161.05 966.675 1151.45 966.527 1145.59 967.81 1143.32 974.377 1142.64 992.548 1140.71 1010.15 1135.18 1026.16 1126.38 1072.97 1100.29 1091.89 1057.37 1096.31 1005.91 1096.99 998.046 1096.19 989.917 1088.04 985.795ZM680.176 1448.76C610.184 1392.54 576.228 1374.01 562.177 1374.8 549.07 1375.6 551.449 1390.95 554.32 1400.93 557.342 1410.76 561.27 1417.57 566.785 1426.27 570.562 1431.98 573.206 1440.52 562.97 1446.91 540.42 1461.17 501.213 1442.11 499.4 1441.16 453.772 1413.75 415.622 1377.49 388.729 1327.92 362.66 1280.75 347.784 1228.21 345.253 1174.36 344.573 1161.13 348.389 1156.48 361.231 1154.06 378.115 1150.77 395.452 1150.31 412.487 1152.73 483.951 1163.4 544.802 1196.07 595.793 1247.76 624.878 1277.25 646.899 1312.41 669.6 1346.82 693.736 1383.31 719.685 1418.1 752.698 1446.61 764.407 1456.59 773.699 1464.19 782.613 1469.79 755.719 1472.85 710.885 1473.53 680.213 1448.73ZM713.755 1228.21C713.755 1222.35 718.325 1217.7 724.104 1217.7 725.414 1217.7 726.597 1217.91 727.655 1218.34 731.726 1219.9 734.394 1223.84 734.341 1228.21 734.424 1233.95 729.842 1238.67 724.106 1238.76 724.067 1238.76 724.029 1238.76 723.991 1238.76 718.317 1238.74 713.733 1234.12 713.752 1228.44 713.752 1228.36 713.753 1228.28 713.755 1228.21ZM817.967 1282.88C811.282 1285.68 804.596 1288.1 798.175 1288.37 788.518 1288.7 779.051 1285.62 771.432 1279.67 762.254 1271.84 755.682 1267.42 752.925 1253.69 751.975 1247.01 752.154 1240.2 753.453 1233.58 755.833 1222.38 753.188 1215.2 745.483 1208.66 739.176 1203.33 731.168 1201.85 722.405 1201.85 719.385 1201.68 716.454 1200.78 713.869 1199.21 709.523 1197.12 707.691 1191.9 709.776 1187.55 709.873 1187.35 709.978 1187.15 710.091 1186.95 710.998 1185.06 715.455 1180.53 716.512 1179.77 728.448 1172.81 742.197 1175.08 754.926 1180.26 766.711 1185.18 775.625 1194.25 788.467 1207.07 801.574 1222.54 803.954 1226.77 811.395 1238.38 817.325 1247.45 822.727 1256.76 826.353 1267.42 828.619 1274.11 825.711 1279.56 817.967 1282.92ZM2474.37 1407.13 2432.37 1407.13 2432.37 1341.98 2474.37 1341.98C2500.32 1341.98 2526.61 1335.56 2543.65 1317.52 2560.68 1299.44 2566.91 1271.62 2566.91 1244.09 2566.91 1216.6 2560.68 1188.88 2543.65 1170.85 2526.65 1152.77 2500.32 1146.38 2474.37 1146.38 2448.23 1146.38 2422.1 1152.81 2405.06 1170.85 2387.88 1188.92 2381.79 1216.6 2381.79 1244.09L2381.79 1511.95 2308.14 1511.95 2308.14 1081.19 2381.79 1081.19 2381.79 1108.53 2395.28 1108.53C2396.64 1107.02 2398.15 1105.51 2399.81 1103.99 2418.2 1087.09 2446.39 1081.19 2474.37 1081.19 2517.7 1081.19 2561.36 1091.97 2589.84 1122.03 2618.17 1152.09 2628.48 1198.34 2628.48 1244.24 2628.48 1289.99 2618.17 1336.24 2589.84 1366.26 2561.36 1396.51 2517.7 1407.1 2474.37 1407.1ZM1352.63 1092.5 1394.59 1092.5 1394.59 1157.65 1352.63 1157.65C1326.64 1157.65 1300.35 1164.08 1283.32 1182.3 1266.32 1200.34 1260.05 1228.06 1260.05 1255.55 1260.05 1283.03 1266.28 1310.75 1283.32 1328.79 1300.35 1346.86 1326.64 1353.44 1352.63 1353.44 1378.76 1353.44 1404.9 1346.86 1421.94 1328.79 1439.12 1310.75 1445.21 1283.03 1445.21 1255.55L1445.21 987.837 1518.86 987.837 1518.86 1418.63 1445.21 1418.63 1445.21 1391.1 1431.72 1391.1C1430.37 1392.78 1428.84 1394.3 1427.15 1395.64 1408.76 1412.54 1380.62 1418.63 1352.63 1418.63 1309.3 1418.63 1265.64 1407.81 1237.12 1377.6 1208.79 1347.54 1198.52 1301.45 1198.52 1255.55 1198.52 1209.64 1208.79 1163.55 1237.12 1133.34 1265.64 1103.31 1309.26 1092.5 1352.63 1092.5ZM1888.8 1249.8 1888.8 1275.96 1692.54 1275.96 1692.54 1223.63 1822.69 1223.63C1819.67 1204.57 1812.76 1186.84 1800.6 1174.02 1782.73 1155.27 1755.61 1148.54 1728.45 1148.54 1701.49 1148.54 1674.14 1155.27 1656.46 1174.02 1638.75 1192.55 1632.33 1221.29 1632.33 1249.8 1632.33 1278.35 1638.75 1307.01 1656.46 1325.76 1674.14 1344.48 1701.49 1351.1 1728.45 1351.1 1755.58 1351.1 1782.73 1344.48 1800.6 1325.76 1803.04 1323.04 1805.3 1320.16 1807.36 1317.14L1880.19 1317.14C1873.95 1339.75 1863.68 1360.21 1848.49 1376.24 1818.81 1407.44 1773.48 1418.59 1728.45 1418.59 1683.43 1418.59 1638.07 1407.44 1608.57 1376.24 1578.88 1345.01 1568.27 1297.21 1568.27 1249.8 1568.27 1202.38 1578.88 1154.63 1608.57 1123.39 1638.07 1092.31 1683.43 1081.19 1728.45 1081.19 1773.48 1081.19 1818.81 1092.31 1848.49 1123.39 1878.18 1154.63 1888.8 1202.38 1888.8 1249.8ZM2258.55 1249.8 2258.55 1275.96 2062.29 1275.96 2062.29 1223.63 2192.6 1223.63C2189.58 1204.57 2182.66 1186.84 2170.35 1174.02 2152.67 1155.27 2125.51 1148.54 2098.35 1148.54 2071.38 1148.54 2044.07 1155.27 2026.36 1174.02 2008.69 1192.55 2002.26 1221.29 2002.26 1249.8 2002.26 1278.35 2008.69 1307.01 2026.36 1325.76 2044.07 1344.48 2071.38 1351.1 2098.35 1351.1 2125.55 1351.1 2152.67 1344.48 2170.35 1325.76 2172.88 1323.04 2175.26 1320.2 2177.3 1317.14L2250.12 1317.14C2243.7 1339.75 2233.58 1360.21 2218.39 1376.24 2188.74 1407.44 2143.38 1418.59 2098.35 1418.59 2053.37 1418.59 2008 1407.44 1978.31 1376.24 1948.82 1345.01 1938.21 1297.21 1938.21 1249.8 1938.21 1202.38 1948.82 1154.63 1978.31 1123.39 2008 1092.31 2053.37 1081.19 2098.35 1081.19 2143.38 1081.19 2188.74 1092.31 2218.43 1123.39 2247.9 1154.63 2258.55 1202.38 2258.55 1249.8ZM2838.23 1418.59C2883.25 1418.59 2928.58 1412.01 2958.08 1393.63 2987.77 1375.22 2998.38 1347.01 2998.38 1318.99 2998.38 1291.01 2987.77 1262.81 2958.08 1244.39 2928.62 1226.01 2883.25 1219.43 2838.23 1219.43L2839.74 1219.43C2820.47 1219.43 2801.13 1216.9 2788.63 1209.6 2777.88 1204.05 2771.21 1192.86 2771.45 1180.75 2771.45 1169.79 2775.98 1159.01 2788.63 1151.75 2801.1 1144.64 2820.51 1142.11 2839.74 1142.11 2858.96 1142.11 2878.34 1144.64 2890.99 1151.75 2901.73 1157.38 2908.32 1168.63 2907.99 1180.75L2983.04 1180.75C2983.04 1152.77 2973.45 1124.56 2946.78 1106.15 2919.96 1087.77 2879.02 1081.19 2838.23 1081.19 2797.43 1081.19 2756.45 1087.77 2729.63 1106.15 2702.82 1124.56 2693.22 1152.73 2693.22 1180.75 2693.22 1208.77 2702.82 1236.98 2729.63 1255.36 2756.45 1273.77 2797.39 1280.35 2838.23 1280.35 2859.45 1280.35 2882.57 1282.88 2896.55 1289.99 2910.52 1297.06 2915.43 1308.03 2915.43 1318.99 2915.43 1329.81 2910.52 1340.77 2896.55 1347.88 2882.57 1354.95 2861.15 1357.64 2839.89 1357.64 2818.66 1357.64 2797.21 1354.99 2783.42 1347.88 2769.45 1340.77 2764.38 1329.81 2764.38 1318.99L2678.04 1318.99C2678.04 1347.01 2688.65 1375.22 2718.15 1393.6 2747.84 1412.01 2793.02 1418.55 2838.23 1418.55ZM3368.16 1249.8 3368.16 1275.96 3171.86 1275.96 3171.86 1223.63 3302.22 1223.63C3299.2 1204.57 3292.29 1186.84 3279.93 1174.02 3262.26 1155.27 3235.09 1148.54 3207.98 1148.54 3181.01 1148.54 3153.66 1155.27 3135.99 1174.02 3118.27 1192.55 3111.85 1221.29 3111.85 1249.8 3111.85 1278.35 3118.27 1307.01 3135.99 1325.76 3153.66 1344.48 3181.01 1351.1 3207.98 1351.1 3235.09 1351.1 3262.26 1344.48 3279.97 1325.76 3282.51 1323.08 3284.82 1320.2 3286.88 1317.14L3359.7 1317.14C3353.28 1339.75 3343.2 1360.21 3328.02 1376.24 3298.33 1407.44 3253 1418.59 3207.98 1418.59 3162.95 1418.59 3117.59 1407.44 3087.94 1376.24 3058.4 1345.01 3047.78 1297.21 3047.78 1249.8 3047.78 1202.38 3058.4 1154.63 3087.94 1123.39 3117.59 1092.31 3162.95 1081.19 3207.98 1081.19 3253 1081.19 3298.33 1092.31 3328.02 1123.39 3357.51 1154.63 3368.13 1202.38 3368.13 1249.8ZM3738.06 1249.8 3738.06 1275.96 3541.8 1275.96 3541.8 1223.63 3672.11 1223.63C3668.94 1204.57 3662.18 1186.84 3649.91 1174.02 3632.15 1155.27 3604.88 1148.54 3577.88 1148.54 3550.91 1148.54 3523.6 1155.27 3505.88 1174.02 3488.01 1192.55 3481.78 1221.29 3481.78 1249.8 3481.78 1278.35 3488.01 1307.01 3505.88 1325.76 3523.6 1344.48 3550.91 1351.1 3577.88 1351.1 3604.88 1351.1 3632.19 1344.48 3649.91 1325.76 3652.4 1323.04 3654.59 1320.2 3656.78 1317.14L3729.64 1317.14C3723.22 1339.75 3713.1 1360.21 3697.77 1376.24 3668.26 1407.44 3622.9 1418.59 3577.88 1418.59 3532.89 1418.59 3487.34 1407.44 3457.84 1376.24 3428.34 1345.01 3417.72 1297.21 3417.72 1249.8 3417.72 1202.38 3428.34 1154.63 3457.84 1123.39 3487.34 1092.31 3532.89 1081.19 3577.88 1081.19 3622.9 1081.19 3668.26 1092.31 3697.77 1123.39 3727.45 1154.63 3738.06 1202.38 3738.06 1249.8ZM3787.66 972.826 3861.35 972.826 3861.35 1418.7 3787.66 1418.7 3787.66 972.826ZM3987.1 1239.66 4108 1418.59 4016.6 1418.59 3895.72 1239.66 4016.6 1096.21 4108 1096.21 3987.13 1239.66Z" fill="#4D6BFE" fill-rule="evenodd"/></g></svg>