<?xml version="1.0" standalone="no"?><!DOCTYPE svg PUBLIC "-//W3C//DTD SVG 1.1//EN" "http://www.w3.org/Graphics/SVG/1.1/DTD/svg11.dtd"><svg t="1739196328314" class="icon" viewBox="0 0 1024 1024" version="1.1" xmlns="http://www.w3.org/2000/svg" p-id="4189" xmlns:xlink="http://www.w3.org/1999/xlink" width="200" height="200"><path d="M275.6 782c-8.5 0-16.6-3.4-22.6-9.4l-138-138c-12.5-12.5-12.5-32.8 0-45.3l398.6-398.6c8.9-8.9 33.5-29.5 71.2-29.5 26.9 0 52.2 10.5 71.2 29.5l40.9 40.9c39.2 39.2 39.2 103.1 0 142.4L654 417C538.2 532.7 418.5 652.3 298.2 772.6c-6 6-14.1 9.4-22.6 9.4z m-92.7-170l92.7 92.7c112.7-112.7 224.7-224.6 333.2-333l42.9-42.9c14.3-14.3 14.3-37.7 0-51.9L610.8 236c-6.9-6.9-16.1-10.7-26-10.7-14.5 0-24.2 8.9-26 10.7L182.9 612z" p-id="4190" fill="#707070"></path><path d="M96.7 822.9c-8.4 0-16.6-3.3-22.6-9.4-8.1-8.1-11.2-19.9-8.3-30.9l47.6-177.5c3-11 11.6-19.7 22.6-22.6 11-3 22.8 0.2 30.9 8.3l130 129.9c8.1 8.1 11.2 19.9 8.3 30.9-3 11-11.6 19.7-22.6 22.6L105 821.8c-2.8 0.7-5.5 1.1-8.3 1.1z m64.2-147.7L142 745.6l70.5-18.9-51.6-51.5zM607.2 419.2c-8.3 0-16.6-3.2-22.8-9.6L463.1 286.1c-12.4-12.6-12.2-32.9 0.4-45.3 12.6-12.4 32.9-12.2 45.3 0.4L630 364.8c12.4 12.6 12.2 32.9-0.4 45.3-6.2 6-14.3 9.1-22.4 9.1zM922.9 813.3H402.1c-17.7 0-32-14.3-32-32s14.3-32 32-32h520.8c17.7 0 32 14.3 32 32s-14.3 32-32 32z" p-id="4191" fill="#707070"></path><path d="M922.9 677.3H599.6c-17.7 0-32-14.3-32-32s14.3-32 32-32h323.3c17.7 0 32 14.3 32 32s-14.3 32-32 32z" p-id="4192" fill="#707070"></path><path d="M921.9 543.8H725.6c-17.7 0-32-14.3-32-32s14.3-32 32-32h196.3c17.7 0 32 14.3 32 32s-14.3 32-32 32z" p-id="4193" fill="#707070"></path></svg>