<svg width="749" height="751" xmlns="http://www.w3.org/2000/svg" xmlns:xlink="http://www.w3.org/1999/xlink" xml:space="preserve" overflow="hidden"><g transform="translate(-1826 -519)"><rect x="2166.5" y="726.5" width="67.9998" height="338" stroke="#C40D2E" stroke-width="4.58333" stroke-miterlimit="8" fill="#C40D2E"/><rect x="2031.5" y="861.5" width="338" height="68.0001" stroke="#C40D2E" stroke-width="4.58333" stroke-miterlimit="8" fill="#C40D2E"/><rect x="1997.5" y="590.5" width="68" height="339" stroke="#C40D2E" stroke-width="4.58333" stroke-miterlimit="8" fill="#C40D2E"/><rect x="2335.5" y="861.5" width="68" height="338" stroke="#C40D2E" stroke-width="4.58333" stroke-miterlimit="8" fill="#C40D2E"/><rect x="1896.5" y="1030.5" width="338" height="68.0001" stroke="#C40D2E" stroke-width="4.58333" stroke-miterlimit="8" fill="#C40D2E"/><rect x="2166.5" y="692.5" width="338" height="67.9997" stroke="#C40D2E" stroke-width="4.58333" stroke-miterlimit="8" fill="#C40D2E"/><rect x="1997.5" y="521.5" width="270" height="68.0001" stroke="#C40D2E" stroke-width="4.58333" stroke-miterlimit="8" fill="#C40D2E"/><rect x="2133.5" y="1199.5" width="270" height="68.0001" stroke="#C40D2E" stroke-width="4.58333" stroke-miterlimit="8" fill="#C40D2E"/><rect x="1828.5" y="827.5" width="68.0001" height="271" stroke="#C40D2E" stroke-width="4.58333" stroke-miterlimit="8" fill="#C40D2E"/><rect x="2504.5" y="692.5" width="68" height="270" stroke="#C40D2E" stroke-width="4.58333" stroke-miterlimit="8" fill="#C40D2E"/><rect x="1997.5" y="1030.5" width="68" height="237" stroke="#C40D2E" stroke-width="4.58333" stroke-miterlimit="8" fill="#C40D2E"/><rect x="2335.5" y="523.5" width="68" height="237" stroke="#C40D2E" stroke-width="4.58333" stroke-miterlimit="8" fill="#C40D2E"/><rect x="1828.5" y="692.5" width="237" height="67.9997" stroke="#C40D2E" stroke-width="4.58333" stroke-miterlimit="8" fill="#C40D2E"/><rect x="2335.5" y="1030.5" width="237" height="68.0001" stroke="#C40D2E" stroke-width="4.58333" stroke-miterlimit="8" fill="#C40D2E"/><rect x="1828.5" y="1199.5" width="237" height="68.0001" stroke="#C40D2E" stroke-width="4.58333" stroke-miterlimit="8" fill="#C40D2E"/><rect x="2335.5" y="521.5" width="237" height="68.0001" stroke="#C40D2E" stroke-width="4.58333" stroke-miterlimit="8" fill="#C40D2E"/><rect x="1828.5" y="521.5" width="68.0001" height="237" stroke="#C40D2E" stroke-width="4.58333" stroke-miterlimit="8" fill="#C40D2E"/><rect x="2504.5" y="1030.5" width="68" height="237" stroke="#C40D2E" stroke-width="4.58333" stroke-miterlimit="8" fill="#C40D2E"/></g></svg>