<svg width="18" height="18" viewBox="0 0 18 18" fill="none" xmlns="http://www.w3.org/2000/svg">
<path fill-rule="evenodd" clip-rule="evenodd" d="M11.6315 6.83446C11.7678 6.83446 11.9025 6.83932 12.0356 6.84884C11.6521 4.95072 9.56569 3.5 7.04932 3.5C4.26066 3.5 2 5.28166 2 7.47945C2 8.75592 2.67424 9.79485 3.85995 10.523C3.95688 10.5988 3.89302 10.9805 3.66836 11.6683C3.63915 11.7489 3.65579 11.8088 3.71831 11.8481C3.78082 11.8874 3.84284 11.8927 3.90437 11.864C4.73942 11.3567 5.23134 11.1233 5.38012 11.1639C5.96023 11.3471 6.3862 11.4589 7.04932 11.4589C7.18592 11.4589 7.32126 11.4546 7.45513 11.4462C7.3003 11.0914 7.21624 10.7105 7.21624 10.3142C7.21624 8.39241 9.19304 6.83446 11.6315 6.83446ZM6.08953 6.20524C6.08953 6.57334 5.77192 6.87175 5.38012 6.87175C4.98833 6.87175 4.67071 6.57334 4.67071 6.20524C4.67071 5.83714 4.98833 5.53873 5.38012 5.53873C5.77192 5.53873 6.08953 5.83714 6.08953 6.20524ZM9.46966 6.20524C9.46966 6.57334 9.15204 6.87175 8.76025 6.87175C8.36845 6.87175 8.05084 6.57334 8.05084 6.20524C8.05084 5.83714 8.36845 5.53873 8.76025 5.53873C9.15204 5.53873 9.46966 5.83714 9.46966 6.20524ZM13.2098 13.565C12.7246 13.7184 12.3683 13.8121 11.8136 13.8121C9.48119 13.8121 7.59036 12.3195 7.59036 10.4783C7.59036 8.63712 9.48119 7.14453 11.8136 7.14453C14.1461 7.14453 16 8.65888 16 10.5001C16 11.5695 15.473 12.4181 14.4812 13.0281C14.4002 13.0915 14.4536 13.4113 14.6415 13.9875C14.6659 14.055 14.652 14.1053 14.5997 14.1382C14.5474 14.1711 14.4956 14.1755 14.4441 14.1515C13.7456 13.7265 13.3342 13.531 13.2098 13.565ZM12.6164 9.41085C12.6164 9.71923 12.8821 9.96922 13.2098 9.96922C13.5375 9.96922 13.8031 9.71923 13.8031 9.41085C13.8031 9.10247 13.5375 8.85248 13.2098 8.85248C12.8821 8.85248 12.6164 9.10247 12.6164 9.41085ZM9.78926 9.41085C9.78926 9.71923 10.0549 9.96922 10.3826 9.96922C10.7103 9.96922 10.976 9.71923 10.976 9.41085C10.976 9.10247 10.7103 8.85248 10.3826 8.85248C10.0549 8.85248 9.78926 9.10247 9.78926 9.41085Z" fill="white"/>
</svg>
