<?xml version="1.0" standalone="no"?><!DOCTYPE svg PUBLIC "-//W3C//DTD SVG 1.1//EN" "http://www.w3.org/Graphics/SVG/1.1/DTD/svg11.dtd"><svg t="1743160621604" class="icon" viewBox="0 0 1024 1024" version="1.1" xmlns="http://www.w3.org/2000/svg" p-id="6164" xmlns:xlink="http://www.w3.org/1999/xlink" width="200" height="200"><path d="M712.848 706.6688c-10.7888-2.9424-22.1136-4.5216-33.8336-4.5216-47.4528 0-88.92 25.6544-111.32 63.904-7.24 12.3072-19.784 20.7024-34.048 21.6352-5.9856 0.3952-12.0064 0.5744-18.064 0.5744-140.1344 0-256.1136-103.264-276.3632-237.888-2.5808-17.2944 5.5904-34.3376 20.5008-43.3792 37.344-22.6048 62.3248-63.6528 62.3248-110.5488 0-25.296-7.2752-48.8688-19.8192-68.7824-22.8672-36.2752-63.2224-60.3872-109.2048-60.3872-68.9568 0-125.2608 54.144-128.8448 122.2816-0.1072 2.296-0.1792 4.592-0.1792 6.8896 0 6.5664 0.5008 12.9888 1.4336 19.2672 20.9312 304.3744 274.1392 544.7744 583.4752 544.7744 6.8464 0 13.6912-0.144 20.4656-0.3952 3.1904 0.2512 6.3792 0.3952 9.6416 0.3952 9.1024 0 17.9552-0.9328 26.4848-2.7264 58.5632-12.2352 102.5376-64.1904 102.5376-126.4432C808.0384 771.7216 767.6832 721.56 712.848 706.6688M666.1168 608.8128c-19.7872 0-35.84-16.0528-35.84-35.84 0-98.9328-80.384-179.4336-179.2-179.4336-19.7872 0-35.84-16.0528-35.84-35.84s16.0528-35.84 35.84-35.84c138.344 0 250.88 112.6528 250.88 251.1136C701.9568 592.76 685.904 608.8128 666.1168 608.8128zM795.1264 587.2992c-19.7872 0-35.84-16.0528-35.84-35.84 0-158.2928-128.6128-287.0928-286.72-287.0928-19.7872 0-35.84-16.0528-35.84-35.84 0-19.7872 16.0528-35.84 35.84-35.84 197.6336 0 358.4 160.9536 358.4 358.7728C830.9664 571.2464 814.9136 587.2992 795.1264 587.2992zM924.16 565.7632c-19.7872 0-35.84-16.0528-35.84-35.84 0-217.6528-176.8672-394.7296-394.24-394.7296-19.7872 0-35.84-16.0528-35.84-35.84 0-19.7872 16.0528-35.84 35.84-35.84 256.8992 0 465.92 209.2304 465.92 466.4096C960 549.7104 943.9472 565.7632 924.16 565.7632z" fill="#000000" p-id="6165"></path></svg>