<?xml version="1.0" standalone="no"?><!DOCTYPE svg PUBLIC "-//W3C//DTD SVG 1.1//EN" "http://www.w3.org/Graphics/SVG/1.1/DTD/svg11.dtd"><svg t="1741439509439" class="icon" viewBox="0 0 1024 1024" version="1.1" xmlns="http://www.w3.org/2000/svg" p-id="4833" xmlns:xlink="http://www.w3.org/1999/xlink" width="200" height="200"><path d="M734.247385 336.068923l-56.753231 55.729231c92.829538 91.214769 92.829538 238.158769 0 327.68-92.868923 91.254154-242.451692 91.254154-333.587692 0-92.829538-91.175385-92.829538-238.158769 0-327.68l147.022769-144.423385 20.637538-20.283077V118.153846L289.752615 336.068923a306.097231 306.097231 0 0 0 0 439.177846c123.825231 121.619692 323.268923 121.619692 444.49477 0 123.785846-122.486154 123.785846-317.558154 0-439.177846z" fill="#EE4C2C" p-id="4834"></path><path d="M630.153846 275.692308m-39.384615 0a39.384615 39.384615 0 1 0 78.769231 0 39.384615 39.384615 0 1 0-78.769231 0Z" fill="#EE4C2C" p-id="4835"></path></svg>