<?xml version="1.0" standalone="no"?><!DOCTYPE svg PUBLIC "-//W3C//DTD SVG 1.1//EN" "http://www.w3.org/Graphics/SVG/1.1/DTD/svg11.dtd"><svg t="1741439377555" class="icon" viewBox="0 0 1024 1024" version="1.1" xmlns="http://www.w3.org/2000/svg" p-id="2730" xmlns:xlink="http://www.w3.org/1999/xlink" width="200" height="200"><path d="M509.824 826.581333c167.466667 0 303.274667-138.837333 303.274667-310.101333 0-171.264-135.808-310.101333-303.274667-310.101333-167.509333 0-303.274667 138.837333-303.274667 310.101333 0 171.264 135.765333 310.101333 303.274667 310.101333z" fill="#FFD21E" p-id="2731"></path><path d="M813.098667 516.48c0-171.264-135.808-310.101333-303.274667-310.101333-167.509333 0-303.274667 138.837333-303.274667 310.101333 0 171.264 135.765333 310.101333 303.274667 310.101333 167.466667 0 303.274667-138.837333 303.274667-310.101333z m-641.450667 0c0-123.562667 64.426667-237.696 169.088-299.52a331.733333 331.733333 0 0 1 338.176 0c104.618667 61.824 169.088 175.957333 169.088 299.52 0 190.976-151.424 345.770667-338.176 345.770667-186.794667 0-338.176-154.794667-338.176-345.770667z" fill="#FF9D0B" p-id="2732"></path><path d="M608.341333 432.128c11.178667 3.925333 15.530667 27.306667 26.794667 21.248 15.573333-8.448 24.661333-25.685333 22.997333-43.648a44.373333 44.373333 0 0 0-30.677333-38.4 43.050667 43.050667 0 0 0-46.421333 14.250667 45.44 45.44 0 0 0-4.906667 49.322666c5.333333 10.24 22.272-6.4 32.298667-2.858666l-0.085334 0.085333z m-205.525333 0c-11.178667 3.925333-15.616 27.306667-26.794667 21.248a44.842667 44.842667 0 0 1-22.954666-43.648 44.373333 44.373333 0 0 1 30.634666-38.4c16.896-5.290667 35.2 0.341333 46.464 14.250667 11.221333 13.909333 13.141333 33.365333 4.864 49.322666-5.333333 10.24-22.357333-6.4-32.298666-2.858666l0.085333 0.085333z" fill="#3A3B45" p-id="2733"></path><path d="M507.648 646.229333c85.76 0 113.450667-78.165333 113.450667-118.357333 0-20.864-13.696-14.250667-35.712-3.2-20.309333 10.24-47.658667 24.448-77.653334 24.448-62.72 0-113.493333-61.397333-113.493333-21.248 0 40.192 27.605333 118.357333 113.493333 118.357333h-0.085333z" fill="#FF323D" p-id="2734"></path><path d="M441.941333 625.792a76.373333 76.373333 0 0 1 46.250667-40.106667c3.456-1.024 7.04 5.12 10.794667 11.434667 3.498667 6.101333 7.168 12.245333 10.837333 12.245333 3.925333 0 7.850667-6.058667 11.605333-12.032 3.925333-6.272 7.765333-12.330667 11.52-11.178666 18.773333 6.101333 34.389333 19.456 43.648 37.205333 32.554667-26.24 44.501333-69.034667 44.501334-95.488 0-20.864-13.696-14.250667-35.712-3.2l-1.194667 0.64c-20.181333 10.24-47.061333 23.808-76.544 23.808-29.525333 0-56.32-13.568-76.544-23.808-22.698667-11.52-36.906667-18.773333-36.906667 2.56 0 27.221333 12.714667 71.936 47.744 97.92z" fill="#3A3B45" p-id="2735"></path><path d="M714.922667 474.069333a28.672 28.672 0 0 0 28.330666-29.013333 28.672 28.672 0 0 0-28.330666-29.013333 28.672 28.672 0 0 0-28.373334 29.013333c0 16.042667 12.672 29.013333 28.373334 29.013333z m-405.845334 0a28.672 28.672 0 0 0 28.373334-29.013333 28.672 28.672 0 0 0-28.373334-29.013333 28.672 28.672 0 0 0-28.330666 29.013333c0 16.042667 12.672 29.013333 28.330666 29.013333z m-58.368 98.133334c-14.122667 0-26.709333 5.930667-35.498666 16.725333-7.552 9.514667-11.648 21.333333-11.648 33.536a60.714667 60.714667 0 0 0-16.896-2.645333 45.653333 45.653333 0 0 0-34.389334 14.805333 52.650667 52.650667 0 0 0-6.997333 62.464c-7.68 6.442667-13.226667 15.274667-15.616 25.173333-2.133333 8.021333-4.181333 24.96 6.997333 42.282667-8.533333 13.397333-9.728 30.293333-3.242666 44.8 8.917333 20.693333 31.146667 36.949333 74.368 54.442667 26.794667 10.88 51.370667 17.834667 51.584 17.92 31.061333 8.832 63.146667 13.653333 95.36 14.293333 51.157333 0 87.722667-16.042667 108.757333-47.658667 33.834667-50.773333 29.013333-97.28-14.848-142.08-24.192-24.789333-40.32-61.269333-43.648-69.333333-6.826667-23.722667-24.746667-50.133333-54.528-50.133333a49.493333 49.493333 0 0 0-40.149333 21.930666c-8.746667-11.221333-17.28-20.053333-24.96-25.173333a63.573333 63.573333 0 0 0-34.645334-11.306667z m0 35.754666c4.437333 0 9.941333 1.962667 15.872 5.76 18.688 12.16 54.570667 75.264 67.754667 99.797334 4.352 8.192 11.946667 11.690667 18.645333 11.690666 13.525333 0 24.021333-13.653333 1.28-31.061333-34.133333-26.154667-22.186667-68.906667-5.888-71.466667 0.682667-0.213333 1.493333-0.213333 2.090667-0.213333 14.848 0 21.376 26.154667 21.376 26.154667s19.2 49.28 52.181333 82.986666c32.896 33.664 34.645333 60.714667 10.666667 96.682667-16.426667 24.533333-47.786667 31.914667-79.957333 31.914667-33.28 0-67.456-8.021333-86.570667-13.013334-0.938667-0.256-117.376-33.92-102.613333-62.464 2.432-4.821333 6.528-6.826667 11.690666-6.826666 20.778667 0 58.453333 31.616 74.794667 31.616 3.584 0 6.101333-1.493333 7.253333-5.333334 6.869333-25.429333-105.258667-36.138667-95.829333-72.917333 1.706667-6.528 6.186667-9.088 12.544-9.088 27.392 0 89.002667 49.322667 101.973333 49.322667 0.938667 0 1.706667-0.256 2.048-0.853334 6.485333-10.752 2.901333-18.218667-42.752-46.421333-45.482667-28.202667-77.482667-45.184-59.306666-65.408a11.178667 11.178667 0 0 1 8.704-3.413333c27.648 0 93.013333 60.885333 93.013333 60.885333s17.621333 18.730667 28.373333 18.730667c2.432 0 4.522667-0.896 5.930667-3.413334 7.509333-13.013333-70.357333-73.344-74.666667-98.218666-2.986667-16.981333 2.048-25.429333 11.392-25.429334z" fill="#FF9D0B" p-id="2736"></path><path d="M434.688 828.288c23.978667-36.053333 22.229333-63.146667-10.666667-96.768-32.981333-33.621333-52.181333-82.986667-52.181333-82.986667s-7.168-28.586667-23.466667-25.856c-16.341333 2.645333-28.288 45.312 5.930667 71.466667 34.133333 26.154667-6.826667 43.904-19.968 19.370667-13.098667-24.533333-49.066667-87.637333-67.754667-99.797334-18.56-12.032-31.658667-5.333333-27.306666 19.626667 4.352 24.917333 82.304 85.248 74.666666 98.176-7.552 13.141333-34.261333-15.232-34.261333-15.232S196.181333 638.549333 177.92 658.773333c-18.133333 20.224 13.866667 37.205333 59.349333 65.408 45.653333 28.16 49.237333 35.669333 42.752 46.378667-6.528 10.709333-107.178667-76.117333-116.565333-39.253333-9.429333 36.693333 102.698667 47.317333 95.786667 72.746666-6.954667 25.429333-79.061333-48.042667-93.696-19.456-14.848 28.629333 101.674667 62.293333 102.613333 62.549334 37.546667 9.984 133.12 31.146667 166.528-18.901334z" fill="#FFD21E" p-id="2737"></path><path d="M773.290667 572.245333c14.122667 0 26.794667 5.888 35.498666 16.682667 7.552 9.514667 11.648 21.333333 11.648 33.536 5.504-1.706667 11.221333-2.56 16.981334-2.645333 13.525333 0 25.770667 5.248 34.389333 14.805333 15.872 16.810667 18.730667 42.410667 6.997333 62.464 7.68 6.442667 13.141333 15.274667 15.530667 25.173333 2.133333 8.021333 4.181333 24.96-6.997333 42.282667 8.533333 13.397333 9.728 30.293333 3.242666 44.8-8.917333 20.693333-31.146667 36.949333-74.24 54.442667-26.88 10.88-51.498667 17.834667-51.712 17.92a378.965333 378.965333 0 0 1-95.36 14.293333c-51.157333 0-87.722667-16.042667-108.757333-47.658667-33.834667-50.773333-29.013333-97.28 14.848-142.08 24.277333-24.789333 40.405333-61.269333 43.733333-69.333333 6.826667-23.722667 24.704-50.133333 54.442667-50.133333 16.085333 0.256 31.018667 8.448 40.149333 21.930666 8.746667-11.221333 17.28-20.053333 25.045334-25.173333 10.24-7.04 22.186667-11.008 34.56-11.306667z m0 35.712c-4.437333 0-9.856 1.962667-15.872 5.76-18.602667 12.16-54.570667 75.264-67.754667 99.797334a21.162667 21.162667 0 0 1-18.645333 11.690666c-13.44 0-24.021333-13.653333-1.237334-31.061333 34.133333-26.154667 22.186667-68.906667 5.845334-71.466667a13.141333 13.141333 0 0 0-2.090667-0.213333c-14.848 0-21.376 26.154667-21.376 26.154667s-19.2 49.28-52.096 82.986666c-32.981333 33.664-34.730667 60.714667-10.666667 96.682667 16.341333 24.533333 47.786667 31.914667 79.872 31.914667 33.322667 0 67.456-8.021333 86.656-13.013334 0.853333-0.256 117.376-33.92 102.613334-62.464-2.517333-4.821333-6.528-6.826667-11.690667-6.826666-20.778667 0-58.538667 31.616-74.794667 31.616-3.669333 0-6.186667-1.493333-7.253333-5.333334-6.954667-25.429333 105.173333-36.138667 95.744-72.917333-1.621333-6.528-6.101333-9.088-12.544-9.088-27.392 0-89.002667 49.322667-101.973333 49.322667-0.853333 0-1.621333-0.256-1.962667-0.853334-6.485333-10.752-2.986667-18.218667 42.581333-46.421333 45.653333-28.202667 77.653333-45.184 59.306667-65.408-1.962667-2.346667-4.949333-3.413333-8.533333-3.413333-27.733333 0-93.098667 60.885333-93.098667 60.885333s-17.621333 18.730667-28.288 18.730667a6.4 6.4 0 0 1-5.930667-3.413334c-7.594667-13.013333 70.272-73.344 74.624-98.218666 2.986667-16.981333-2.133333-25.429333-11.434666-25.429334z" fill="#FF9D0B" p-id="2738"></path><path d="M589.397333 828.288c-23.978667-36.053333-22.314667-63.146667 10.666667-96.768 32.896-33.621333 52.053333-82.986667 52.053333-82.986667s7.210667-28.586667 23.594667-25.856c16.213333 2.645333 28.16 45.312-5.930667 71.466667-34.218667 26.154667 6.826667 43.904 19.882667 19.370667 13.226667-24.533333 49.152-87.637333 67.754667-99.797334 18.56-12.032 31.744-5.333333 27.306666 19.626667-4.352 24.917333-82.218667 85.248-74.624 98.176 7.509333 13.141333 34.218667-15.232 34.218667-15.232s83.626667-77.738667 101.76-57.472c18.133333 20.224-13.781333 37.205333-59.349333 65.408-45.653333 28.16-49.152 35.669333-42.752 46.378667 6.528 10.709333 107.178667-76.117333 116.565333-39.253334 9.429333 36.693333-102.613333 47.317333-95.701333 72.746667 6.954667 25.429333 78.933333-48.042667 93.696-19.456 14.762667 28.629333-101.674667 62.293333-102.613334 62.549333-37.632 9.984-133.162667 31.146667-166.528-18.901333z" fill="#FFD21E" p-id="2739"></path></svg>